<?xml version="1.0" encoding="utf-8"?>
<!-- Generator: Adobe Illustrator 25.0.0, SVG Export Plug-In . SVG Version: 6.00 Build 0)  -->
<svg version="1.1" id="Layer_1" xmlns="http://www.w3.org/2000/svg" xmlns:xlink="http://www.w3.org/1999/xlink" x="0px" y="0px"
	 viewBox="0 0 128 47" style="enable-background:new 0 0 128 47;" xml:space="preserve">
<style type="text/css">
	.st0{fill:#FFFFFF;}
</style>
<g>
	<g>
		<path class="st0" d="M18.5,19l0.2-0.2v-0.1h-2.3l4.9,12.2l4-8.8l4.1,8.8l4.8-12.2h-2.3v0.1L32,19c0,0,0.1,0.1,0.1,0.1
			c0,0.1,0,0.1,0,0.2c0,0.1,0,0.1,0,0.2c0,0.1,0,0.1,0,0.2l-2.8,7.1l-3.9-8.2l-3.9,8.4l-2.9-7.3c0-0.1,0-0.1,0-0.1c0,0,0-0.1,0-0.2
			c0-0.1,0-0.1,0-0.2C18.5,19.1,18.5,19.1,18.5,19"/>
		<path class="st0" d="M25.3,2.1c0.4,0,0.7-0.3,0.7-0.7c0-0.4-0.3-0.7-0.7-0.7c-0.4,0-0.7,0.3-0.7,0.7C24.6,1.7,24.9,2.1,25.3,2.1"
			/>
		<path class="st0" d="M33.2,5.1c0.4,0,0.7-0.3,0.7-0.7c0-0.4-0.3-0.7-0.7-0.7c-0.4,0-0.7,0.3-0.7,0.7C32.5,4.8,32.8,5.1,33.2,5.1"
			/>
		<path class="st0" d="M40.9,8.6c0.4,0,0.7-0.3,0.7-0.7c0-0.4-0.3-0.7-0.7-0.7c-0.4,0-0.7,0.3-0.7,0.7C40.2,8.3,40.5,8.6,40.9,8.6"
			/>
		<path class="st0" d="M44.4,14.9c-0.4,0-0.7,0.3-0.7,0.7c0,0.4,0.3,0.7,0.7,0.7c0.4,0,0.7-0.3,0.7-0.7
			C45.1,15.2,44.7,14.9,44.4,14.9"/>
		<path class="st0" d="M47.4,22.8c-0.4,0-0.7,0.3-0.7,0.7c0,0.4,0.3,0.7,0.7,0.7c0.4,0,0.7-0.3,0.7-0.7
			C48.1,23.1,47.8,22.8,47.4,22.8"/>
		<path class="st0" d="M44.3,30.7c-0.4,0-0.7,0.3-0.7,0.7c0,0.4,0.3,0.7,0.7,0.7c0.4,0,0.7-0.3,0.7-0.7C45,31.1,44.7,30.7,44.3,30.7
			"/>
		<path class="st0" d="M40.9,38.5c-0.4,0-0.7,0.3-0.7,0.7c0,0.4,0.3,0.7,0.7,0.7s0.7-0.3,0.7-0.7C41.6,38.8,41.3,38.5,40.9,38.5"/>
		<path class="st0" d="M33.1,41.9c-0.4,0-0.7,0.3-0.7,0.7c0,0.4,0.3,0.7,0.7,0.7c0.4,0,0.7-0.3,0.7-0.7
			C33.8,42.2,33.5,41.9,33.1,41.9"/>
		<path class="st0" d="M38.6,10.9c0.4,0,0.7-0.3,0.7-0.7c0-0.4-0.3-0.7-0.7-0.7c-0.4,0-0.7,0.3-0.7,0.7
			C37.9,10.6,38.2,10.9,38.6,10.9"/>
		<path class="st0" d="M41.8,15.5c0-0.4-0.3-0.7-0.7-0.7c-0.4,0-0.7,0.3-0.7,0.7c0,0.4,0.3,0.7,0.7,0.7
			C41.5,16.2,41.8,15.9,41.8,15.5"/>
		<path class="st0" d="M42.1,17.3c-0.4,0-0.7,0.3-0.7,0.7c0,0.4,0.3,0.7,0.7,0.7c0.4,0,0.7-0.3,0.7-0.7
			C42.8,17.6,42.5,17.3,42.1,17.3"/>
		<path class="st0" d="M44.8,23.5c0-0.4-0.3-0.7-0.7-0.7c-0.4,0-0.7,0.3-0.7,0.7c0,0.4,0.3,0.7,0.7,0.7
			C44.5,24.2,44.8,23.9,44.8,23.5"/>
		<path class="st0" d="M42.1,28.3c-0.4,0-0.7,0.3-0.7,0.7c0,0.4,0.3,0.7,0.7,0.7c0.4,0,0.7-0.3,0.7-0.7
			C42.8,28.6,42.5,28.3,42.1,28.3"/>
		<path class="st0" d="M41.1,30.9c-0.4,0-0.7,0.3-0.7,0.7c0,0.4,0.3,0.7,0.7,0.7c0.4,0,0.7-0.3,0.7-0.7
			C41.8,31.2,41.5,30.9,41.1,30.9"/>
		<path class="st0" d="M38.6,36.2c-0.4,0-0.7,0.3-0.7,0.7c0,0.4,0.3,0.7,0.7,0.7c0.4,0,0.7-0.3,0.7-0.7
			C39.3,36.5,38.9,36.2,38.6,36.2"/>
		<path class="st0" d="M33.3,38.7c-0.4,0-0.7,0.3-0.7,0.7c0,0.4,0.3,0.7,0.7,0.7c0.4,0,0.7-0.3,0.7-0.7C34,39,33.7,38.7,33.3,38.7"
			/>
		<path class="st0" d="M30.7,39.7c-0.4,0-0.7,0.3-0.7,0.7c0,0.4,0.3,0.7,0.7,0.7c0.4,0,0.7-0.3,0.7-0.7C31.4,40,31.1,39.7,30.7,39.7
			"/>
		<path class="st0" d="M30.8,7.3c0.4,0,0.7-0.3,0.7-0.7c0-0.4-0.3-0.7-0.7-0.7c-0.4,0-0.7,0.3-0.7,0.7C30.1,7,30.4,7.3,30.8,7.3"/>
		<path class="st0" d="M33.3,7c-0.4,0-0.7,0.3-0.7,0.7c0,0.4,0.3,0.7,0.7,0.7c0.4,0,0.7-0.3,0.7-0.7C34,7.3,33.7,7,33.3,7"/>
		<path class="st0" d="M17.2,8.3c0.4,0,0.7-0.3,0.7-0.7c0-0.4-0.3-0.7-0.7-0.7c-0.4,0-0.7,0.3-0.7,0.7C16.5,8,16.8,8.3,17.2,8.3"/>
		<path class="st0" d="M11.9,10.8c0.4,0,0.7-0.3,0.7-0.7c0-0.4-0.3-0.7-0.7-0.7c-0.4,0-0.7,0.3-0.7,0.7
			C11.2,10.5,11.6,10.8,11.9,10.8"/>
		<path class="st0" d="M9.6,8.5c0.4,0,0.7-0.3,0.7-0.7c0-0.4-0.3-0.7-0.7-0.7c-0.4,0-0.7,0.3-0.7,0.7C8.9,8.2,9.2,8.5,9.6,8.5"/>
		<path class="st0" d="M6.2,16.3c0.4,0,0.7-0.3,0.7-0.7c0-0.4-0.3-0.7-0.7-0.7c-0.4,0-0.7,0.3-0.7,0.7C5.5,15.9,5.8,16.3,6.2,16.3"
			/>
		<path class="st0" d="M9.4,16.1c0.4,0,0.7-0.3,0.7-0.7c0-0.4-0.3-0.7-0.7-0.7c-0.4,0-0.7,0.3-0.7,0.7C8.7,15.8,9,16.1,9.4,16.1"/>
		<path class="st0" d="M8.4,18.7c0.4,0,0.7-0.3,0.7-0.7c0-0.4-0.3-0.7-0.7-0.7c-0.4,0-0.7,0.3-0.7,0.7C7.7,18.4,8,18.7,8.4,18.7"/>
		<path class="st0" d="M6.4,22.8c-0.4,0-0.7,0.3-0.7,0.7c0,0.4,0.3,0.7,0.7,0.7c0.4,0,0.7-0.3,0.7-0.7C7.1,23.1,6.8,22.8,6.4,22.8"
			/>
		<path class="st0" d="M3.1,22.8c-0.4,0-0.7,0.3-0.7,0.7c0,0.4,0.3,0.7,0.7,0.7c0.4,0,0.7-0.3,0.7-0.7C3.8,23.1,3.5,22.8,3.1,22.8"
			/>
		<path class="st0" d="M6.1,30.7c-0.4,0-0.7,0.3-0.7,0.7c0,0.4,0.3,0.7,0.7,0.7c0.4,0,0.7-0.3,0.7-0.7C6.8,31,6.5,30.7,6.1,30.7"/>
		<path class="st0" d="M9.6,38.4c-0.4,0-0.7,0.3-0.7,0.7c0,0.4,0.3,0.7,0.7,0.7c0.4,0,0.7-0.3,0.7-0.7C10.3,38.7,10,38.4,9.6,38.4"
			/>
		<path class="st0" d="M17.3,41.9c-0.4,0-0.7,0.3-0.7,0.7c0,0.4,0.3,0.7,0.7,0.7c0.4,0,0.7-0.3,0.7-0.7C18,42.2,17.7,41.9,17.3,41.9
			"/>
		<path class="st0" d="M25.2,44.9c-0.4,0-0.7,0.3-0.7,0.7c0,0.4,0.3,0.7,0.7,0.7c0.4,0,0.7-0.3,0.7-0.7
			C25.9,45.3,25.6,44.9,25.2,44.9"/>
		<path class="st0" d="M9,29c0-0.4-0.3-0.7-0.7-0.7c-0.4,0-0.7,0.3-0.7,0.7c0,0.4,0.3,0.7,0.7,0.7C8.7,29.7,9,29.4,9,29"/>
		<path class="st0" d="M9.4,32.2c0.4,0,0.7-0.3,0.7-0.7c0-0.4-0.3-0.7-0.7-0.7c-0.4,0-0.7,0.3-0.7,0.7C8.7,31.9,9,32.2,9.4,32.2"/>
		<path class="st0" d="M11.9,36.1c-0.4,0-0.7,0.3-0.7,0.7c0,0.4,0.3,0.7,0.7,0.7c0.4,0,0.7-0.3,0.7-0.7
			C12.6,36.4,12.3,36.1,11.9,36.1"/>
		<path class="st0" d="M17.2,40c0.4,0,0.7-0.3,0.7-0.7c0-0.4-0.3-0.7-0.7-0.7c-0.4,0-0.7,0.3-0.7,0.7C16.5,39.7,16.8,40,17.2,40"/>
		<path class="st0" d="M19.7,39.7c-0.4,0-0.7,0.3-0.7,0.7c0,0.4,0.3,0.7,0.7,0.7c0.4,0,0.7-0.3,0.7-0.7C20.4,40,20.1,39.7,19.7,39.7
			"/>
		<path class="st0" d="M25.2,41.7c-0.4,0-0.7,0.3-0.7,0.7c0,0.4,0.3,0.7,0.7,0.7c0.4,0,0.7-0.3,0.7-0.7C25.9,42,25.6,41.7,25.2,41.7
			"/>
		<path class="st0" d="M19.8,7.3c0.4,0,0.7-0.3,0.7-0.7c0-0.4-0.3-0.7-0.7-0.7c-0.4,0-0.7,0.3-0.7,0.7C19.1,7,19.4,7.3,19.8,7.3"/>
		<path class="st0" d="M17.4,5.1c0.4,0,0.7-0.3,0.7-0.7c0-0.4-0.3-0.7-0.7-0.7c-0.4,0-0.7,0.3-0.7,0.7C16.7,4.8,17,5.1,17.4,5.1"/>
		<path class="st0" d="M25.3,5.3C25.7,5.3,26,5,26,4.6C26,4.3,25.7,4,25.3,4c-0.4,0-0.7,0.3-0.7,0.7C24.6,5,24.9,5.3,25.3,5.3"/>
		<path class="st0" d="M25.3,8.3c0.5,0,0.9-0.4,0.9-0.9c0-0.5-0.4-0.9-0.9-0.9c-0.5,0-0.9,0.4-0.9,0.9C24.4,8,24.8,8.3,25.3,8.3"/>
		<path class="st0" d="M28.6,9.5c0.5,0,0.9-0.4,0.9-0.9c0-0.5-0.4-0.9-0.9-0.9c-0.5,0-0.9,0.4-0.9,0.9C27.7,9.1,28.1,9.5,28.6,9.5"
			/>
		<path class="st0" d="M32.6,10.6c0,0.5,0.4,0.9,0.9,0.9c0.5,0,0.9-0.4,0.9-0.9c0-0.5-0.4-0.9-0.9-0.9C33,9.8,32.6,10.2,32.6,10.6"
			/>
		<path class="st0" d="M36.6,13.1c0.5,0,0.9-0.4,0.9-0.9c0-0.5-0.4-0.9-0.9-0.9c-0.5,0-0.9,0.4-0.9,0.9
			C35.7,12.7,36.1,13.1,36.6,13.1"/>
		<path class="st0" d="M38.1,16.2c0.5,0,0.9-0.4,0.9-0.9c0-0.5-0.4-0.9-0.9-0.9c-0.5,0-0.9,0.4-0.9,0.9
			C37.3,15.8,37.6,16.2,38.1,16.2"/>
		<path class="st0" d="M40.2,21.1c0.5,0,0.9-0.4,0.9-0.9c0-0.5-0.4-0.9-0.9-0.9c-0.5,0-0.9,0.4-0.9,0.9
			C39.3,20.7,39.7,21.1,40.2,21.1"/>
		<path class="st0" d="M40.4,23.5c0,0.5,0.4,0.9,0.9,0.9c0.5,0,0.9-0.4,0.9-0.9c0-0.5-0.4-0.9-0.9-0.9C40.8,22.6,40.4,23,40.4,23.5"
			/>
		<path class="st0" d="M41,26.8c0-0.5-0.4-0.9-0.9-0.9c-0.5,0-0.9,0.4-0.9,0.9c0,0.5,0.4,0.9,0.9,0.9C40.6,27.7,41,27.3,41,26.8"/>
		<path class="st0" d="M39,31.7c0-0.5-0.4-0.9-0.9-0.9c-0.5,0-0.9,0.4-0.9,0.9c0,0.5,0.4,0.9,0.9,0.9C38.6,32.6,39,32.2,39,31.7"/>
		<path class="st0" d="M36.6,34c-0.5,0-0.9,0.4-0.9,0.9c0,0.5,0.4,0.9,0.9,0.9c0.5,0,0.9-0.4,0.9-0.9C37.4,34.4,37.1,34,36.6,34"/>
		<path class="st0" d="M33.4,35.5c-0.5,0-0.9,0.4-0.9,0.9c0,0.5,0.4,0.9,0.9,0.9c0.5,0,0.9-0.4,0.9-0.9
			C34.3,35.9,33.9,35.5,33.4,35.5"/>
		<path class="st0" d="M28.5,37.5c-0.5,0-0.9,0.4-0.9,0.9c0,0.5,0.4,0.9,0.9,0.9c0.5,0,0.9-0.4,0.9-0.9C29.4,37.9,29,37.5,28.5,37.5
			"/>
		<path class="st0" d="M25.2,38.7c-0.5,0-0.9,0.4-0.9,0.9c0,0.5,0.4,0.9,0.9,0.9c0.5,0,0.9-0.4,0.9-0.9C26.1,39,25.7,38.7,25.2,38.7
			"/>
		<path class="st0" d="M21.9,37.5c-0.5,0-0.9,0.4-0.9,0.9c0,0.5,0.4,0.9,0.9,0.9c0.5,0,0.9-0.4,0.9-0.9
			C22.8,37.9,22.4,37.5,21.9,37.5"/>
		<path class="st0" d="M17.9,36.4c0-0.5-0.4-0.9-0.9-0.9c-0.5,0-0.9,0.4-0.9,0.9c0,0.5,0.4,0.9,0.9,0.9
			C17.5,37.2,17.9,36.8,17.9,36.4"/>
		<path class="st0" d="M13.9,33.9c-0.5,0-0.9,0.4-0.9,0.9c0,0.5,0.4,0.9,0.9,0.9c0.5,0,0.9-0.4,0.9-0.9
			C14.8,34.3,14.4,33.9,13.9,33.9"/>
		<path class="st0" d="M12.4,30.8c-0.5,0-0.9,0.4-0.9,0.9c0,0.5,0.4,0.9,0.9,0.9c0.5,0,0.9-0.4,0.9-0.9
			C13.2,31.2,12.8,30.8,12.4,30.8"/>
		<path class="st0" d="M10.3,25.9c-0.5,0-0.9,0.4-0.9,0.9c0,0.5,0.4,0.9,0.9,0.9c0.5,0,0.9-0.4,0.9-0.9
			C11.2,26.3,10.8,25.9,10.3,25.9"/>
		<path class="st0" d="M8.3,23.5c0,0.5,0.4,0.9,0.9,0.9c0.5,0,0.9-0.4,0.9-0.9c0-0.5-0.4-0.9-0.9-0.9C8.7,22.6,8.3,23,8.3,23.5"/>
		<path class="st0" d="M22,9.5c0.5,0,0.9-0.4,0.9-0.9c0-0.5-0.4-0.9-0.9-0.9c-0.5,0-0.9,0.4-0.9,0.9C21.1,9.1,21.5,9.5,22,9.5"/>
		<path class="st0" d="M17.1,11.5c0.5,0,0.9-0.4,0.9-0.9c0-0.5-0.4-0.9-0.9-0.9c-0.5,0-0.9,0.4-0.9,0.9
			C16.2,11.1,16.6,11.5,17.1,11.5"/>
		<path class="st0" d="M13.9,13c0.5,0,0.9-0.4,0.9-0.9c0-0.5-0.4-0.9-0.9-0.9c-0.5,0-0.9,0.4-0.9,0.9C13,12.6,13.4,13,13.9,13"/>
		<path class="st0" d="M11.5,15.3c0,0.5,0.4,0.9,0.9,0.9c0.5,0,0.9-0.4,0.9-0.9c0-0.5-0.4-0.9-0.9-0.9
			C11.9,14.4,11.5,14.8,11.5,15.3"/>
		<path class="st0" d="M9.5,20.2c0,0.5,0.4,0.9,0.9,0.9c0.5,0,0.9-0.4,0.9-0.9c0-0.5-0.4-0.9-0.9-0.9C9.9,19.3,9.5,19.7,9.5,20.2"/>
		<path class="st0" d="M25.3,11.9c0.8,0,1.4-0.6,1.4-1.4c0-0.8-0.6-1.4-1.4-1.4c-0.8,0-1.4,0.6-1.4,1.4
			C23.9,11.3,24.5,11.9,25.3,11.9"/>
		<path class="st0" d="M16.1,15.7c0.8,0,1.4-0.6,1.4-1.4c0-0.8-0.6-1.4-1.4-1.4c-0.8,0-1.4,0.6-1.4,1.4
			C14.7,15.1,15.3,15.7,16.1,15.7"/>
		<path class="st0" d="M12.3,22.1c-0.8,0-1.4,0.6-1.4,1.4c0,0.8,0.6,1.4,1.4,1.4c0.8,0,1.4-0.6,1.4-1.4C13.7,22.7,13,22.1,12.3,22.1
			"/>
		<path class="st0" d="M33,14.3c0,0.8,0.6,1.4,1.4,1.4c0.8,0,1.4-0.6,1.4-1.4c0-0.8-0.6-1.4-1.4-1.4C33.7,13,33,13.6,33,14.3"/>
		<path class="st0" d="M38.2,22.1c-0.8,0-1.4,0.6-1.4,1.4c0,0.8,0.6,1.4,1.4,1.4c0.8,0,1.4-0.6,1.4-1.4C39.6,22.8,39,22.1,38.2,22.1
			"/>
		<path class="st0" d="M34.4,31.3c-0.8,0-1.4,0.6-1.4,1.4c0,0.8,0.6,1.4,1.4,1.4c0.8,0,1.4-0.6,1.4-1.4
			C35.8,31.9,35.2,31.3,34.4,31.3"/>
		<path class="st0" d="M25.2,35.1c-0.8,0-1.4,0.6-1.4,1.4c0,0.8,0.6,1.4,1.4,1.4c0.8,0,1.4-0.6,1.4-1.4C26.6,35.7,26,35.1,25.2,35.1
			"/>
		<path class="st0" d="M17.5,32.7c0-0.8-0.6-1.4-1.4-1.4c-0.8,0-1.4,0.6-1.4,1.4c0,0.8,0.6,1.4,1.4,1.4C16.8,34,17.5,33.4,17.5,32.7
			"/>
	</g>
	<g>
		<path class="st0" d="M76.1,21.1h4.1v1.2h-4.1V21.1z M76.1,18.5h4.1v1.3h-4.1V18.5z M81.9,21.1h4.2v1.2h-4.2V21.1z M81.9,18.5h4.2
			v1.3h-4.2V18.5z M79.2,26.2c0-0.2,0.1-0.3,0.3-0.3v-0.3h-1.7c0.7-0.5,1.3-1.1,1.8-1.7h2.8c0.5,0.6,1,1.2,1.7,1.8h-1.4V26h0
			c0.2,0,0.3,0.1,0.3,0.3v4c0,0.2-0.2,0.4-0.4,0.4h-0.1V31h2.7v-0.3c-0.2,0-0.4-0.2-0.4-0.4v-4c1,0.7,2,1.2,3.4,1.8
			c0.1,0,0.2,0.2,0.1,0.3l0.3,0.2l0.9-1.9l-0.3-0.2c0,0.1-0.1,0.1-0.2,0.1c-2.2-0.7-3.7-1.5-4.8-2.7h3.4v-6c0-0.3,0.2-0.5,0.5-0.5
			h0.1V17h-0.6h-2.2h-9.1h-2.2h-0.5v0.3c0.3,0,0.5,0.2,0.5,0.5v6l3.3,0c-1.2,1-2.6,1.8-4.9,2.5c-0.1,0-0.2,0-0.3-0.1l-0.3,0.2
			l1.2,1.8l0.3-0.2c-0.1-0.1,0-0.2,0.1-0.3c1.5-0.6,2.5-1.2,3.5-1.9h0.1c0.1,2.2-1.3,2.9-3,3.4c-0.1,0-0.2,0-0.3-0.1l-0.3,0.2
			l1.4,1.7l0.3-0.2c-0.1-0.1,0-0.3,0.1-0.3C77.4,30.1,78.9,29.3,79.2,26.2"/>
		<path class="st0" d="M123.3,21.4c0.1,0.3,0.2,0.7,0.3,1.1c-0.4,0.1-0.8,0.2-1.2,0.2C122.7,22.3,123,21.9,123.3,21.4 M121.8,17.2
			c-0.6,1.9-1.1,2.5-1.3,2.7l0.3,1.1c0.6-0.1,1.1-0.2,1.7-0.4c-0.6,1.1-1.2,2-1.9,2.7l0.3,1c1.2-0.2,2.2-0.5,3.1-0.7
			c0.1,0.3,0.1,0.6,0.2,1l1.2-0.3c-0.3-1.3-0.6-2.5-1-3.5l-0.7,0.2c0.4-0.7,0.6-1.1,1.1-2c0.1-0.1,0.2-0.2,0.3-0.2l0.1-0.3l-1.7-0.6
			l-0.1,0.3l0,0c0.1,0,0.2,0.2,0.2,0.3c-0.2,0.4-0.4,0.8-0.5,0.8l-0.9,0.3c0.3-0.5,0.6-1,1-1.9c0.1-0.1,0.2-0.2,0.3-0.2l0.1,0
			l0.1-0.3l-0.4-0.1c0,0,0,0,0,0l-0.1,0l-1.5-0.5l-0.1,0.3l0.1,0.1C121.8,16.9,121.8,17,121.8,17.2"/>
		<path class="st0" d="M117.1,20.8h1.8v1.3h-1.8V20.8z M117.1,18.6h1.8v1.3h-1.8V18.6z M115.7,23c-0.3-1-0.5-1.9-0.8-2.7l-0.9,0.3
			c0.4-0.8,0.8-1.3,1.3-2.2c0.1-0.1,0.2-0.2,0.3-0.2l0,0l0.1-0.3V23z M112.8,22.2c0.3-0.4,0.6-0.9,1-1.4c0.1,0.3,0.2,0.7,0.4,1.1
			C113.7,22,113.3,22.1,112.8,22.2 M125.6,28.6l-0.3-0.1c-0.1,0.2-0.3,0.3-0.5,0.2c-2.3-0.8-3.1-1.6-4.1-2.7h4.1
			c0.1,0,0.2,0.1,0.2,0.2h0.3v-0.2v-1.4v-0.3h-0.3v0.1c0,0.1-0.1,0.2-0.2,0.2h-6v-1.2h1.6v-5.4c0-0.1,0.1-0.2,0.2-0.2h0.1v-0.3h-2.2
			c0.1-0.3,0.3-0.6,0.4-0.9c0-0.1,0.2-0.2,0.3-0.2l0.1,0l0-0.3l-2.1-0.2l0,0.3c0.2,0,0.3,0.2,0.2,0.3c-0.1,0.3-0.2,0.6-0.3,0.9h-1.6
			v0.3h0.1c0.1,0,0.2,0.1,0.2,0.2l-1.7-0.6l-0.1,0.3c0.1,0,0.2,0.2,0.2,0.3c-0.2,0.4-0.5,0.7-0.5,0.7c-0.4,0.1-0.8,0.2-1.2,0.3
			c0.3-0.6,0.7-1,1.2-1.9c0.1-0.1,0.2-0.2,0.3-0.1l0.2,0.1l0.1-0.3l-2-0.7l-0.1,0.3l0.1,0c0.1,0,0.2,0.2,0.2,0.3
			c-0.8,1.9-1.4,2.5-1.7,2.7l0.3,1.1c0.7-0.1,1.4-0.3,2-0.4c-0.6,1.1-1.3,2-2,2.8l0.3,1c1.3-0.2,2.4-0.5,3.3-0.7l0.3,1.4l1.1-0.6
			l-0.1-0.4h1.5v1.2h-6c-0.1,0-0.2-0.1-0.2-0.2v-0.1h-0.3v1.8h0.3c0-0.1,0.1-0.2,0.2-0.2h4.3c-1.3,1.4-2,2-4.1,2.8
			c-0.3,0.1-0.5,0-0.7-0.2l-0.2,0.2l1.3,2l0.2-0.2c-0.1-0.1,0-0.3,0.1-0.3c2.4-0.7,4.1-2.7,5.1-4.2h0.1v3.8c0,0.2-0.2,0.4-0.4,0.4
			v0.3h0.4h1.6h0.4v-0.3c-0.2,0-0.4-0.2-0.4-0.4v-3.8h0.1c1.1,1.6,2.8,3.6,5.3,4.2c0.2,0,0.3,0.3,0.2,0.5l0,0l0.3,0.1l0.5-1.1
			l0.4-0.7c0,0,0,0,0,0L125.6,28.6z"/>
		<path class="st0" d="M102.2,18.3h2.5v1.8h-2.5V18.3z M106.2,21.3v-3.5c0-0.3,0.2-0.5,0.5-0.5h0V17h-0.5h-1.9h-1.6h-1.9h-0.5v0.3
			c0.3,0,0.5,0.2,0.5,0.5v3.5H106.2z"/>
		<path class="st0" d="M102.6,23.6h2.2v1.5h-2.3C102.5,24.7,102.6,23.6,102.6,23.6 M102.3,26.4h4.6c0.1,0,0.2,0.1,0.2,0.2h0.3v-0.2
			v-1.4v-0.3H107c0,0.2-0.1,0.3-0.3,0.3h-0.4v-2.2c0-0.2,0.1-0.3,0.3-0.3h0.2v-0.3h-0.5v0h-6.6v-3.6c0-0.2,0.2-0.4,0.4-0.4h0V18
			h-0.4h-1.5h-0.4v0.3c0.2,0,0.4,0.2,0.4,0.4v4.9h2.9c0,0-0.1,1.1-0.1,1.5h-3c-0.1,0-0.2-0.1-0.2-0.2h-0.3v1.8h0.3v0
			c0-0.1,0.1-0.2,0.2-0.2h2.8c-0.1,1.3-0.9,2.4-2.5,2.8c-0.1,0-0.3,0-0.4-0.1L97.7,29l-0.2,0.2l1.1,2l0.2-0.2
			c-0.1-0.2-0.1-0.4,0.1-0.5C100.9,29.9,102,28.4,102.3,26.4"/>
		<path class="st0" d="M95,25.3c-0.4-0.3-0.7-0.6-1.1-1c0.3-1,0.6-2,0.9-3.5H96C95.9,22.6,95.6,23.9,95,25.3 M96.4,29.2L96.4,29.2
			l0.2,0.3l1.6-1.7l-0.2-0.2c-0.1,0.1-0.3,0.1-0.5,0c-0.4-0.4-0.8-0.8-1.3-1.3c0.8-1.8,1.2-3.7,1.3-6.2v-0.8h-2.4
			c0.1-0.7,0.2-1.4,0.3-2.1c0-0.2,0.2-0.4,0.4-0.3l0,0l0-0.3l-0.4,0v0L94,16.4l-0.5,0l0,0.3c0.2,0,0.4,0.2,0.4,0.5
			c-0.1,0.8-0.2,1.5-0.3,2.2h-0.9c-0.1,0-0.2-0.1-0.2-0.2v-0.1h-0.3v0.2v1.4v0.2h0.3c0-0.1,0.1-0.2,0.2-0.2h0.7
			c-0.3,1.6-0.6,2.6-1,4c0.8,0.7,1.5,1.3,2.1,1.9c-0.5,0.9-1.1,1.7-1.8,2.4c-0.2,0.2-0.4,0.2-0.6,0l-0.2,0.2l1.6,1.8l0.2-0.2l0,0
			c-0.1-0.2-0.1-0.4,0-0.5c0.7-0.7,1.4-1.6,1.9-2.5c0.3,0.4,0.7,0.7,0.9,1C96.5,28.9,96.5,29.1,96.4,29.2"/>
		<path class="st0" d="M106.3,31l1.4-1.9l-0.2-0.2l0,0.1c-0.1,0.2-0.4,0.2-0.6,0.1c-1.1-0.8-2.3-1.4-3.6-2l-0.8,1.1
			c1.2,0.5,2.4,1.3,3.5,2.1c0.2,0.1,0.2,0.4,0.1,0.6L106.3,31z"/>
		<path class="st0" d="M62.6,22.3h3v3.3h-3V22.3z M54,22.5c0-0.1,0.1-0.3,0.3-0.3h1.2v8.5h13.3c0.2,0,0.3,0.1,0.3,0.3h0.4v-0.3V29
			v-0.3H69v0c0,0.2-0.1,0.3-0.3,0.3H57.3v-6.7h3.5v5h6.5v-5h2.2c0.1,0,0.3,0.1,0.3,0.3v0H70v-0.3v-1.7v-0.3h-0.3
			c0,0.1-0.1,0.3-0.3,0.3h-2.2v-2.8c0-0.3,0.2-0.5,0.5-0.5h0V17H65v0.3h0c0.3,0,0.5,0.2,0.5,0.5v2.8h-3v-2.8c0-0.3,0.2-0.5,0.5-0.5
			V17h-2.7v0.3h0c0.3,0,0.5,0.2,0.5,0.5v2.8h-3.5V18c0-0.3,0.2-0.5,0.5-0.5h0.1v-0.3h-2.9v0.3h0c0.3,0,0.5,0.2,0.5,0.5v2.7h-1.2
			c-0.1,0-0.3-0.1-0.3-0.3h-0.3v0.3v1.7v0.3L54,22.5L54,22.5z"/>
	</g>
</g>
</svg>
