<svg width="473" height="176" viewBox="0 0 473 176" fill="none" xmlns="http://www.w3.org/2000/svg">
<path d="M70.4 116.5L52.2 69.6H60.9V70L60.2 70.7C60.1 70.8 60 71 59.9 71.2C59.8 71.4 59.7999 71.6 59.7999 71.9C59.7999 72.1 59.7999 72.3 59.7999 72.5C59.7999 72.7 59.9 72.9 59.9 73.1L70.8 101.1L85.4 68.8L100.1 100.5L110.5 73.1C110.6 72.9 110.6 72.7 110.6 72.5C110.6 72.3 110.6 72.1 110.6 71.9C110.6 71.6 110.6 71.4 110.5 71.2C110.4 71 110.3 70.9 110.2 70.7L109.5 70V69.6H118.1L100.3 116.4L85.1999 82.4L70.4 116.5Z" fill="white"/>
<path d="M88 2.7C88 4.2 86.8 5.4 85.4 5.4C84 5.4 82.8 4.2 82.8 2.7C82.8 1.2 83.9 0 85.4 0C86.8 0 88 1.2 88 2.7Z" fill="white"/>
<path d="M117.5 14.4C117.5 15.9 116.3 17.1 114.9 17.1C113.5 17.1 112.3 15.9 112.3 14.4C112.3 12.9 113.5 11.7 114.9 11.7C116.3 11.8 117.5 12.9 117.5 14.4Z" fill="white"/>
<path d="M146.4 27.8C146.4 29.3 145.2 30.5 143.8 30.5C142.4 30.5 141.2 29.3 141.2 27.8C141.2 26.3 142.4 25.1 143.8 25.1C145.2 25.1 146.4 26.3 146.4 27.8Z" fill="white"/>
<path d="M159.2 57.6C159.2 59.1 158 60.3 156.6 60.3C155.2 60.3 154 59.1 154 57.6C154 56.1 155.2 54.9 156.6 54.9C158.1 54.9 159.2 56.1 159.2 57.6Z" fill="white"/>
<path d="M170.5 88.1C170.5 89.6 169.3 90.8 167.9 90.8C166.5 90.8 165.3 89.6 165.3 88.1C165.3 86.6 166.5 85.4 167.9 85.4C169.4 85.5 170.5 86.6 170.5 88.1Z" fill="white"/>
<path d="M159.1 118.6C159.1 120.1 157.9 121.3 156.5 121.3C155.1 121.3 153.9 120.1 153.9 118.6C153.9 117.1 155.1 115.9 156.5 115.9C158 115.9 159.1 117.1 159.1 118.6Z" fill="white"/>
<path d="M146.2 148.4C146.2 149.9 145 151.1 143.6 151.1C142.2 151.1 141 149.9 141 148.4C141 146.9 142.2 145.7 143.6 145.7C145.1 145.8 146.2 147 146.2 148.4Z" fill="white"/>
<path d="M117.3 161.7C117.3 163.2 116.1 164.4 114.7 164.4C113.3 164.4 112.1 163.2 112.1 161.7C112.1 160.2 113.3 159 114.7 159C116.1 159 117.3 160.2 117.3 161.7Z" fill="white"/>
<path d="M137.7 36.7C137.7 38.2 136.5 39.4 135.1 39.4C133.7 39.4 132.5 38.2 132.5 36.7C132.5 35.2 133.7 34 135.1 34C136.5 34 137.7 35.2 137.7 36.7Z" fill="white"/>
<path d="M147 57.1C147 58.6 145.8 59.8 144.4 59.8C143 59.8 141.8 58.6 141.8 57.1C141.8 55.6 143 54.4 144.4 54.4C145.9 54.4 147 55.6 147 57.1Z" fill="white"/>
<path d="M151 66.9C151 68.4 149.8 69.6 148.4 69.6C147 69.6 145.8 68.4 145.8 66.9C145.8 65.4 147 64.2 148.4 64.2C149.8 64.2 151 65.4 151 66.9Z" fill="white"/>
<path d="M158.2 88.1C158.2 89.6 157 90.8 155.6 90.8C154.2 90.8 153 89.6 153 88.1C153 86.6 154.2 85.4 155.6 85.4C157.1 85.4 158.2 86.6 158.2 88.1Z" fill="white"/>
<path d="M150.9 109.3C150.9 110.8 149.7 112 148.3 112C146.9 112 145.7 110.8 145.7 109.3C145.7 107.8 146.9 106.6 148.3 106.6C149.7 106.6 150.9 107.8 150.9 109.3Z" fill="white"/>
<path d="M146.9 119.1C146.9 120.6 145.7 121.8 144.3 121.8C142.9 121.8 141.7 120.6 141.7 119.1C141.7 117.6 142.9 116.4 144.3 116.4C145.8 116.4 146.9 117.6 146.9 119.1Z" fill="white"/>
<path d="M137.6 139.5C137.6 141 136.4 142.2 135 142.2C133.6 142.2 132.4 141 132.4 139.5C132.4 138 133.6 136.8 135 136.8C136.4 136.8 137.6 138 137.6 139.5Z" fill="white"/>
<path d="M117.8 149.1C117.8 150.6 116.6 151.8 115.2 151.8C113.8 151.8 112.6 150.6 112.6 149.1C112.6 147.6 113.8 146.4 115.2 146.4C116.7 146.4 117.8 147.6 117.8 149.1Z" fill="white"/>
<path d="M108.3 153.1C108.3 154.6 107.1 155.8 105.7 155.8C104.3 155.8 103.1 154.6 103.1 153.1C103.1 151.6 104.3 150.4 105.7 150.4C107.2 150.5 108.3 151.7 108.3 153.1Z" fill="white"/>
<path d="M108.5 22.9C108.5 24.4 107.3 25.6 105.9 25.6C104.5 25.6 103.3 24.4 103.3 22.9C103.3 21.4 104.5 20.2 105.9 20.2C107.3 20.3 108.5 21.5 108.5 22.9Z" fill="white"/>
<path d="M118 27C118 28.5 116.8 29.7 115.4 29.7C114 29.7 112.8 28.5 112.8 27C112.8 25.5 114 24.3 115.4 24.3C116.8 24.3 118 25.5 118 27Z" fill="white"/>
<path d="M57.9 26.9C57.9 28.4 56.6999 29.6 55.2999 29.6C53.8999 29.6 52.7 28.4 52.7 26.9C52.7 25.4 53.8999 24.2 55.2999 24.2C56.6999 24.2 57.9 25.4 57.9 26.9Z" fill="white"/>
<path d="M38.2 36.6C38.2 38.1 37 39.3 35.6 39.3C34.2 39.3 33 38.1 33 36.6C33 35.1 34.2 33.9 35.6 33.9C37 33.9 38.2 35.1 38.2 36.6Z" fill="white"/>
<path d="M29.5 27.6C29.5 29.1 28.3 30.3 26.9 30.3C25.5 30.3 24.3 29.1 24.3 27.6C24.3 26.1 25.5 24.9 26.9 24.9C28.3 24.9 29.5 26.1 29.5 27.6Z" fill="white"/>
<path d="M16.5999 57.4C16.5999 58.9 15.3999 60.1 13.9999 60.1C12.5999 60.1 11.3999 58.9 11.3999 57.4C11.3999 55.9 12.5999 54.7 13.9999 54.7C15.3999 54.7 16.5999 55.9 16.5999 57.4Z" fill="white"/>
<path d="M28.8001 56.9C28.8001 58.4 27.6001 59.6 26.2001 59.6C24.8001 59.6 23.6001 58.4 23.6001 56.9C23.6001 55.4 24.8001 54.2 26.2001 54.2C27.6001 54.2 28.8001 55.4 28.8001 56.9Z" fill="white"/>
<path d="M24.8001 66.7C24.8001 68.2 23.6001 69.4 22.2001 69.4C20.8001 69.4 19.6001 68.2 19.6001 66.7C19.6001 65.2 20.8001 64 22.2001 64C23.6001 64 24.8001 65.2 24.8001 66.7Z" fill="white"/>
<path d="M17.5 87.9C17.5 89.4 16.3 90.6 14.9 90.6C13.5 90.6 12.3 89.4 12.3 87.9C12.3 86.4 13.5 85.2 14.9 85.2C16.3 85.2 17.5 86.4 17.5 87.9Z" fill="white"/>
<path d="M5.2 87.9C5.2 89.4 4 90.6 2.6 90.6C1.2 90.6 0 89.4 0 87.9C0 86.4 1.2 85.2 2.6 85.2C4 85.2 5.2 86.4 5.2 87.9Z" fill="white"/>
<path d="M16.5 118.4C16.5 119.9 15.3 121.1 13.9 121.1C12.5 121.1 11.3 119.9 11.3 118.4C11.3 116.9 12.5 115.7 13.9 115.7C15.3 115.7 16.5 116.9 16.5 118.4Z" fill="white"/>
<path d="M29.3001 148.3C29.3001 149.8 28.1001 151 26.7001 151C25.3001 151 24.1001 149.8 24.1001 148.3C24.1001 146.8 25.3001 145.6 26.7001 145.6C28.2001 145.6 29.3001 146.8 29.3001 148.3Z" fill="white"/>
<path d="M58.2 161.6C58.2 163.1 57 164.3 55.6 164.3C54.2 164.3 53 163.1 53 161.6C53 160.1 54.2 158.9 55.6 158.9C57.1 158.9 58.2 160.1 58.2 161.6Z" fill="white"/>
<path d="M87.7 173.3C87.7 174.8 86.5 176 85.1 176C83.7 176 82.5 174.8 82.5 173.3C82.5 171.8 83.7 170.6 85.1 170.6C86.6 170.7 87.7 171.9 87.7 173.3Z" fill="white"/>
<path d="M24.8001 109.1C24.8001 110.6 23.6001 111.8 22.2001 111.8C20.8001 111.8 19.6001 110.6 19.6001 109.1C19.6001 107.6 20.8001 106.4 22.2001 106.4C23.6001 106.5 24.8001 107.7 24.8001 109.1Z" fill="white"/>
<path d="M28.7 118.9C28.7 120.4 27.5 121.6 26.1 121.6C24.7 121.6 23.5 120.4 23.5 118.9C23.5 117.4 24.7 116.2 26.1 116.2C27.5 116.3 28.7 117.5 28.7 118.9Z" fill="white"/>
<path d="M38 139.3C38 140.8 36.8001 142 35.4001 142C34.0001 142 32.8 140.8 32.8 139.3C32.8 137.8 34.0001 136.6 35.4001 136.6C36.9001 136.6 38 137.8 38 139.3Z" fill="white"/>
<path d="M57.7 149C57.7 150.5 56.5 151.7 55.1 151.7C53.7 151.7 52.5 150.5 52.5 149C52.5 147.5 53.7 146.3 55.1 146.3C56.6 146.3 57.7 147.5 57.7 149Z" fill="white"/>
<path d="M67.2 153.1C67.2 154.6 66 155.8 64.6 155.8C63.2 155.8 62 154.6 62 153.1C62 151.6 63.2 150.4 64.6 150.4C66 150.4 67.2 151.6 67.2 153.1Z" fill="white"/>
<path d="M87.8001 160.7C87.8001 162.2 86.6001 163.4 85.2001 163.4C83.8001 163.4 82.6001 162.2 82.6001 160.7C82.6001 159.2 83.8001 158 85.2001 158C86.6001 158 87.8001 159.2 87.8001 160.7Z" fill="white"/>
<path d="M67.4 22.9C67.4 24.4 66.2 25.6 64.8 25.6C63.4 25.6 62.2 24.4 62.2 22.9C62.2 21.4 63.4 20.2 64.8 20.2C66.2 20.2 67.4 21.4 67.4 22.9Z" fill="white"/>
<path d="M58.4 14.3C58.4 15.8 57.1999 17 55.7999 17C54.3999 17 53.2 15.8 53.2 14.3C53.2 12.8 54.3999 11.6 55.7999 11.6C57.2999 11.7 58.4 12.9 58.4 14.3Z" fill="white"/>
<path d="M88 15.4C88 16.9 86.8 18.1 85.4 18.1C84 18.1 82.8 16.9 82.8 15.4C82.8 13.9 84 12.7 85.4 12.7C86.8 12.7 88 13.9 88 15.4Z" fill="white"/>
<path d="M88.6 26.2C88.6 28.1 87.1 29.6 85.3 29.6C83.5 29.6 82 28.1 82 26.2C82 24.3 83.5 22.8 85.3 22.8C87.2 22.8 88.6 24.3 88.6 26.2Z" fill="white"/>
<path d="M101 30.6C101 32.5 99.4999 34 97.6999 34C95.8999 34 94.3999 32.5 94.3999 30.6C94.3999 28.7 95.8999 27.2 97.6999 27.2C99.4999 27.2 101 28.7 101 30.6Z" fill="white"/>
<path d="M119.2 38.4C119.2 40.3 117.7 41.8 115.9 41.8C114.1 41.8 112.6 40.3 112.6 38.4C112.6 36.5 114.1 35 115.9 35C117.8 35 119.2 36.6 119.2 38.4Z" fill="white"/>
<path d="M130.9 44.4C130.9 46.3 129.4 47.8 127.6 47.8C125.8 47.8 124.3 46.3 124.3 44.4C124.3 42.5 125.8 41 127.6 41C129.5 41 130.9 42.5 130.9 44.4Z" fill="white"/>
<path d="M136.7 56.5C136.7 58.4 135.2 59.9 133.4 59.9C131.6 59.9 130.1 58.4 130.1 56.5C130.1 54.6 131.6 53.1 133.4 53.1C135.2 53.1 136.7 54.6 136.7 56.5Z" fill="white"/>
<path d="M144.2 75.3C144.2 77.2 142.7 78.7 140.9 78.7C139.1 78.7 137.6 77.2 137.6 75.3C137.6 73.4 139.1 71.9 140.9 71.9C142.7 71.9 144.2 73.5 144.2 75.3Z" fill="white"/>
<path d="M148.4 88.1C148.4 90 146.9 91.5 145.1 91.5C143.3 91.5 141.8 90 141.8 88.1C141.8 86.2 143.3 84.7 145.1 84.7C146.9 84.7 148.4 86.2 148.4 88.1Z" fill="white"/>
<path d="M144.2 100.8C144.2 102.7 142.7 104.2 140.9 104.2C139.1 104.2 137.6 102.7 137.6 100.8C137.6 98.9 139.1 97.4 140.9 97.4C142.7 97.4 144.2 99 144.2 100.8Z" fill="white"/>
<path d="M136.6 119.7C136.6 121.6 135.1 123.1 133.3 123.1C131.5 123.1 130 121.6 130 119.7C130 117.8 131.5 116.3 133.3 116.3C135.1 116.3 136.6 117.8 136.6 119.7Z" fill="white"/>
<path d="M130.8 131.8C130.8 133.7 129.3 135.2 127.5 135.2C125.7 135.2 124.2 133.7 124.2 131.8C124.2 129.9 125.7 128.4 127.5 128.4C129.3 128.4 130.8 129.9 130.8 131.8Z" fill="white"/>
<path d="M119.1 137.7C119.1 139.6 117.6 141.1 115.8 141.1C114 141.1 112.5 139.6 112.5 137.7C112.5 135.8 114 134.3 115.8 134.3C117.6 134.3 119.1 135.8 119.1 137.7Z" fill="white"/>
<path d="M100.8 145.4C100.8 147.3 99.3 148.8 97.5 148.8C95.7 148.8 94.2 147.3 94.2 145.4C94.2 143.5 95.7 142 97.5 142C99.3 142.1 100.8 143.6 100.8 145.4Z" fill="white"/>
<path d="M88.4999 149.8C88.4999 151.7 86.9999 153.2 85.1999 153.2C83.3999 153.2 81.8999 151.7 81.8999 149.8C81.8999 147.9 83.3999 146.4 85.1999 146.4C86.9999 146.4 88.4999 147.9 88.4999 149.8Z" fill="white"/>
<path d="M76.1 145.4C76.1 147.3 74.6 148.8 72.8 148.8C71 148.8 69.5 147.3 69.5 145.4C69.5 143.5 71 142 72.8 142C74.7 142 76.1 143.5 76.1 145.4Z" fill="white"/>
<path d="M57.9001 137.6C57.9001 139.5 56.4 141 54.6 141C52.8 141 51.3 139.5 51.3 137.6C51.3 135.7 52.8 134.2 54.6 134.2C56.4 134.2 57.9001 135.7 57.9001 137.6Z" fill="white"/>
<path d="M46.2001 131.6C46.2001 133.5 44.7001 135 42.9001 135C41.1001 135 39.6001 133.5 39.6001 131.6C39.6001 129.7 41.1001 128.2 42.9001 128.2C44.7001 128.2 46.2001 129.8 46.2001 131.6Z" fill="white"/>
<path d="M40.4001 119.5C40.4001 121.4 38.9 122.9 37.1 122.9C35.3 122.9 33.8 121.4 33.8 119.5C33.8 117.6 35.3 116.1 37.1 116.1C39 116.1 40.4001 117.7 40.4001 119.5Z" fill="white"/>
<path d="M32.9001 100.7C32.9001 102.6 31.4 104.1 29.6 104.1C27.8001 104.1 26.3 102.6 26.3 100.7C26.3 98.8 27.8001 97.3 29.6 97.3C31.4 97.3 32.9001 98.8 32.9001 100.7Z" fill="white"/>
<path d="M28.7001 87.9C28.7001 89.8 27.2001 91.3 25.4001 91.3C23.6001 91.3 22.1001 89.8 22.1001 87.9C22.1001 86 23.6001 84.5 25.4001 84.5C27.2001 84.5 28.7001 86 28.7001 87.9Z" fill="white"/>
<path d="M76.3 30.6C76.3 32.5 74.8 34 73 34C71.2 34 69.7 32.5 69.7 30.6C69.7 28.7 71.2 27.2 73 27.2C74.8 27.2 76.3 28.7 76.3 30.6Z" fill="white"/>
<path d="M57.9999 38.3C57.9999 40.2 56.4999 41.7 54.6999 41.7C52.8999 41.7 51.3999 40.2 51.3999 38.3C51.3999 36.4 52.8999 34.9 54.6999 34.9C56.4999 35 57.9999 36.5 57.9999 38.3Z" fill="white"/>
<path d="M46.2999 44.2C46.2999 46.1 44.8 47.6 43 47.6C41.2 47.6 39.7 46.1 39.7 44.2C39.7 42.3 41.2 40.8 43 40.8C44.8 40.9 46.2999 42.4 46.2999 44.2Z" fill="white"/>
<path d="M40.4999 56.3C40.4999 58.2 38.9999 59.7 37.1999 59.7C35.3999 59.7 33.8999 58.2 33.8999 56.3C33.8999 54.4 35.3999 52.9 37.1999 52.9C39.0999 52.9 40.4999 54.5 40.4999 56.3Z" fill="white"/>
<path d="M32.9001 75.2C32.9001 77.1 31.4 78.6 29.6 78.6C27.8001 78.6 26.3 77.1 26.3 75.2C26.3 73.3 27.8001 71.8 29.6 71.8C31.5 71.8 32.9001 73.3 32.9001 75.2Z" fill="white"/>
<path d="M90.5001 38C90.5001 41 88.2001 43.4 85.3001 43.4C82.4001 43.4 80.1001 41 80.1001 38C80.1001 35 82.4001 32.6 85.3001 32.6C88.2001 32.7 90.5001 35.1 90.5001 38Z" fill="white"/>
<path d="M56.2999 52.6C56.2999 55.6 53.9999 58 51.0999 58C48.1999 58 45.8999 55.6 45.8999 52.6C45.8999 49.6 48.1999 47.2 51.0999 47.2C53.8999 47.3 56.2999 49.7 56.2999 52.6Z" fill="white"/>
<path d="M42.0001 87.9C42.0001 90.9 39.7001 93.3 36.8001 93.3C33.9001 93.3 31.6001 90.9 31.6001 87.9C31.6001 84.9 33.9001 82.5 36.8001 82.5C39.7001 82.6 42.0001 85 42.0001 87.9Z" fill="white"/>
<path d="M124.7 52.7C124.7 55.7 122.4 58.1 119.5 58.1C116.6 58.1 114.3 55.7 114.3 52.7C114.3 49.7 116.6 47.3 119.5 47.3C122.4 47.4 124.7 49.8 124.7 52.7Z" fill="white"/>
<path d="M138.9 88.1C138.9 91.1 136.6 93.5 133.7 93.5C130.8 93.5 128.5 91.1 128.5 88.1C128.5 85.1 130.8 82.7 133.7 82.7C136.5 82.7 138.9 85.1 138.9 88.1Z" fill="white"/>
<path d="M124.6 123.4C124.6 126.4 122.3 128.8 119.4 128.8C116.5 128.8 114.2 126.4 114.2 123.4C114.2 120.4 116.5 118 119.4 118C122.3 118 124.6 120.4 124.6 123.4Z" fill="white"/>
<path d="M90.4 138C90.4 141 88.1 143.4 85.2 143.4C82.3 143.4 80 141 80 138C80 135 82.3 132.6 85.2 132.6C88.1 132.6 90.4 135 90.4 138Z" fill="white"/>
<path d="M56.2001 123.3C56.2001 126.3 53.9 128.7 51 128.7C48.1 128.7 45.8 126.3 45.8 123.3C45.8 120.3 48.1 117.9 51 117.9C53.8 117.9 56.2001 120.3 56.2001 123.3Z" fill="white"/>
<path d="M208.4 73.6C209.1 73.6 209.5 73.5 209.7 73.4C209.9 73.3 209.9 73 209.9 72.7C209.9 72.3 209.8 71.9 209.7 71.5C209.5 71.1 209.4 70.6 209.3 70.3L197.1 36.7C196.8 35.8 196.5 35.1 196.1 34.7C195.7 34.3 195.2 34 194.5 34V33H204.5V34C203.8 34 203.4 34.1 203.2 34.3C203 34.5 202.9 34.8 202.9 35.2C202.9 35.5 203 35.9 203.2 36.3C203.4 36.7 203.6 37.2 203.8 37.7L214 66.2H214.2L224.4 36.1C224.6 35.6 224.6 35.2 224.6 34.9C224.6 34.3 224.2 34 223.5 34V33H234.1V34C233.2 34 232.7 34.3 232.7 35C232.7 35.3 232.8 35.6 232.9 36C233.1 36.4 233.2 36.8 233.4 37.2L243.3 65.2H243.5L253.7 36.8C253.8 36.4 253.9 36.1 254 35.9C254.1 35.7 254.2 35.4 254.2 35.1C254.2 34.4 253.6 34 252.5 34V33H262.1V34C261.4 34 261 34.2 260.6 34.6C260.3 35 259.9 35.7 259.5 36.7L247.5 70.2C247.2 70.9 247 71.4 246.9 71.8C246.7 72.2 246.7 72.6 246.7 73C246.7 73.5 247.2 73.7 248.2 73.7V74.6H238.1V73.7C238.8 73.7 239.2 73.6 239.4 73.5C239.6 73.4 239.7 73.2 239.7 72.9C239.7 72.5 239.6 72.1 239.4 71.6C239.2 71.1 239 70.6 238.9 70.2L228.7 41.5H228.5L218.3 71C218.2 71.3 218.1 71.6 218 71.9C217.9 72.2 217.8 72.5 217.8 72.9C217.8 73.4 218.3 73.7 219.3 73.7V74.6H208.4V73.6Z" fill="white"/>
<path d="M292 37.3C286.6 37.3 282.4 38.8 279.5 41.7C276.6 44.6 275.1 48.6 275.1 53.8C275.1 59 276.6 62.9 279.5 65.9C282.4 68.8 286.6 70.3 292 70.3C297.4 70.3 301.6 68.8 304.5 65.9C307.4 63 308.9 59 308.9 53.8C308.9 48.6 307.4 44.7 304.5 41.7C301.6 38.8 297.4 37.3 292 37.3ZM292 31.8C295.4 31.8 298.6 32.3 301.5 33.2C304.4 34.2 306.9 35.6 309.1 37.5C311.2 39.4 312.9 41.7 314.1 44.4C315.3 47.1 315.9 50.3 315.9 53.8C315.9 57.4 315.3 60.5 314.1 63.2C312.9 65.9 311.2 68.2 309.1 70.1C307 72 304.4 73.3 301.5 74.2C298.6 75.1 295.4 75.6 292 75.6C288.6 75.6 285.4 75.2 282.5 74.2C279.6 73.3 277.1 71.9 274.9 70.1C272.8 68.2 271.1 65.9 269.9 63.2C268.7 60.5 268.1 57.3 268.1 53.8C268.1 50.2 268.7 47.1 269.9 44.4C271.1 41.7 272.8 39.4 274.9 37.5C277 35.6 279.6 34.2 282.5 33.2C285.4 32.2 288.6 31.8 292 31.8Z" fill="white"/>
<path d="M352.6 51.2C355.7 51.2 357.9 50.6 359.2 49.4C360.5 48.2 361.1 46.5 361.1 44.4C361.1 43.3 361 42.5 360.7 41.7C360.4 41 360 40.3 359.3 39.8C358.6 39.3 357.7 38.9 356.6 38.7C355.5 38.5 354 38.3 352.2 38.3H335.8V51.1H352.6V51.2ZM335.8 71.7C335.8 72.3 335.9 72.7 336.2 73.1C336.5 73.4 336.9 73.6 337.7 73.6V74.5H327.6V73.6C328.3 73.6 328.8 73.4 329.1 73.1C329.4 72.8 329.5 72.3 329.5 71.7V35.9C329.5 35.3 329.4 34.9 329.1 34.5C328.8 34.2 328.4 34 327.6 34V33H353.2C358.2 33 361.9 34 364.1 36C366.3 38 367.4 40.8 367.4 44.6C367.4 47.9 366.6 50.5 364.9 52.5C363.2 54.4 360.5 55.7 356.6 56.2L366.2 71.6C366.8 72.4 367.2 73 367.5 73.3C367.8 73.6 368.4 73.7 369.1 73.7V74.6H358.1V73.7C358.8 73.7 359.2 73.6 359.4 73.5C359.6 73.4 359.7 73.2 359.7 73C359.7 72.7 359.6 72.4 359.3 72.1L349.9 56.6H335.8V71.7V71.7Z" fill="white"/>
<path d="M392.1 34C391.4 34 390.9 34.2 390.6 34.6C390.3 35 390.2 35.5 390.2 36.3V69.5H415.9C417.7 69.5 418.6 68.7 418.6 67.1H419.5V76.2H418.6C418.6 75.2 417.7 74.7 415.9 74.7H381.9V73.8C382.6 73.8 383.1 73.6 383.4 73.3C383.7 73 383.8 72.5 383.8 71.9V35.9C383.8 35.3 383.7 34.9 383.4 34.5C383.1 34.2 382.7 34 381.9 34V33H392V34H392.1Z" fill="white"/>
<path d="M452.4 69.4C456.9 69.4 460.3 68.1 462.5 65.5C464.7 62.9 465.9 59 465.9 53.9C465.9 48.8 464.6 44.9 462 42.3C459.4 39.7 455.8 38.4 451 38.4H436.2V69.5H452.4V69.4ZM429.8 35.9C429.8 35.3 429.7 34.9 429.4 34.5C429.1 34.2 428.7 34 427.9 34V33H451.6C454.8 33 457.6 33.5 460.1 34.5C462.6 35.5 464.8 37 466.5 38.8C468.3 40.6 469.6 42.8 470.6 45.4C471.6 47.9 472.1 50.7 472.1 53.7C472.1 56.7 471.7 59.5 470.9 62C470.1 64.6 468.9 66.7 467.3 68.6C465.7 70.4 463.7 71.9 461.3 72.9C458.9 73.9 456.2 74.4 453.1 74.4H428V73.5C428.7 73.5 429.2 73.3 429.5 73C429.8 72.7 429.9 72.2 429.9 71.6V35.9H429.8Z" fill="white"/>
<path d="M212.6 95.6C212.6 95.4 212.5 95.2 212.3 95.1C212.1 95 211.8 94.9 211.4 94.9H201.1V99H207.3C207.7 99 208.1 98.9 208.3 98.8C208.5 98.7 208.6 98.4 208.6 97.9H209.2V103H208.6C208.6 102.5 208.5 102.2 208.3 102C208.1 101.9 207.7 101.8 207.3 101.8H201.1V106.3H211.7C212 106.3 212.3 106.2 212.5 106.1C212.7 105.9 212.8 105.7 212.8 105.5H213.4V110H212.8C212.8 109.7 212.7 109.5 212.5 109.4C212.3 109.4 212 109.3 211.7 109.3H196.9V108.7C197.1 108.7 197.2 108.6 197.3 108.6C197.4 108.5 197.5 108.4 197.5 108.2V93.2C197.5 93 197.4 92.9 197.3 92.8C197.2 92.7 197.1 92.6 196.9 92.6V92H211.4C211.8 92 212.2 91.9 212.3 91.8C212.5 91.7 212.6 91.5 212.6 91.2H213.2V95.5H212.6V95.6Z" fill="white"/>
<path d="M218.2 108.7C218.6 108.7 218.8 108.5 218.8 108.1V93.2C218.8 92.8 218.6 92.6 218.2 92.6V92H223.6V92.6C223.4 92.6 223.3 92.7 223.3 92.9C223.3 93.1 223.5 93.4 223.9 93.8L233 103.6V93.2C233 92.8 232.7 92.6 232.2 92.6V92H237V92.6C236.6 92.6 236.4 92.8 236.4 93.2V108.1C236.4 108.5 236.6 108.7 237 108.7V109.3H232V108.7C232.3 108.7 232.4 108.6 232.4 108.4C232.4 108.2 232.2 108 231.9 107.6L222.2 97.2V108.1C222.2 108.5 222.4 108.7 222.9 108.7V109.3H218.2V108.7V108.7Z" fill="white"/>
<path d="M251.5 108.1C251.5 108.5 251.7 108.7 252.2 108.7V109.3H247.3V108.7C247.4 108.7 247.6 108.6 247.7 108.5C247.8 108.4 247.9 108.3 247.9 108.1V95.1H242.7C242.5 95.1 242.3 95.2 242.1 95.3C241.9 95.4 241.8 95.6 241.8 95.9H241.2V91.3H241.8C241.8 91.6 241.9 91.8 242.1 91.9C242.3 92 242.5 92.1 242.7 92.1H256.8C257 92.1 257.2 92 257.4 91.9C257.6 91.8 257.7 91.6 257.7 91.3H258.3V95.9H257.7C257.7 95.6 257.6 95.4 257.4 95.3C257.2 95.2 257 95.1 256.8 95.1H251.6V108.1H251.5Z" fill="white"/>
<path d="M277.8 95.6C277.8 95.4 277.7 95.2 277.5 95.1C277.3 95 277 94.9 276.6 94.9H266.3V99H272.5C272.9 99 273.2 98.9 273.5 98.8C273.7 98.7 273.8 98.4 273.8 97.9H274.4V103H273.8C273.8 102.5 273.7 102.2 273.5 102C273.3 101.9 272.9 101.8 272.5 101.8H266.3V106.3H276.9C277.2 106.3 277.5 106.2 277.7 106.1C277.9 105.9 278 105.7 278 105.5H278.6V110H278C278 109.7 277.9 109.5 277.7 109.4C277.5 109.4 277.2 109.3 276.9 109.3H262.1V108.7C262.3 108.7 262.4 108.6 262.5 108.6C262.6 108.5 262.7 108.4 262.7 108.2V93.2C262.7 93 262.6 92.9 262.5 92.8C262.4 92.7 262.3 92.6 262.1 92.6V92H276.6C277 92 277.4 91.9 277.5 91.8C277.7 91.7 277.8 91.5 277.8 91.2H278.4V95.5H277.8V95.6Z" fill="white"/>
<path d="M293.2 99.7C294 99.7 294.6 99.6 295.1 99.5C295.6 99.4 296 99.2 296.3 99C296.6 98.8 296.8 98.5 296.9 98.2C297 97.9 297.1 97.6 297.1 97.2C297.1 96.9 297 96.5 296.9 96.2C296.8 95.9 296.6 95.7 296.3 95.4C296 95.2 295.6 95 295.1 94.9C294.6 94.8 294 94.7 293.2 94.7H287.7V99.5H293.2V99.7ZM294 92.1C295 92.1 295.9 92.2 296.8 92.4C297.6 92.6 298.3 92.9 298.9 93.3C299.5 93.7 299.9 94.2 300.3 94.9C300.6 95.5 300.8 96.3 300.8 97.3C300.8 98.7 300.4 99.8 299.6 100.6C298.8 101.4 297.7 101.9 296.3 102.1L300.5 108.3C300.6 108.5 300.8 108.7 301 108.7C301.2 108.7 301.4 108.8 301.6 108.8V109.4H295.7V108.8C295.9 108.8 296.1 108.8 296.2 108.7C296.3 108.6 296.4 108.5 296.4 108.4C296.4 108.3 296.4 108.2 296.3 108C296.2 107.9 296.1 107.7 295.9 107.4L292.4 102.3H287.9V108.1C287.9 108.3 288 108.4 288.1 108.5C288.2 108.6 288.5 108.7 288.8 108.7V109.3H283.3V108.7C283.9 108.7 284.2 108.5 284.2 108.1V93.2C284.2 92.8 283.9 92.6 283.3 92.6V92H294V92.1Z" fill="white"/>
<path d="M315 108.1C315 108.5 315.2 108.7 315.7 108.7V109.3H310.8V108.7C310.9 108.7 311.1 108.6 311.2 108.5C311.3 108.4 311.4 108.3 311.4 108.1V95.1H306.2C306 95.1 305.8 95.2 305.6 95.3C305.4 95.4 305.3 95.6 305.3 95.9H304.7V91.3H305.3C305.3 91.6 305.4 91.8 305.6 91.9C305.8 92 306 92.1 306.2 92.1H320.3C320.5 92.1 320.7 92 320.9 91.9C321.1 91.8 321.2 91.6 321.2 91.3H321.8V95.9H321.2C321.2 95.6 321.1 95.4 320.9 95.3C320.7 95.2 320.5 95.1 320.3 95.1H315V108.1Z" fill="white"/>
<path d="M335.5 102.6L332.8 96.5L329.8 102.6H335.5ZM323.6 108.7C323.9 108.7 324.1 108.5 324.3 108.3C324.5 108.1 324.6 107.8 324.8 107.5L330.7 94.8C330.8 94.5 331 94.3 331.1 94C331.2 93.8 331.3 93.6 331.3 93.4C331.3 93.2 331.2 93 331.1 92.9C331 92.8 330.8 92.7 330.6 92.7V92.1H336V92.7C335.8 92.7 335.7 92.8 335.6 92.9C335.5 93 335.4 93.1 335.4 93.4C335.4 93.6 335.4 93.7 335.5 93.9C335.6 94.1 335.7 94.3 335.8 94.6L342.4 107.9C342.5 108.1 342.6 108.3 342.8 108.4C343 108.5 343.2 108.6 343.4 108.7V109.3H337.8V108.7C337.9 108.7 338 108.7 338.1 108.6C338.2 108.5 338.3 108.4 338.3 108.3C338.3 108.1 338.2 107.8 338 107.4L336.8 105H329.1L328 107.3C327.8 107.8 327.7 108.1 327.7 108.3C327.7 108.5 327.9 108.7 328.3 108.7V109.3H323.8V108.7H323.6Z" fill="white"/>
<path d="M346.7 108.7C347.2 108.7 347.5 108.5 347.5 108.1V93.2C347.5 92.8 347.2 92.6 346.7 92.6V92H352V92.6C351.4 92.6 351.2 92.8 351.2 93.2V108.1C351.2 108.5 351.5 108.7 352 108.7V109.3H346.7V108.7Z" fill="white"/>
<path d="M357.5 108.7C357.9 108.7 358.1 108.5 358.1 108.1V93.2C358.1 92.8 357.9 92.6 357.5 92.6V92H362.9V92.6C362.7 92.6 362.6 92.7 362.6 92.9C362.6 93.1 362.8 93.4 363.2 93.8L372.3 103.6V93.2C372.3 92.8 372 92.6 371.5 92.6V92H376.3V92.6C375.9 92.6 375.7 92.8 375.7 93.2V108.1C375.7 108.5 375.9 108.7 376.3 108.7V109.3H371.2V108.7C371.5 108.7 371.6 108.6 371.6 108.4C371.6 108.2 371.4 108 371.1 107.6L361.4 97.2V108.1C361.4 108.5 361.6 108.7 362.1 108.7V109.3H357.4V108.7H357.5Z" fill="white"/>
<path d="M382.1 108.7C382.3 108.7 382.4 108.6 382.5 108.6C382.6 108.5 382.7 108.4 382.7 108.2V93.2C382.7 93 382.6 92.9 382.5 92.8C382.4 92.7 382.2 92.7 382.1 92.7V92.1H388V92.7C387.9 92.7 387.8 92.7 387.7 92.8C387.6 92.9 387.5 93 387.5 93.1C387.5 93.2 387.5 93.4 387.6 93.5C387.7 93.7 387.8 93.9 387.9 94.1L392.4 102.6L397 94.2C397.1 93.9 397.3 93.7 397.3 93.5C397.4 93.3 397.4 93.2 397.4 93.1C397.4 92.9 397.3 92.7 397 92.7V92.1H402.9V92.7C402.7 92.7 402.6 92.7 402.5 92.8C402.4 92.9 402.3 93 402.3 93.2V108.1C402.3 108.3 402.4 108.4 402.5 108.5C402.6 108.6 402.8 108.6 402.9 108.6V109.2H397.9V108.6C398.5 108.6 398.8 108.4 398.8 108V97.2H398.7L392.3 109.3H392.2L385.9 97.2H386V108.1C386 108.5 386.3 108.7 386.9 108.7V109.3H382.1V108.7V108.7Z" fill="white"/>
<path d="M424.2 95.6C424.2 95.4 424.1 95.2 423.9 95.1C423.7 95 423.4 94.9 423 94.9H412.7V99H418.9C419.3 99 419.7 98.9 419.9 98.8C420.1 98.7 420.3 98.4 420.3 97.9H420.9V103H420.3C420.3 102.5 420.2 102.2 419.9 102C419.7 101.9 419.3 101.8 418.9 101.8H412.7V106.3H423.3C423.6 106.3 423.9 106.2 424.1 106.1C424.3 105.9 424.4 105.7 424.4 105.5H425V110H424.4C424.4 109.7 424.3 109.5 424.1 109.4C423.9 109.4 423.6 109.3 423.3 109.3H408.5V108.7C408.7 108.7 408.8 108.6 408.9 108.6C409 108.5 409.1 108.4 409.1 108.2V93.2C409.1 93 409 92.9 408.9 92.8C408.8 92.7 408.7 92.6 408.5 92.6V92H423C423.4 92 423.8 91.9 423.9 91.8C424.1 91.7 424.2 91.5 424.2 91.2H424.8V95.5H424.2V95.6Z" fill="white"/>
<path d="M429.8 108.7C430.2 108.7 430.4 108.5 430.4 108.1V93.2C430.4 92.8 430.2 92.6 429.8 92.6V92H435.2V92.6C435 92.6 434.9 92.7 434.9 92.9C434.9 93.1 435.1 93.4 435.5 93.8L444.6 103.6V93.2C444.6 92.8 444.3 92.6 443.8 92.6V92H448.6V92.6C448.2 92.6 448 92.8 448 93.2V108.1C448 108.5 448.2 108.7 448.6 108.7V109.3H443.5V108.7C443.8 108.7 443.9 108.6 443.9 108.4C443.9 108.2 443.7 108 443.4 107.6L433.7 97.2V108.1C433.7 108.5 433.9 108.7 434.4 108.7V109.3H429.7V108.7H429.8Z" fill="white"/>
<path d="M463.1 108.1C463.1 108.5 463.3 108.7 463.8 108.7V109.3H458.9V108.7C459 108.7 459.2 108.6 459.3 108.5C459.4 108.4 459.5 108.3 459.5 108.1V95.1H454.3C454.1 95.1 453.9 95.2 453.7 95.3C453.5 95.4 453.4 95.6 453.4 95.9H452.8V91.3H453.4C453.4 91.6 453.5 91.8 453.7 91.9C453.9 92 454.1 92.1 454.3 92.1H468.4C468.6 92.1 468.8 92 469 91.9C469.2 91.8 469.3 91.6 469.3 91.3H469.9V95.9H469.3C469.3 95.6 469.2 95.4 469 95.3C468.8 95.2 468.6 95.1 468.4 95.1H463.2V108.1H463.1Z" fill="white"/>
<path d="M310.6 131.8H315.7V133.3H310.6V131.8ZM308.4 130.2H303.3V128.6H308.4V130.2ZM308.4 133.3H303.3V131.8H308.4V133.3ZM310.6 128.6H315.7V130.2H310.6V128.6ZM319.6 138.4C316.8 137.5 315.1 136.5 313.7 135.1H317.9V127.7C317.9 127.4 318.2 127.1 318.5 127.1H318.6V126.7H317.9H315.2H304H301.2H300.6V127.1C300.9 127.1 301.2 127.4 301.2 127.7V135.1H305.3C303.9 136.4 302.1 137.3 299.3 138.2C299.2 138.2 299.1 138.2 299 138.1L298.6 138.3L300.1 140.6L300.5 140.4C300.4 140.3 300.5 140.1 300.6 140C302.4 139.3 303.6 138.6 305 137.6H305.1C305.2 140.3 303.5 141.1 301.4 141.7C301.3 141.7 301.2 141.7 301.1 141.6L300.8 141.9L302.6 144L302.9 143.7C302.8 143.6 302.9 143.4 303 143.3C305.2 142.6 306.9 141.6 307.4 137.8C307.4 137.6 307.6 137.5 307.7 137.5V137.1H305.6C306.5 136.4 307.2 135.7 307.8 135H311.3C311.9 135.7 312.6 136.5 313.4 137.2H311.7V137.6C311.9 137.6 312 137.8 312 138V142.9C312 143.2 311.8 143.4 311.5 143.4H311.4V143.8H314.8V143.4C314.5 143.4 314.3 143.2 314.3 142.9V137.9C315.6 138.8 316.7 139.4 318.5 140.1C318.6 140.2 318.7 140.3 318.6 140.4L319 140.6L320.2 138.3L319.8 138.1C319.9 138.4 319.7 138.5 319.6 138.4Z" fill="white"/>
<path d="M399.4 132.1C399.5 132.5 399.7 132.9 399.8 133.4C399.3 133.5 398.8 133.6 398.4 133.7C398.7 133.2 399.1 132.7 399.4 132.1ZM399.2 126.7L397.3 126.1L397.2 126.4L397.4 126.5C397.6 126.6 397.6 126.7 397.6 126.9C396.8 129.3 396.3 130 395.9 130.2L396.2 131.5C396.9 131.3 397.6 131.2 398.2 131.1C397.5 132.4 396.7 133.6 395.9 134.5L396.2 135.7C397.6 135.4 398.9 135.1 400 134.8C400.1 135.2 400.2 135.6 400.2 136L401.7 135.7C401.4 134.1 400.9 132.7 400.5 131.4L399.6 131.6C400.1 130.7 400.4 130.3 400.9 129.1C401 128.9 401.1 128.9 401.3 128.9L401.4 128.6L399.3 127.9L399.2 128.2C399.4 128.3 399.5 128.4 399.4 128.6C399.2 129.1 398.9 129.5 398.8 129.5L397.7 129.8C398 129.1 398.4 128.6 398.9 127.4C399 127.2 399.1 127.2 399.3 127.2L399.5 127.3L399.6 127L399.2 126.9V126.7Z" fill="white"/>
<path d="M391.9 132H394.1V133.6H391.9V132ZM391.9 129.3H394.1V130.9H391.9V129.3ZM390.1 134.7C389.8 133.5 389.5 132.3 389.1 131.3L388 131.7C388.5 130.7 389 130.1 389.5 129C389.6 128.8 389.7 128.8 389.9 128.8H390L390.1 128.5V134.7ZM386.6 133.7C387 133.2 387.4 132.6 387.8 132C388 132.4 388.1 132.9 388.3 133.4C387.7 133.5 387.1 133.6 386.6 133.7ZM402 141.4C401.9 141.6 401.6 141.8 401.3 141.7C398.5 140.8 397.5 139.8 396.2 138.3H401.2C401.3 138.3 401.4 138.4 401.4 138.5H401.8V138.3V136.6V136.3H401.4V136.4C401.4 136.5 401.3 136.6 401.2 136.6H393.8V135.1H395.7V128.4C395.7 128.2 395.8 128.1 396 128.1H396.1V127.7H393.4C393.6 127.4 393.7 127 393.9 126.6C393.9 126.5 394.1 126.4 394.2 126.4H394.3V126L391.7 125.7V126.1C391.9 126.1 392 126.3 392 126.5C391.9 126.9 391.7 127.3 391.6 127.6H389.7V128H389.8C390 128 390.1 128.1 390.1 128.3L388 127.6L387.9 127.9C388.1 128 388.2 128.2 388.1 128.3C387.9 128.8 387.5 129.2 387.5 129.2C387 129.3 386.6 129.4 386.1 129.6C386.5 128.9 386.9 128.4 387.6 127.2C387.7 127.1 387.8 127 388 127L388.2 127.1L388.3 126.8L385.8 126L385.7 126.3H385.8C386 126.4 386.1 126.6 386 126.7C385 129.1 384.3 129.8 383.9 130L384.2 131.3C385.1 131.1 385.9 131 386.6 130.8C385.9 132.2 385.1 133.3 384.2 134.2L384.5 135.4C386.1 135.1 387.4 134.8 388.6 134.6L388.9 136.3L390.3 135.6L390.2 135.1H392V136.6H384.6C384.5 136.6 384.4 136.5 384.4 136.4V136.3H384V138.5H384.4C384.4 138.4 384.5 138.3 384.6 138.3H389.9C388.3 140 387.4 140.8 384.8 141.7C384.5 141.8 384.1 141.7 383.9 141.4L383.6 141.6L385.2 144.1L385.5 143.9C385.4 143.8 385.5 143.6 385.6 143.5C388.6 142.6 390.6 140.1 391.9 138.3H392V143C392 143.3 391.8 143.5 391.5 143.5V143.9H392H393.9H394.4V143.5C394.1 143.5 393.9 143.3 393.9 143V138.3H394C395.4 140.2 397.5 142.7 400.5 143.5C400.7 143.6 400.8 143.8 400.7 144.1L401 144.3L401.7 142.9L402.1 142L402.3 141.6L402 141.4Z" fill="white"/>
<path d="M354.5 128.3H357.6V130.5H354.5V128.3ZM359.4 132V127.6C359.4 127.3 359.7 127 360 127V126.6H359.4H357.1H355.1H352.7H352.1V127C352.4 127 352.7 127.3 352.7 127.6V132H359.4Z" fill="white"/>
<path d="M357.7 136.6H354.8C354.9 136.1 354.9 134.8 354.9 134.8H357.6V136.6H357.7ZM360.5 138.5H360.9V138.3V136.6V136.3H360.5C360.5 136.5 360.3 136.6 360.2 136.6H359.7V133.8C359.7 133.6 359.9 133.5 360 133.5H360.2V133.1H359.6H351.4V128.7C351.4 128.4 351.6 128.2 351.9 128.2V127.8H351.4H349.5H349V128.2C349.3 128.2 349.5 128.4 349.5 128.7V134.7H353.1C353.1 134.7 353 136.1 353 136.5H349.3C349.1 136.5 349 136.4 349 136.2H348.6V138.4H349C349 138.3 349.1 138.2 349.2 138.2H352.7C352.6 139.8 351.6 141.1 349.6 141.7C349.4 141.7 349.2 141.7 349.1 141.6L349 141.4L348.7 141.6L350.1 144L350.4 143.8C350.3 143.6 350.3 143.3 350.6 143.2C353 142.5 354.4 140.6 354.7 138.2H360.3C360.4 138.3 360.5 138.4 360.5 138.5Z" fill="white"/>
<path d="M345.7 136.9C345.3 136.5 344.8 136.1 344.3 135.7C344.7 134.4 345.1 133.2 345.5 131.3H346.9C346.7 133.6 346.4 135.1 345.7 136.9ZM349.2 139.8C349 140 348.8 140 348.6 139.8C348.2 139.3 347.7 138.8 347.1 138.2C348 135.9 348.6 133.7 348.7 130.6V129.6H345.8C345.9 128.8 346.1 127.9 346.2 127C346.2 126.7 346.5 126.6 346.7 126.6V126.2H346.2L344.4 126L343.8 125.9V126.3C344.1 126.3 344.3 126.6 344.2 126.9C344.1 127.8 343.9 128.8 343.8 129.7H342.6C342.5 129.7 342.4 129.6 342.4 129.5V129.4H342V129.7V131.5V131.7H342.4C342.4 131.6 342.5 131.5 342.6 131.5H343.5C343.1 133.4 342.7 134.8 342.3 136.4C343.2 137.2 344.1 138 344.9 138.8C344.3 139.9 343.5 140.9 342.7 141.7C342.5 141.9 342.2 141.9 342 141.7L341.7 141.9L343.6 144.1L343.9 143.9C343.7 143.7 343.7 143.4 343.9 143.2C344.8 142.3 345.6 141.3 346.3 140.1C346.7 140.5 347.1 141 347.5 141.4C347.6 141.6 347.6 141.8 347.5 141.9L347.4 142L347.7 142.2L349.6 140.1L349.2 139.8Z" fill="white"/>
<path d="M360.9 141.3C360.7 141.5 360.4 141.6 360.2 141.4C358.9 140.5 357.4 139.6 355.8 138.9L354.8 140.3C356.3 141 357.7 141.8 359.2 142.9C359.4 143.1 359.5 143.4 359.3 143.6L359.6 143.8L361.3 141.4L360.9 141.3Z" fill="white"/>
<path d="M271.4 137.2H267.8V133.2H271.4V137.2ZM276.3 131.1H273.6V127.6C273.6 127.3 273.9 127 274.2 127V126.6H270.8V127C271.1 127 271.4 127.3 271.4 127.6V131.1H267.8V127.6C267.8 127.3 268.1 127 268.4 127V126.6H265V127C265.3 127 265.6 127.3 265.6 127.6V131.1H261.3V127.8C261.3 127.5 261.6 127.2 261.9 127.2H262V126.8H258.4V127.2C258.7 127.2 259 127.5 259 127.8V131.1H257.5C257.3 131.1 257.2 131 257.2 130.8H256.8V131.1V133.1V133.4H257.2C257.2 133.2 257.3 133.1 257.5 133.1H259V143.5H275.4C275.6 143.5 275.7 143.6 275.7 143.8H276.1V143.5V141.3V140.9H275.7C275.7 141.1 275.6 141.2 275.4 141.2H261.3V133H265.6V139.1H273.6V133H276.3C276.5 133 276.6 133.1 276.6 133.3H277V133V131V130.7H276.6C276.6 131 276.5 131.1 276.3 131.1Z" fill="white"/>
</svg>
