<svg width="120" height="60" viewBox="0 0 120 60" fill="none" xmlns="http://www.w3.org/2000/svg">
<rect x="120" y="45.5703" width="120" height="1" transform="rotate(-180 120 45.5703)" fill="url(#paint0_linear)"/>
<path d="M67 45.0867L60.7214 51.3653L54.4428 45.0867" stroke="#B0936D"/>
<path d="M74 45L60 59L46 45" stroke="#B0936D"/>
<rect y="14.4297" width="120" height="1" fill="url(#paint1_linear)"/>
<path d="M54 14.9133L60.2786 8.63473L66.5572 14.9133" stroke="#B0936D"/>
<path d="M46 15L60 1L74 15" stroke="#B0936D"/>
<path d="M19.4033 31.5049H16.1758L15.3359 33.3359H14.1104L17.8408 25.3232L21.4395 33.3359H20.1943L19.4033 31.5049ZM18.9395 30.4355L17.8213 27.8721L16.6494 30.4355H18.9395ZM24.5244 25.7969V32.2666H26.7412V33.3359H23.3867V25.7969H24.5244ZM29.958 25.7969V32.2666H32.1748V33.3359H28.8203V25.7969H29.958ZM39.4775 25.7969V32.2666H41.6943V33.3359H38.3398V25.7969H39.4775ZM44.9111 25.7969V33.3359H43.7734V25.7969H44.9111ZM48.1035 25.7969L50.1885 31.0215L52.3027 25.7969H53.5479L50.1641 33.9023L46.8584 25.7969H48.1035ZM59.6504 26.8662H56.6279V28.6777H59.5625V29.7471H56.6279V32.2666H59.6504V33.3359H55.4902V25.7969H59.6504V26.8662ZM70.1074 29.4102H73.2227V29.6592C73.2227 30.2256 73.1559 30.7269 73.0225 31.1631C72.8923 31.5667 72.6725 31.9443 72.3633 32.2959C71.6634 33.0837 70.7731 33.4775 69.6924 33.4775C68.6377 33.4775 67.7344 33.0967 66.9824 32.335C66.2305 31.57 65.8545 30.652 65.8545 29.5811C65.8545 28.4873 66.237 27.5596 67.002 26.7979C67.7669 26.0329 68.6979 25.6504 69.7949 25.6504C70.3841 25.6504 70.9342 25.7708 71.4453 26.0117C71.9336 26.2526 72.4137 26.6432 72.8857 27.1836L72.0752 27.96C71.4567 27.1364 70.7031 26.7246 69.8145 26.7246C69.0169 26.7246 68.348 26.9997 67.8076 27.5498C67.2673 28.0902 66.9971 28.7673 66.9971 29.5811C66.9971 30.4209 67.2982 31.1126 67.9004 31.6562C68.4635 32.1608 69.0739 32.4131 69.7314 32.4131C70.2913 32.4131 70.7943 32.2243 71.2402 31.8467C71.6862 31.4658 71.9352 31.0101 71.9873 30.4795H70.1074V29.4102ZM79.7451 31.5049H76.5176L75.6777 33.3359H74.4521L78.1826 25.3232L81.7812 33.3359H80.5361L79.7451 31.5049ZM79.2812 30.4355L78.1631 27.8721L76.9912 30.4355H79.2812ZM83.4648 33.3359L85.0518 25.2305L87.6396 31.0898L90.3203 25.2305L91.7461 33.3359H90.5791L89.8516 28.7852L87.6201 33.6826L85.4521 28.7803L84.6416 33.3359H83.4648ZM98.5078 26.8662H95.4854V28.6777H98.4199V29.7471H95.4854V32.2666H98.5078V33.3359H94.3477V25.7969H98.5078V26.8662ZM105.265 26.9199L104.342 27.4668C104.169 27.1673 104.005 26.972 103.849 26.8809C103.686 26.7767 103.476 26.7246 103.219 26.7246C102.903 26.7246 102.641 26.8141 102.433 26.9932C102.224 27.1689 102.12 27.3903 102.12 27.6572C102.12 28.0251 102.394 28.3213 102.94 28.5459L103.692 28.8535C104.304 29.1009 104.752 29.4036 105.035 29.7617C105.318 30.1165 105.46 30.5527 105.46 31.0703C105.46 31.7637 105.229 32.3366 104.767 32.7891C104.301 33.2448 103.723 33.4727 103.033 33.4727C102.379 33.4727 101.839 33.279 101.412 32.8916C100.992 32.5042 100.73 31.959 100.626 31.2559L101.778 31.002C101.83 31.4447 101.922 31.7507 102.052 31.9199C102.286 32.2454 102.628 32.4082 103.077 32.4082C103.432 32.4082 103.727 32.2894 103.961 32.0518C104.195 31.8141 104.312 31.513 104.312 31.1484C104.312 31.002 104.291 30.8685 104.249 30.748C104.21 30.6243 104.146 30.512 104.059 30.4111C103.974 30.307 103.863 30.2109 103.727 30.123C103.59 30.0319 103.427 29.9456 103.238 29.8643L102.511 29.5615C101.479 29.1253 100.963 28.4873 100.963 27.6475C100.963 27.0811 101.179 26.6074 101.612 26.2266C102.045 25.8424 102.584 25.6504 103.229 25.6504C104.098 25.6504 104.776 26.0736 105.265 26.9199Z" fill="white"/>
<defs>
<linearGradient id="paint0_linear" x1="123.6" y1="46.5702" x2="240" y2="46.5702" gradientUnits="userSpaceOnUse">
<stop stop-color="#B0936D" stop-opacity="0"/>
<stop offset="0.348958" stop-color="#B0936D"/>
<stop offset="0.65625" stop-color="#B0936D"/>
<stop offset="1" stop-color="#B0936D" stop-opacity="0"/>
</linearGradient>
<linearGradient id="paint1_linear" x1="3.6" y1="15.4296" x2="120" y2="15.4296" gradientUnits="userSpaceOnUse">
<stop stop-color="#B0936D" stop-opacity="0"/>
<stop offset="0.348958" stop-color="#B0936D"/>
<stop offset="0.65625" stop-color="#B0936D"/>
<stop offset="1" stop-color="#B0936D" stop-opacity="0"/>
</linearGradient>
</defs>
</svg>
