<svg width="120" height="60" viewBox="0 0 120 60" fill="none" xmlns="http://www.w3.org/2000/svg">
<path d="M25.377 31.5049H22.1494L21.3096 33.3359H20.084L23.8145 25.3232L27.4131 33.3359H26.168L25.377 31.5049ZM24.9131 30.4355L23.7949 27.8721L22.623 30.4355H24.9131ZM30.498 25.7969V32.2666H32.7148V33.3359H29.3604V25.7969H30.498ZM35.9316 25.7969V32.2666H38.1484V33.3359H34.7939V25.7969H35.9316ZM45.4512 25.7969V32.2666H47.668V33.3359H44.3135V25.7969H45.4512ZM49.0586 29.5322C49.0586 28.471 49.4476 27.5596 50.2256 26.7979C51.0003 26.0361 51.9313 25.6553 53.0186 25.6553C54.0928 25.6553 55.014 26.0394 55.7822 26.8076C56.5537 27.5758 56.9395 28.4987 56.9395 29.5762C56.9395 30.6602 56.5521 31.5798 55.7773 32.335C54.9993 33.0934 54.0602 33.4727 52.96 33.4727C51.9867 33.4727 51.1126 33.1357 50.3379 32.4619C49.485 31.7165 49.0586 30.7399 49.0586 29.5322ZM50.2061 29.5469C50.2061 30.3802 50.486 31.0654 51.0459 31.6025C51.6025 32.1396 52.2454 32.4082 52.9746 32.4082C53.7656 32.4082 54.4329 32.1348 54.9766 31.5879C55.5202 31.0345 55.792 30.3607 55.792 29.5664C55.792 28.7624 55.5234 28.0885 54.9863 27.5449C54.4525 26.998 53.7917 26.7246 53.0039 26.7246C52.2194 26.7246 51.557 26.998 51.0166 27.5449C50.4762 28.0853 50.2061 28.7526 50.2061 29.5469ZM61.1768 26.8662V33.3359H60.0391V26.8662H58.3057V25.7969H62.9053V26.8662H61.1768ZM67.001 26.8662V33.3359H65.8633V26.8662H64.1299V25.7969H68.7295V26.8662H67.001ZM74.9053 26.8662H71.8828V28.6777H74.8174V29.7471H71.8828V32.2666H74.9053V33.3359H70.7451V25.7969H74.9053V26.8662ZM79.9531 30.123L82.2871 33.3359H80.8955L78.7422 30.25H78.5371V33.3359H77.3994V25.7969H78.7324C79.7285 25.7969 80.4479 25.984 80.8906 26.3584C81.3789 26.7751 81.623 27.3252 81.623 28.0088C81.623 28.5426 81.4701 29.0016 81.1641 29.3857C80.8581 29.7699 80.4544 30.0156 79.9531 30.123ZM78.5371 29.2588H78.8984C79.9759 29.2588 80.5146 28.847 80.5146 28.0234C80.5146 27.252 79.9906 26.8662 78.9424 26.8662H78.5371V29.2588ZM85.5625 25.7969V33.3359H84.4248V25.7969H85.5625ZM92.5342 26.8662H89.5117V28.6777H92.4463V29.7471H89.5117V32.2666H92.5342V33.3359H88.374V25.7969H92.5342V26.8662ZM99.291 26.9199L98.3682 27.4668C98.1956 27.1673 98.0312 26.972 97.875 26.8809C97.7122 26.7767 97.5023 26.7246 97.2451 26.7246C96.9294 26.7246 96.6673 26.8141 96.459 26.9932C96.2507 27.1689 96.1465 27.3903 96.1465 27.6572C96.1465 28.0251 96.4199 28.3213 96.9668 28.5459L97.7188 28.8535C98.3307 29.1009 98.7783 29.4036 99.0615 29.7617C99.3447 30.1165 99.4863 30.5527 99.4863 31.0703C99.4863 31.7637 99.2552 32.3366 98.793 32.7891C98.3275 33.2448 97.7497 33.4727 97.0596 33.4727C96.4053 33.4727 95.8649 33.279 95.4385 32.8916C95.0186 32.5042 94.7565 31.959 94.6523 31.2559L95.8047 31.002C95.8568 31.4447 95.9479 31.7507 96.0781 31.9199C96.3125 32.2454 96.6543 32.4082 97.1035 32.4082C97.4583 32.4082 97.7529 32.2894 97.9873 32.0518C98.2217 31.8141 98.3389 31.513 98.3389 31.1484C98.3389 31.002 98.3177 30.8685 98.2754 30.748C98.2363 30.6243 98.1729 30.512 98.085 30.4111C98.0003 30.307 97.8896 30.2109 97.7529 30.123C97.6162 30.0319 97.4535 29.9456 97.2646 29.8643L96.5371 29.5615C95.5052 29.1253 94.9893 28.4873 94.9893 27.6475C94.9893 27.0811 95.2057 26.6074 95.6387 26.2266C96.0716 25.8424 96.6104 25.6504 97.2549 25.6504C98.124 25.6504 98.8027 26.0736 99.291 26.9199Z" fill="white"/>
<rect x="120" y="45.5703" width="120" height="1" transform="rotate(-180 120 45.5703)" fill="url(#paint0_linear)"/>
<path d="M67 45.0867L60.7214 51.3653L54.4428 45.0867" stroke="#B0936D"/>
<path d="M74 45L60 59L46 45" stroke="#B0936D"/>
<rect y="14.4297" width="120" height="1" fill="url(#paint1_linear)"/>
<path d="M54 14.9133L60.2786 8.63473L66.5572 14.9133" stroke="#B0936D"/>
<path d="M46 15L60 1L74 15" stroke="#B0936D"/>
<defs>
<linearGradient id="paint0_linear" x1="123.6" y1="46.5702" x2="240" y2="46.5702" gradientUnits="userSpaceOnUse">
<stop stop-color="#B0936D" stop-opacity="0"/>
<stop offset="0.348958" stop-color="#B0936D"/>
<stop offset="0.65625" stop-color="#B0936D"/>
<stop offset="1" stop-color="#B0936D" stop-opacity="0"/>
</linearGradient>
<linearGradient id="paint1_linear" x1="3.6" y1="15.4296" x2="120" y2="15.4296" gradientUnits="userSpaceOnUse">
<stop stop-color="#B0936D" stop-opacity="0"/>
<stop offset="0.348958" stop-color="#B0936D"/>
<stop offset="0.65625" stop-color="#B0936D"/>
<stop offset="1" stop-color="#B0936D" stop-opacity="0"/>
</linearGradient>
</defs>
</svg>
