<?xml version="1.0" encoding="UTF-8"?>
<svg width="160px" height="55px" viewBox="0 0 160 55" version="1.1" xmlns="http://www.w3.org/2000/svg" xmlns:xlink="http://www.w3.org/1999/xlink">
    <title>Group 183</title>
    <g id="Symbol" stroke="none" stroke-width="1" fill="none" fill-rule="evenodd">
        <g id="Group-183" fill="#FFFFFF">
            <path d="M21.6402131,35.7982373 L16.0340145,21.4009492 L18.7230218,21.4009492 L18.7230218,21.5377046 L18.504523,21.7631768 C18.4673317,21.8034673 18.4378886,21.8518935 18.4189056,21.9103923 C18.4006973,21.9696659 18.3906247,22.0382373 18.3906247,22.1176562 C18.3906247,22.1823535 18.395661,22.2447264 18.4045714,22.3028378 C18.4150315,22.3613366 18.4289782,22.4206102 18.4471864,22.4802712 L21.7913027,31.0799806 L26.2860242,21.1553317 L30.798954,30.9149443 L34.0113511,22.4899564 C34.0295593,22.4306828 34.0446683,22.370247 34.0535787,22.3078741 C34.0621017,22.2466634 34.0675254,22.1823535 34.0675254,22.1176562 C34.0675254,22.0382373 34.058615,21.9696659 34.0392446,21.9103923 C34.0202615,21.8518935 33.9919806,21.8034673 33.9536271,21.7631768 L33.745201,21.5377046 L33.745201,21.4009492 L36.3861695,21.4009492 L30.9035545,35.7982373 L26.2488329,25.3532978 L21.6402131,35.7982373 Z" id="Fill-1"></path>
            <path d="M27.0450363,0.823399516 C27.0450363,1.27821792 26.6874576,1.64664407 26.246586,1.64664407 C25.8068765,1.64664407 25.4481356,1.27821792 25.4481356,0.823399516 C25.4481356,0.368581114 25.8068765,0.00015496368 26.246586,0.00015496368 C26.6874576,0.00015496368 27.0450363,0.368581114 27.0450363,0.823399516" id="Fill-3"></path>
            <path d="M36.1211429,4.43587409 C36.1211429,4.89069249 35.7639516,5.25911864 35.3226925,5.25911864 C34.8822082,5.25911864 34.5246295,4.89069249 34.5246295,4.43587409 C34.5246295,3.98066828 34.8822082,3.61262954 35.3226925,3.61262954 C35.7639516,3.61262954 36.1211429,3.98066828 36.1211429,4.43587409" id="Fill-5"></path>
            <path d="M45.0028087,8.53280387 C45.0028087,8.98800969 44.6456174,9.35604843 44.2043584,9.35604843 C43.7638741,9.35604843 43.4062954,8.98800969 43.4062954,8.53280387 C43.4062954,8.07798547 43.7638741,7.70955932 44.2043584,7.70955932 C44.6456174,7.70955932 45.0028087,8.07798547 45.0028087,8.53280387" id="Fill-7"></path>
            <path d="M48.9461308,17.7121937 C48.9461308,18.1673995 48.5889395,18.5354383 48.1476804,18.5354383 C47.7071961,18.5354383 47.3496174,18.1673995 47.3496174,17.7121937 C47.3496174,17.2573753 47.7071961,16.8889492 48.1476804,16.8889492 C48.5889395,16.8889492 48.9461308,17.2573753 48.9461308,17.7121937" id="Fill-9"></path>
            <path d="M52.4199516,27.0913705 C52.4199516,27.5461889 52.0623729,27.914615 51.6215012,27.914615 C51.1810169,27.914615 50.8234383,27.5461889 50.8234383,27.0913705 C50.8234383,26.6365521 51.1810169,26.2681259 51.6215012,26.2681259 C52.0623729,26.2681259 52.4199516,26.6365521 52.4199516,27.0913705" id="Fill-11"></path>
            <path d="M48.9200194,36.4605133 C48.9200194,36.9153317 48.5628281,37.2837579 48.121569,37.2837579 C47.6810847,37.2837579 47.3235061,36.9153317 47.3235061,36.4605133 C47.3235061,36.0056949 47.6810847,35.6372688 48.121569,35.6372688 C48.5628281,35.6372688 48.9200194,36.0056949 48.9200194,36.4605133" id="Fill-13"></path>
            <path d="M44.9513608,45.6285521 C44.9513608,46.0837579 44.5937821,46.4517966 44.1529104,46.4517966 C43.7120387,46.4517966 43.3548475,46.0837579 43.3548475,45.6285521 C43.3548475,45.1737337 43.7120387,44.8053075 44.1529104,44.8053075 C44.5937821,44.8053075 44.9513608,45.1737337 44.9513608,45.6285521" id="Fill-15"></path>
            <path d="M36.0583438,49.6986344 C36.0583438,50.1538402 35.7007651,50.5218789 35.2598935,50.5218789 C34.8194092,50.5218789 34.4618305,50.1538402 34.4618305,49.6986344 C34.4618305,49.243816 34.8194092,48.8753898 35.2598935,48.8753898 C35.7007651,48.8753898 36.0583438,49.243816 36.0583438,49.6986344" id="Fill-17"></path>
            <path d="M42.3299177,11.2847651 C42.3299177,11.7399709 41.972339,12.1080097 41.5314673,12.1080097 C41.0909831,12.1080097 40.7334044,11.7399709 40.7334044,11.2847651 C40.7334044,10.8299467 41.0909831,10.4615206 41.5314673,10.4615206 C41.972339,10.4615206 42.3299177,10.8299467 42.3299177,11.2847651" id="Fill-19"></path>
            <path d="M45.1991477,17.5442131 C45.1991477,17.9994189 44.841569,18.367845 44.4006973,18.367845 C43.9598257,18.367845 43.6034092,17.9994189 43.6034092,17.5442131 C43.6034092,17.0893947 43.9598257,16.7209685 44.4006973,16.7209685 C44.841569,16.7209685 45.1991477,17.0893947 45.1991477,17.5442131" id="Fill-21"></path>
            <path d="M46.4037579,20.5583729 C46.4037579,21.0131913 46.0465666,21.3816174 45.6053075,21.3816174 C45.1648232,21.3816174 44.8072446,21.0131913 44.8072446,20.5583729 C44.8072446,20.1035545 45.1648232,19.7351283 45.6053075,19.7351283 C46.0465666,19.7351283 46.4037579,20.1035545 46.4037579,20.5583729" id="Fill-23"></path>
            <path d="M48.6446102,27.086063 C48.6446102,27.5412688 48.2874189,27.9093075 47.8461598,27.9093075 C47.4056755,27.9093075 47.0492591,27.5412688 47.0492591,27.086063 C47.0492591,26.6312446 47.4056755,26.2628184 47.8461598,26.2628184 C48.2874189,26.2628184 48.6446102,26.6312446 48.6446102,27.086063" id="Fill-25"></path>
            <path d="M46.3855884,33.606586 C46.3855884,34.0617918 46.0280097,34.4298305 45.587138,34.4298305 C45.1462663,34.4298305 44.7890751,34.0617918 44.7890751,33.606586 C44.7890751,33.1517676 45.1462663,32.7833414 45.587138,32.7833414 C46.0280097,32.7833414 46.3855884,33.1517676 46.3855884,33.606586" id="Fill-27"></path>
            <path d="M45.1723002,36.6173366 C45.1723002,37.072155 44.815109,37.4405811 44.3738499,37.4405811 C43.9333656,37.4405811 43.5757869,37.072155 43.5757869,36.6173366 C43.5757869,36.1625182 43.9333656,35.794092 44.3738499,35.794092 C44.815109,35.794092 45.1723002,36.1625182 45.1723002,36.6173366" id="Fill-29"></path>
            <path d="M42.2852881,42.8686489 C42.2852881,43.3238547 41.9280969,43.6922809 41.4868378,43.6922809 C41.0463535,43.6922809 40.6887748,43.3238547 40.6887748,42.8686489 C40.6887748,42.4138305 41.0463535,42.0454044 41.4868378,42.0454044 C41.9280969,42.0454044 42.2852881,42.4138305 42.2852881,42.8686489" id="Fill-31"></path>
            <path d="M36.2210169,45.8307797 C36.2210169,46.2855981 35.8638257,46.6540242 35.4225666,46.6540242 C34.9816949,46.6540242 34.6245036,46.2855981 34.6245036,45.8307797 C34.6245036,45.3755738 34.9816949,45.0075351 35.4225666,45.0075351 C35.8638257,45.0075351 36.2210169,45.3755738 36.2210169,45.8307797" id="Fill-33"></path>
            <path d="M33.3010751,47.0739758 C33.3010751,47.5291816 32.9434964,47.8972203 32.5026247,47.8972203 C32.061753,47.8972203 31.7045617,47.5291816 31.7045617,47.0739758 C31.7045617,46.6191574 32.061753,46.2507312 32.5026247,46.2507312 C32.9434964,46.2507312 33.3010751,46.6191574 33.3010751,47.0739758" id="Fill-35"></path>
            <path d="M33.356707,7.05220339 C33.356707,7.50702179 32.9991283,7.87544794 32.5582567,7.87544794 C32.117385,7.87544794 31.7601937,7.50702179 31.7601937,7.05220339 C31.7601937,6.59699758 32.117385,6.22895884 32.5582567,6.22895884 C32.9991283,6.22895884 33.356707,6.59699758 33.356707,7.05220339" id="Fill-37"></path>
            <path d="M36.2736271,8.30427119 C36.2736271,8.75908959 35.9160484,9.12751574 35.4751768,9.12751574 C35.0343051,9.12751574 34.6771138,8.75908959 34.6771138,8.30427119 C34.6771138,7.84906538 35.0343051,7.48102663 35.4751768,7.48102663 C35.9160484,7.48102663 36.2736271,7.84906538 36.2736271,8.30427119" id="Fill-39"></path>
            <path d="M17.7960291,8.27703632 C17.7960291,8.73224213 17.4384504,9.10028087 16.9975787,9.10028087 C16.556707,9.10028087 16.1991283,8.73224213 16.1991283,8.27703632 C16.1991283,7.82221792 16.556707,7.45379177 16.9975787,7.45379177 C17.4384504,7.45379177 17.7960291,7.82221792 17.7960291,8.27703632" id="Fill-41"></path>
            <path d="M11.7317579,11.2389734 C11.7317579,11.6941792 11.3741792,12.0626053 10.9329201,12.0626053 C10.4924358,12.0626053 10.1348571,11.6941792 10.1348571,11.2389734 C10.1348571,10.784155 10.4924358,10.4157288 10.9329201,10.4157288 C11.3741792,10.4157288 11.7317579,10.784155 11.7317579,11.2389734" id="Fill-43"></path>
            <path d="M9.06529782,8.47926392 C9.06529782,8.93408232 8.70771913,9.30250847 8.26684746,9.30250847 C7.82597579,9.30250847 7.4687845,8.93408232 7.4687845,8.47926392 C7.4687845,8.02405811 7.82597579,7.65601937 8.26684746,7.65601937 C8.70771913,7.65601937 9.06529782,8.02405811 9.06529782,8.47926392" id="Fill-45"></path>
            <path d="M5.09663923,17.6471477 C5.09663923,18.1023535 4.73944794,18.4707797 4.29818886,18.4707797 C3.8577046,18.4707797 3.50012591,18.1023535 3.50012591,17.6471477 C3.50012591,17.1923293 3.8577046,16.8239031 4.29818886,16.8239031 C4.73944794,16.8239031 5.09663923,17.1923293 5.09663923,17.6471477" id="Fill-47"></path>
            <path d="M8.84435835,17.4903245 C8.84435835,17.9455303 8.48716707,18.313569 8.04590799,18.313569 C7.60542373,18.313569 7.24784504,17.9455303 7.24784504,17.4903245 C7.24784504,17.0355061 7.60542373,16.6670799 8.04590799,16.6670799 C8.48716707,16.6670799 8.84435835,17.0355061 8.84435835,17.4903245" id="Fill-49"></path>
            <path d="M7.63145763,20.5008814 C7.63145763,20.9560872 7.27387893,21.3245133 6.83300726,21.3245133 C6.39213559,21.3245133 6.03494431,20.9560872 6.03494431,20.5008814 C6.03494431,20.046063 6.39213559,19.6776368 6.83300726,19.6776368 C7.27387893,19.6776368 7.63145763,20.046063 7.63145763,20.5008814" id="Fill-51"></path>
            <path d="M5.37204843,27.021753 C5.37204843,27.4765714 5.01446973,27.8449976 4.57359806,27.8449976 C4.1331138,27.8449976 3.77553511,27.4765714 3.77553511,27.021753 C3.77553511,26.5665472 4.1331138,26.1981211 4.57359806,26.1981211 C5.01446973,26.1981211 5.37204843,26.5665472 5.37204843,27.021753" id="Fill-53"></path>
            <path d="M1.59670702,27.0159031 C1.59670702,27.4707215 1.23912833,27.8391477 0.798256659,27.8391477 C0.357384988,27.8391477 0.0001937046,27.4707215 0.0001937046,27.0159031 C0.0001937046,26.5606973 0.357384988,26.1926586 0.798256659,26.1926586 C1.23912833,26.1926586 1.59670702,26.5606973 1.59670702,27.0159031" id="Fill-55"></path>
            <path d="M5.07052785,36.3954286 C5.07052785,36.8506344 4.71294915,37.2186731 4.27207748,37.2186731 C3.83120581,37.2186731 3.47401453,36.8506344 3.47401453,36.3954286 C3.47401453,35.9406102 3.83120581,35.572184 4.27207748,35.572184 C4.71294915,35.572184 5.07052785,35.9406102 5.07052785,36.3954286" id="Fill-57"></path>
            <path d="M9.01346247,45.5750121 C9.01346247,46.0298305 8.65627119,46.3982567 8.21501211,46.3982567 C7.77452785,46.3982567 7.41694915,46.0298305 7.41694915,45.5750121 C7.41694915,45.1198063 7.77452785,44.7517676 8.21501211,44.7517676 C8.65627119,44.7517676 9.01346247,45.1198063 9.01346247,45.5750121" id="Fill-59"></path>
            <path d="M17.8955157,49.6717482 C17.8955157,50.126954 17.537937,50.4949927 17.0970654,50.4949927 C16.6561937,50.4949927 16.2990024,50.126954 16.2990024,49.6717482 C16.2990024,49.2169298 16.6561937,48.8485036 17.0970654,48.8485036 C17.537937,48.8485036 17.8955157,49.2169298 17.8955157,49.6717482" id="Fill-61"></path>
            <path d="M26.9720097,53.2848039 C26.9720097,53.7396223 26.614431,54.1080484 26.1735593,54.1080484 C25.7326877,54.1080484 25.3754964,53.7396223 25.3754964,53.2848039 C25.3754964,52.8299855 25.7326877,52.4615593 26.1735593,52.4615593 C26.614431,52.4615593 26.9720097,52.8299855 26.9720097,53.2848039" id="Fill-63"></path>
            <path d="M7.61328814,33.5490557 C7.61328814,34.0038741 7.25570944,34.3723002 6.81483777,34.3723002 C6.3739661,34.3723002 6.01677482,34.0038741 6.01677482,33.5490557 C6.01677482,33.0938499 6.3739661,32.7254237 6.81483777,32.7254237 C7.25570944,32.7254237 7.61328814,33.0938499 7.61328814,33.5490557" id="Fill-65"></path>
            <path d="M8.81789831,36.5632155 C8.81789831,37.0184213 8.46031961,37.38646 8.01906053,37.38646 C7.57857627,37.38646 7.22138499,37.0184213 7.22138499,36.5632155 C7.22138499,36.1083971 7.57857627,35.7399709 8.01906053,35.7399709 C8.46031961,35.7399709 8.81789831,36.1083971 8.81789831,36.5632155" id="Fill-67"></path>
            <path d="M11.6871283,42.8226634 C11.6871283,43.2774818 11.3295496,43.645908 10.888678,43.645908 C10.4481937,43.645908 10.090615,43.2774818 10.090615,42.8226634 C10.090615,42.3674576 10.4481937,41.9994189 10.888678,41.9994189 C11.3295496,41.9994189 11.6871283,42.3674576 11.6871283,42.8226634" id="Fill-69"></path>
            <path d="M17.7434189,45.8033511 C17.7434189,46.2581695 17.3862276,46.6265956 16.9449685,46.6265956 C16.5044843,46.6265956 16.1469056,46.2581695 16.1469056,45.8033511 C16.1469056,45.3481453 16.5044843,44.9797191 16.9449685,44.9797191 C17.3862276,44.9797191 17.7434189,45.3481453 17.7434189,45.8033511" id="Fill-71"></path>
            <path d="M20.6599516,47.0556126 C20.6599516,47.510431 20.3027603,47.8788571 19.8615012,47.8788571 C19.4210169,47.8788571 19.0634383,47.510431 19.0634383,47.0556126 C19.0634383,46.6004068 19.4210169,46.232368 19.8615012,46.232368 C20.3027603,46.232368 20.6599516,46.6004068 20.6599516,47.0556126" id="Fill-73"></path>
            <path d="M26.9769298,49.3874286 C26.9769298,49.8426344 26.6197385,50.2110605 26.1784794,50.2110605 C25.7379952,50.2110605 25.3804165,49.8426344 25.3804165,49.3874286 C25.3804165,48.9326102 25.7379952,48.564184 26.1784794,48.564184 C26.6197385,48.564184 26.9769298,48.9326102 26.9769298,49.3874286" id="Fill-75"></path>
            <path d="M20.7159709,7.03349153 C20.7159709,7.48869734 20.3583923,7.85712349 19.9175206,7.85712349 C19.4766489,7.85712349 19.1194576,7.48869734 19.1194576,7.03349153 C19.1194576,6.57867312 19.4766489,6.21024697 19.9175206,6.21024697 C20.3583923,6.21024697 20.7159709,6.57867312 20.7159709,7.03349153" id="Fill-77"></path>
            <path d="M17.9587022,4.4091816 C17.9587022,4.864 17.6011235,5.23242615 17.1598644,5.23242615 C16.7193801,5.23242615 16.3618015,4.864 16.3618015,4.4091816 C16.3618015,3.9543632 16.7193801,3.58593705 17.1598644,3.58593705 C17.6011235,3.58593705 17.9587022,3.9543632 17.9587022,4.4091816" id="Fill-79"></path>
            <path d="M27.0393414,4.72058111 C27.0393414,5.17578692 26.6817627,5.54421308 26.240891,5.54421308 C25.8000194,5.54421308 25.4428281,5.17578692 25.4428281,4.72058111 C25.4428281,4.26576271 25.8000194,3.89733656 26.240891,3.89733656 C26.6817627,3.89733656 27.0393414,4.26576271 27.0393414,4.72058111" id="Fill-81"></path>
            <path d="M27.2474576,8.05857627 C27.2474576,8.63542857 26.7941889,9.10264407 26.236707,9.10264407 C25.678063,9.10264407 25.2247942,8.63542857 25.2247942,8.05857627 C25.2247942,7.48172397 25.678063,7.01489588 26.236707,7.01489588 C26.7941889,7.01489588 27.2474576,7.48172397 27.2474576,8.05857627" id="Fill-83"></path>
            <path d="M31.0413172,9.40807748 C31.0413172,9.98492978 30.5892107,10.4517579 30.0305666,10.4517579 C29.4719225,10.4517579 29.0186538,9.98492978 29.0186538,9.40807748 C29.0186538,8.83122518 29.4719225,8.36439709 30.0305666,8.36439709 C30.5892107,8.36439709 31.0413172,8.83122518 31.0413172,9.40807748" id="Fill-85"></path>
            <path d="M36.6504213,11.8159419 C36.6504213,12.3927942 36.1987022,12.8596223 35.6400581,12.8596223 C35.0810266,12.8596223 34.6281453,12.3927942 34.6281453,11.8159419 C34.6281453,11.2390896 35.0810266,10.7718741 35.6400581,10.7718741 C36.1987022,10.7718741 36.6504213,11.2390896 36.6504213,11.8159419" id="Fill-87"></path>
            <path d="M40.2525133,13.6411816 C40.2525133,14.2180339 39.799632,14.684862 39.2417627,14.684862 C38.6831186,14.684862 38.2298499,14.2180339 38.2298499,13.6411816 C38.2298499,13.0643293 38.6831186,12.5971138 39.2417627,12.5971138 C39.799632,12.5971138 40.2525133,13.0643293 40.2525133,13.6411816" id="Fill-89"></path>
            <path d="M42.0102276,17.3641453 C42.0102276,17.9409976 41.5585085,18.4082131 40.9998644,18.4082131 C40.4408329,18.4082131 39.9879516,17.9409976 39.9879516,17.3641453 C39.9879516,16.787293 40.4408329,16.3204649 40.9998644,16.3204649 C41.5585085,16.3204649 42.0102276,16.787293 42.0102276,17.3641453" id="Fill-91"></path>
            <path d="M44.327477,23.1612978 C44.327477,23.7381501 43.8745956,24.2053656 43.3171138,24.2053656 C42.7580823,24.2053656 42.305201,23.7381501 42.305201,23.1612978 C42.305201,22.5844455 42.7580823,22.1176174 43.3171138,22.1176174 C43.8745956,22.1176174 44.327477,22.5844455 44.327477,23.1612978" id="Fill-93"></path>
            <path d="M45.6240194,27.0813366 C45.6240194,27.6581889 45.1707506,28.1250169 44.6132688,28.1250169 C44.0542373,28.1250169 43.6013559,27.6581889 43.6013559,27.0813366 C43.6013559,26.5044843 44.0542373,26.0372688 44.6132688,26.0372688 C45.1707506,26.0372688 45.6240194,26.5044843 45.6240194,27.0813366" id="Fill-95"></path>
            <path d="M44.3161646,30.9970363 C44.3161646,31.5738886 43.8640581,32.0407167 43.305414,32.0407167 C42.7463826,32.0407167 42.2935012,31.5738886 42.2935012,30.9970363 C42.2935012,30.420184 42.7463826,29.9529685 43.305414,29.9529685 C43.8640581,29.9529685 44.3161646,30.420184 44.3161646,30.9970363" id="Fill-97"></path>
            <path d="M41.9833801,36.7871768 C41.9833801,37.3640291 41.5304988,37.8308571 40.9730169,37.8308571 C40.4139855,37.8308571 39.9611041,37.3640291 39.9611041,36.7871768 C39.9611041,36.2103245 40.4139855,35.743109 40.9730169,35.743109 C41.5304988,35.743109 41.9833801,36.2103245 41.9833801,36.7871768" id="Fill-99"></path>
            <path d="M40.2158257,40.5050266 C40.2158257,41.0818789 39.7625569,41.5490944 39.2050751,41.5490944 C38.6460436,41.5490944 38.1931622,41.0818789 38.1931622,40.5050266 C38.1931622,39.9281743 38.6460436,39.4613462 39.2050751,39.4613462 C39.7625569,39.4613462 40.2158257,39.9281743 40.2158257,40.5050266" id="Fill-101"></path>
            <path d="M36.6080775,42.3196901 C36.6080775,42.8965424 36.1551961,43.3637579 35.5977143,43.3637579 C35.0386828,43.3637579 34.5858015,42.8965424 34.5858015,42.3196901 C34.5858015,41.7428378 35.0386828,41.2760097 35.5977143,41.2760097 C36.1551961,41.2760097 36.6080775,41.7428378 36.6080775,42.3196901" id="Fill-103"></path>
            <path d="M30.992155,44.7112833 C30.992155,45.2881356 30.5392736,45.7549637 29.9817918,45.7549637 C29.4227603,45.7549637 28.9694915,45.2881356 28.9694915,44.7112833 C28.9694915,44.134431 29.4227603,43.6672155 29.9817918,43.6672155 C30.5392736,43.6672155 30.992155,44.134431 30.992155,44.7112833" id="Fill-105"></path>
            <path d="M27.1948475,46.048891 C27.1948475,46.6257433 26.7427409,47.0929588 26.1840969,47.0929588 C25.6254528,47.0929588 25.172184,46.6257433 25.172184,46.048891 C25.172184,45.4720387 25.6254528,45.0052107 26.1840969,45.0052107 C26.7427409,45.0052107 27.1948475,45.4720387 27.1948475,46.048891" id="Fill-107"></path>
            <path d="M23.4009492,44.6993898 C23.4009492,45.2762421 22.9480678,45.7434576 22.390586,45.7434576 C21.8315545,45.7434576 21.3786731,45.2762421 21.3786731,44.6993898 C21.3786731,44.1225375 21.8315545,43.6557094 22.390586,43.6557094 C22.9480678,43.6557094 23.4009492,44.1225375 23.4009492,44.6993898" id="Fill-109"></path>
            <path d="M17.791845,42.2918741 C17.791845,42.8687264 17.3385763,43.3355545 16.7810944,43.3355545 C16.222063,43.3355545 15.7691816,42.8687264 15.7691816,42.2918741 C15.7691816,41.7150218 16.222063,41.2478063 16.7810944,41.2478063 C17.3385763,41.2478063 17.791845,41.7150218 17.791845,42.2918741" id="Fill-111"></path>
            <path d="M14.1901404,40.466247 C14.1901404,41.0430993 13.7380339,41.5103148 13.1793898,41.5103148 C12.6203584,41.5103148 12.167477,41.0430993 12.167477,40.466247 C12.167477,39.8905569 12.6203584,39.4225666 13.1793898,39.4225666 C13.7380339,39.4225666 14.1901404,39.8905569 14.1901404,40.466247" id="Fill-113"></path>
            <path d="M12.4320775,36.743322 C12.4320775,37.3201743 11.9791961,37.7873898 11.4213269,37.7873898 C10.8626828,37.7873898 10.409414,37.3201743 10.409414,36.743322 C10.409414,36.1664697 10.8626828,35.6996416 11.4213269,35.6996416 C11.9791961,35.6996416 12.4320775,36.1664697 12.4320775,36.743322" id="Fill-115"></path>
            <path d="M10.1151768,30.9461695 C10.1151768,31.5230218 9.66307022,31.9902373 9.10442615,31.9902373 C8.54578208,31.9902373 8.09251332,31.5230218 8.09251332,30.9461695 C8.09251332,30.3693172 8.54578208,29.9021017 9.10442615,29.9021017 C9.66307022,29.9021017 10.1151768,30.3693172 10.1151768,30.9461695" id="Fill-117"></path>
            <path d="M8.81902179,27.0264794 C8.81902179,27.6033317 8.36575303,28.0701598 7.80827119,28.0701598 C7.24923971,28.0701598 6.79635835,27.6033317 6.79635835,27.0264794 C6.79635835,26.4496271 7.24923971,25.9824116 7.80827119,25.9824116 C8.36575303,25.9824116 8.81902179,26.4496271 8.81902179,27.0264794" id="Fill-119"></path>
            <path d="M23.4501501,9.39633898 C23.4501501,9.97319128 22.998431,10.4404068 22.4397869,10.4404068 C21.8807554,10.4404068 21.4278741,9.97319128 21.4278741,9.39633898 C21.4278741,8.81948668 21.8807554,8.3526586 22.4397869,8.3526586 C22.998431,8.3526586 23.4501501,8.81948668 23.4501501,9.39633898" id="Fill-121"></path>
            <path d="M17.834615,11.7879322 C17.834615,12.3636223 17.3813462,12.832 16.8238644,12.832 C16.2648329,12.832 15.8119516,12.3636223 15.8119516,11.7879322 C15.8119516,11.2110799 16.2648329,10.7442518 16.8238644,10.7442518 C17.3813462,10.7442518 17.834615,11.2110799 17.834615,11.7879322" id="Fill-123"></path>
            <path d="M14.2272155,13.6024019 C14.2272155,14.1792542 13.7739467,14.6464697 13.2164649,14.6464697 C12.6578208,14.6464697 12.2045521,14.1792542 12.2045521,13.6024019 C12.2045521,13.0255496 12.6578208,12.5587215 13.2164649,12.5587215 C13.7739467,12.5587215 14.2272155,13.0255496 14.2272155,13.6024019" id="Fill-125"></path>
            <path d="M12.4589249,17.3206392 C12.4589249,17.8974915 12.0060436,18.364707 11.4485617,18.364707 C10.8895303,18.364707 10.4366489,17.8974915 10.4366489,17.3206392 C10.4366489,16.7437869 10.8895303,16.2765714 11.4485617,16.2765714 C12.0060436,16.2765714 12.4589249,16.7437869 12.4589249,17.3206392" id="Fill-127"></path>
            <path d="M10.1265278,23.110586 C10.1265278,23.6874383 9.67325908,24.1542663 9.11577724,24.1542663 C8.55713317,24.1542663 8.10386441,23.6874383 8.10386441,23.110586 C8.10386441,22.5337337 8.55713317,22.0665182 9.11577724,22.0665182 C9.67325908,22.0665182 10.1265278,22.5337337 10.1265278,23.110586" id="Fill-129"></path>
            <path d="M27.8285714,11.6918547 C27.8285714,12.6018789 27.113414,13.3398935 26.2316707,13.3398935 C25.3507022,13.3398935 24.6363196,12.6018789 24.6363196,11.6918547 C24.6363196,10.7818305 25.3507022,10.043816 26.2316707,10.043816 C27.113414,10.043816 27.8285714,10.7818305 27.8285714,11.6918547" id="Fill-131"></path>
            <path d="M17.2985182,16.1758063 C17.2985182,17.0858305 16.5837482,17.823845 15.7020048,17.823845 C14.8206489,17.823845 14.1062663,17.0858305 14.1062663,16.1758063 C14.1062663,15.2657821 14.8206489,14.528155 15.7020048,14.528155 C16.5837482,14.528155 17.2985182,15.2657821 17.2985182,16.1758063" id="Fill-133"></path>
            <path d="M12.9242809,27.0313995 C12.9242809,27.9414237 12.2095109,28.6794383 11.3277676,28.6794383 C10.446799,28.6794383 9.73202906,27.9414237 9.73202906,27.0313995 C9.73202906,26.1213753 10.446799,25.3837482 11.3277676,25.3837482 C12.2095109,25.3837482 12.9242809,26.1213753 12.9242809,27.0313995" id="Fill-135"></path>
            <path d="M38.3453366,16.2074189 C38.3453366,17.1174431 37.6305666,17.8554576 36.7488232,17.8554576 C35.8678547,17.8554576 35.1534722,17.1174431 35.1534722,16.2074189 C35.1534722,15.2973947 35.8678547,14.5593801 36.7488232,14.5593801 C37.6305666,14.5593801 38.3453366,15.2973947 38.3453366,16.2074189" id="Fill-137"></path>
            <path d="M42.6889685,27.0760291 C42.6889685,27.9860533 41.9738111,28.7236804 41.0920678,28.7236804 C40.2110993,28.7236804 39.4967167,27.9860533 39.4967167,27.0760291 C39.4967167,26.1660048 40.2110993,25.4279903 41.0920678,25.4279903 C41.9738111,25.4279903 42.6889685,26.1660048 42.6889685,27.0760291" id="Fill-139"></path>
            <path d="M38.3146925,37.9316223 C38.3146925,38.8416465 37.5999225,39.579661 36.7181792,39.579661 C35.8368232,39.579661 35.1228281,38.8416465 35.1228281,37.9316223 C35.1228281,37.0215981 35.8368232,36.2839709 36.7181792,36.2839709 C37.5999225,36.2839709 38.3146925,37.0215981 38.3146925,37.9316223" id="Fill-141"></path>
            <path d="M27.7850654,42.4154189 C27.7850654,43.3254431 27.069908,44.0630702 26.1893269,44.0630702 C25.3071961,44.0630702 24.5928136,43.3254431 24.5928136,42.4154189 C24.5928136,41.5053947 25.3071961,40.7673801 26.1893269,40.7673801 C27.069908,40.7673801 27.7850654,41.5053947 27.7850654,42.4154189" id="Fill-143"></path>
            <path d="M17.2678741,37.9006295 C17.2678741,38.8106538 16.5531041,39.5482809 15.6713608,39.5482809 C14.7903923,39.5482809 14.0760097,38.8106538 14.0760097,37.9006295 C14.0760097,36.9906053 14.7903923,36.2525908 15.6713608,36.2525908 C16.5531041,36.2525908 17.2678741,36.9906053 17.2678741,37.9006295" id="Fill-145"></path>
            <path d="M64.8072058,28.0528814 C65.0640581,28.0528814 65.2205714,28.0300242 65.2763584,27.9815981 C65.3305956,27.935109 65.3588765,27.8533656 65.3588765,27.7402421 C65.3588765,27.6077482 65.3305956,27.4601453 65.2763584,27.2993705 C65.2205714,27.137046 65.1740823,26.9909927 65.1380533,26.8584988 L60.7258499,14.7333656 C60.6162131,14.4114286 60.4957288,14.1689104 60.3678838,14.0077482 C60.2384891,13.8458111 60.0459467,13.76523 59.788707,13.76523 L59.788707,13.4231477 L63.400523,13.4231477 L63.400523,13.76523 C63.1614915,13.76523 63.0003293,13.8039709 62.9178111,13.8799031 C62.8349056,13.9546731 62.7942276,14.0588862 62.7942276,14.1925424 C62.7942276,14.3060533 62.8259952,14.4338983 62.8906925,14.5764649 C62.9553898,14.7194189 63.0239613,14.8848426 63.0979564,15.0742857 L66.8194092,25.377046 L66.8751961,25.377046 L70.5699177,14.5338499 C70.6257046,14.362615 70.6528232,14.219661 70.6528232,14.1073123 C70.6528232,13.8799031 70.5141308,13.76523 70.2390702,13.76523 L70.2390702,13.4231477 L74.0717094,13.4231477 L74.0717094,13.76523 C73.7412494,13.76523 73.5754383,13.8888136 73.5754383,14.1348184 C73.5754383,14.2308959 73.6025569,14.3490557 73.6583438,14.49046 C73.7137433,14.633414 73.7679806,14.7806295 73.8233801,14.9324939 L77.4080775,25.0361259 L77.4627022,25.0361259 L81.1303051,14.7899274 C81.167109,14.657046 81.2035254,14.5474092 81.2411041,14.4621792 C81.2775206,14.3773366 81.2965036,14.277385 81.2965036,14.1642615 C81.2965036,13.897724 81.0938886,13.76523 80.689046,13.76523 L80.689046,13.4231477 L84.1641065,13.4231477 L84.1641065,13.76523 C83.9250751,13.76523 83.7503535,13.8318644 83.6391671,13.9647458 C83.5291429,14.0976271 83.4012978,14.3537046 83.2536949,14.7333656 L78.9243971,26.8007748 C78.8318063,27.0475545 78.7593608,27.2369976 78.7047361,27.3706538 C78.6489492,27.5031477 78.6206683,27.6449395 78.6206683,27.7968039 C78.6206683,27.9680387 78.8046877,28.0528814 79.1727264,28.0528814 L79.1727264,28.3949637 L75.5334044,28.3949637 L75.5334044,28.0528814 C75.7720484,28.0528814 75.9235254,28.0300242 75.9882228,27.9815981 C76.0525327,27.935109 76.0843002,27.8638257 76.0843002,27.768523 C76.0843002,27.6356416 76.047109,27.4795157 75.9746634,27.2993705 C75.9010557,27.118063 75.8363584,26.9526392 75.7817337,26.8007748 L72.0862373,16.4410654 L72.0316126,16.4410654 L68.3372785,27.0862954 C68.3000872,27.1994189 68.2636707,27.3094431 68.226092,27.4124939 C68.1889007,27.5178692 68.1706925,27.6356416 68.1706925,27.768523 C68.1706925,27.9575787 68.3543245,28.0528814 68.7223632,28.0528814 L68.7223632,28.3949637 L64.8072058,28.3949637 L64.8072058,28.0528814 Z" id="Fill-147"></path>
            <path d="M94.9445424,12.964184 C96.1842518,12.964184 97.3286586,13.1377433 98.3785375,13.4809879 C99.4276416,13.8257821 100.339215,14.337937 101.112097,15.0178402 C101.884978,15.6965811 102.487012,16.5298983 102.915099,17.5146925 C103.344736,18.4994867 103.558586,19.6303341 103.558586,20.911109 C103.558586,22.1914964 103.344736,23.3238935 102.915099,24.3086877 C102.487012,25.2934818 101.884978,26.1206005 101.112097,26.790431 C100.339215,27.4594867 99.4276416,27.9569201 98.3785375,28.2819564 C97.3286586,28.6073801 96.1842518,28.7693172 94.9445424,28.7693172 C93.7036707,28.7693172 92.5588765,28.6073801 91.5105472,28.2819564 C90.4610557,27.9569201 89.5498692,27.4594867 88.7769879,26.790431 C88.0041065,26.1206005 87.4036223,25.2934818 86.9739855,24.3086877 C86.5443487,23.3238935 86.3304988,22.1914964 86.3304988,20.911109 C86.3304988,19.6303341 86.5443487,18.4994867 86.9739855,17.5146925 C87.4036223,16.5298983 88.0041065,15.6965811 88.7769879,15.0178402 C89.5498692,14.337937 90.4610557,13.8257821 91.5105472,13.4809879 C92.5588765,13.1377433 93.7036707,12.964184 94.9445424,12.964184 M94.9445424,14.9725133 C92.9989734,14.9725133 91.4958257,15.4982276 90.4362615,16.5500436 C89.3778596,17.6006973 88.8486586,19.0492203 88.8486586,20.8963874 C88.8486586,22.7435545 89.3778596,24.1920775 90.4362615,25.2423438 C91.4958257,26.2941598 92.9989734,26.8190993 94.9445424,26.8190993 C96.8901114,26.8190993 98.3932591,26.2941598 99.4528232,25.2423438 C100.511225,24.1920775 101.040426,22.7435545 101.040426,20.8963874 C101.040426,19.0492203 100.511225,17.6006973 99.4528232,16.5500436 C98.3932591,15.4982276 96.8901114,14.9725133 94.9445424,14.9725133" id="Fill-149"></path>
            <path d="M110.743593,27.3701889 C110.743593,27.5790024 110.789695,27.7444262 110.881511,27.8680097 C110.973714,27.9915932 111.148048,28.0524165 111.40645,28.0524165 L111.40645,28.3948862 L107.765966,28.3948862 L107.765966,28.0524165 C108.023593,28.0524165 108.198315,27.9915932 108.289743,27.8680097 C108.381559,27.7444262 108.428048,27.5790024 108.428048,27.3701889 L108.428048,14.4485424 C108.428048,14.2397288 108.381559,14.0743051 108.289743,13.9507215 C108.198315,13.8259758 108.023593,13.7647651 107.765966,13.7647651 L107.765966,13.423845 L117.002576,13.423845 C118.822625,13.423845 120.127419,13.7794867 120.919671,14.4911574 C121.709598,15.2032155 122.104755,16.2321743 122.104755,17.5784213 C122.104755,18.7751283 121.801027,19.7238935 121.193956,20.4254915 C120.587274,21.1278644 119.594731,21.573385 118.216329,21.7624407 L121.69139,27.3124649 C121.892843,27.6173559 122.052455,27.8168717 122.174102,27.9110121 C122.291874,28.0063148 122.490228,28.0524165 122.765288,28.0524165 L122.765288,28.3948862 L118.795506,28.3948862 L118.795506,28.0524165 C119.034538,28.0524165 119.186402,28.0342082 119.249937,27.9958547 C119.314634,27.9586634 119.346402,27.8916416 119.346402,27.7975012 C119.346402,27.6832155 119.302237,27.5790024 119.209259,27.484862 L115.818654,21.9053947 L110.743593,21.9053947 L110.743593,27.3701889 Z M116.782915,19.9695109 C117.902528,19.9695109 118.694392,19.7521743 119.15386,19.3147893 C119.613714,18.8793414 119.843835,18.2823438 119.843835,17.5230218 C119.843835,17.1433608 119.797346,16.8202615 119.70553,16.5541114 C119.613714,16.2887361 119.448291,16.0667506 119.209259,15.8854431 C118.96984,15.7052978 118.642479,15.5724165 118.228726,15.4864116 C117.817685,15.4011816 117.288484,15.3597288 116.645385,15.3597288 L110.743593,15.3597288 L110.743593,19.9695109 L116.782915,19.9695109 Z" id="Fill-151"></path>
            <path d="M131.037559,13.7654625 C130.779157,13.7654625 130.605985,13.8320969 130.513782,13.9649782 C130.421966,14.0974722 130.377027,14.2969879 130.377027,14.5619758 L130.377027,26.5162615 L139.640368,26.5162615 C140.284242,26.5162615 140.606179,26.2319031 140.606179,25.6616368 L140.937027,25.6616368 L140.937027,28.9360194 L140.606179,28.9360194 C140.606179,28.5745666 140.284242,28.3951961 139.640368,28.3951961 L127.397462,28.3951961 L127.397462,28.0531138 C127.655864,28.0531138 127.830586,27.9919031 127.922015,27.8683196 C128.013831,27.7447361 128.06032,27.5793123 128.06032,27.3708862 L128.06032,14.4476901 C128.06032,14.2392639 128.013831,14.0734528 127.922015,13.9502567 C127.830586,13.8266731 127.655864,13.7654625 127.397462,13.7654625 L127.397462,13.4233801 L131.037559,13.4233801 L131.037559,13.7654625 Z" id="Fill-153"></path>
            <path d="M144.630547,14.448155 C144.630547,14.2393414 144.58522,14.0739177 144.493404,13.9503341 C144.400039,13.827138 144.225705,13.7659274 143.969627,13.7659274 L143.969627,13.4234576 L152.517036,13.4234576 C153.657182,13.4234576 154.680329,13.6082518 155.590741,13.9790024 C156.500765,14.3482034 157.273646,14.8653947 157.907061,15.5301889 C158.541637,16.1945956 159.033646,16.9868475 159.382702,17.9069443 C159.73137,18.8258789 159.907254,19.8269443 159.907254,20.9089782 C159.907254,21.9913995 159.760039,22.9920775 159.46522,23.9125617 C159.171564,24.8326586 158.734179,25.6249104 158.155002,26.2877676 C157.577375,26.9529492 156.859506,27.469753 156.004107,27.8393414 C155.149482,28.2097046 154.161588,28.3944988 153.040426,28.3944988 L143.969627,28.3944988 L143.969627,28.0535787 C144.225705,28.0535787 144.400039,27.9912058 144.493404,27.8676223 C144.58522,27.7440387 144.630547,27.578615 144.630547,27.3698015 L144.630547,14.448155 Z M152.792097,26.5155642 C154.40953,26.5155642 155.623283,26.0417627 156.432581,25.093385 C157.240717,24.1446199 157.645172,22.7507215 157.645172,20.9089782 C157.645172,19.0683971 157.180668,17.6744988 156.253598,16.7249588 C155.324591,15.7773559 154.005075,15.3027797 152.295826,15.3027797 L146.946867,15.3027797 L146.946867,26.5155642 L152.792097,26.5155642 Z" id="Fill-155"></path>
            <path d="M66.3076804,35.9817143 C66.3076804,35.8945472 66.2747506,35.8310121 66.2100533,35.7868475 C66.1453559,35.743845 66.0333947,35.7209879 65.8722324,35.7209879 L62.164339,35.7209879 L62.164339,37.1861695 L64.4082131,37.1861695 C64.5596901,37.1861695 64.6790121,37.164862 64.7630799,37.1206973 C64.8467603,37.0776949 64.8886005,36.9665085 64.8886005,36.785201 L65.09354,36.785201 L65.09354,38.6269443 L64.8886005,38.6269443 C64.8886005,38.446799 64.8467603,38.3301889 64.7630799,38.2790508 C64.6790121,38.2279128 64.5596901,38.2019564 64.4082131,38.2019564 L62.164339,38.2019564 L62.164339,39.8325617 L65.9869056,39.8325617 C66.1011913,39.8325617 66.1953317,39.8054431 66.2677772,39.7500436 C66.3406102,39.6942567 66.3766392,39.6198741 66.3766392,39.5253462 L66.5819661,39.5253462 L66.5819661,41.1439419 L66.3766392,41.1439419 C66.3766392,41.0261695 66.3406102,40.9591477 66.2677772,40.9432639 C66.1953317,40.9273801 66.1011913,40.919632 65.9869056,40.919632 L60.6534431,40.919632 L60.6534431,40.7065569 C60.7080678,40.7065569 60.7553317,40.6883487 60.7971719,40.6530944 C60.8393995,40.6182276 60.8595448,40.5647651 60.8595448,40.4946441 L60.8595448,35.1305763 C60.8595448,35.059293 60.8393995,35.0069927 60.7971719,34.9721259 C60.7553317,34.9357094 60.7080678,34.9175012 60.6534431,34.9175012 L60.6534431,34.7055884 L65.8722324,34.7055884 C66.0333947,34.7055884 66.1453559,34.6807942 66.2100533,34.6284939 C66.2747506,34.5773559 66.3076804,34.5095593 66.3076804,34.4223923 L66.5137821,34.4223923 L66.5137821,35.9817143 L66.3076804,35.9817143 Z" id="Fill-157"></path>
            <path d="M68.3442131,40.7070605 C68.4894915,40.7070605 68.561937,40.6353898 68.561937,40.4939855 L68.561937,35.1310799 C68.561937,34.9892881 68.4894915,34.9180048 68.3442131,34.9180048 L68.3442131,34.7049298 L70.3014044,34.7049298 L70.3014044,34.9180048 C70.2401937,34.9180048 70.2095884,34.9575206 70.2095884,35.0369395 C70.2095884,35.1004746 70.2855206,35.2104988 70.4385472,35.3666247 L73.7230024,38.8881743 L73.7230024,35.1310799 C73.7230024,34.9892881 73.6246005,34.9180048 73.4258596,34.9180048 L73.4258596,34.7049298 L75.154092,34.7049298 L75.154092,34.9180048 C75.009201,34.9180048 74.9367554,34.9892881 74.9367554,35.1310799 L74.9367554,40.4939855 C74.9367554,40.6353898 75.009201,40.7070605 75.154092,40.7070605 L75.154092,40.9201356 L73.300339,40.9201356 L73.300339,40.7070605 C73.3987409,40.7070605 73.4487167,40.6718063 73.4487167,40.600523 C73.4487167,40.5451235 73.3875061,40.4552446 73.2650847,40.3281743 L69.7741404,36.5726295 L69.7741404,40.4939855 C69.7741404,40.6353898 69.8628571,40.7070605 70.0371913,40.7070605 L70.0371913,40.9201356 L68.3442131,40.9201356 L68.3442131,40.7070605 Z" id="Fill-159"></path>
            <path d="M80.349753,40.4944504 C80.349753,40.6358547 80.4338208,40.7075254 80.601569,40.7075254 L80.601569,40.9194383 L78.8392446,40.9194383 L78.8392446,40.7075254 C78.8923196,40.7075254 78.9399709,40.6893172 78.9821985,40.6529007 C79.0240387,40.6180339 79.0457337,40.5645714 79.0457337,40.4944504 L79.0457337,35.7920775 L77.156339,35.7920775 C77.088155,35.7920775 77.0211332,35.8126102 76.9568232,35.8513511 C76.8909637,35.8908668 76.8591961,35.9656368 76.8591961,36.075661 L76.6530944,36.075661 L76.6530944,34.4221985 L76.8591961,34.4221985 C76.8591961,34.5318354 76.8909637,34.608155 76.9568232,34.6465085 C77.0211332,34.6860242 77.088155,34.7053947 77.156339,34.7053947 L82.2379855,34.7053947 C82.3073317,34.7053947 82.3728039,34.6860242 82.4386634,34.6465085 C82.5033608,34.608155 82.5362906,34.5318354 82.5362906,34.4221985 L82.74123,34.4221985 L82.74123,36.075661 L82.5362906,36.075661 C82.5362906,35.9656368 82.5033608,35.8908668 82.4386634,35.8513511 C82.3728039,35.8126102 82.3073317,35.7920775 82.2379855,35.7920775 L80.349753,35.7920775 L80.349753,40.4944504 Z" id="Fill-161"></path>
            <path d="M89.8370944,35.9817143 C89.8370944,35.8945472 89.8045521,35.8310121 89.7398547,35.7868475 C89.6751574,35.743845 89.5628087,35.7209879 89.4020339,35.7209879 L85.6941404,35.7209879 L85.6941404,37.1861695 L87.9380145,37.1861695 C88.0894915,37.1861695 88.2076513,37.164862 88.2924939,37.1206973 C88.3761743,37.0776949 88.4184019,36.9665085 88.4184019,36.785201 L88.6233414,36.785201 L88.6233414,38.6269443 L88.4184019,38.6269443 C88.4184019,38.446799 88.3761743,38.3301889 88.2924939,38.2790508 C88.2076513,38.2279128 88.0894915,38.2019564 87.9380145,38.2019564 L85.6941404,38.2019564 L85.6941404,39.8325617 L89.516707,39.8325617 C89.6309927,39.8325617 89.7251332,39.8054431 89.7975787,39.7500436 C89.8700242,39.6942567 89.9064407,39.6198741 89.9064407,39.5253462 L90.1113801,39.5253462 L90.1113801,41.1439419 L89.9064407,41.1439419 C89.9064407,41.0261695 89.8700242,40.9591477 89.7975787,40.9432639 C89.7251332,40.9273801 89.6309927,40.919632 89.516707,40.919632 L84.1832446,40.919632 L84.1832446,40.7065569 C84.2374818,40.7065569 84.2851332,40.6883487 84.3269734,40.6530944 C84.369201,40.6182276 84.3893462,40.5647651 84.3893462,40.4946441 L84.3893462,35.1305763 C84.3893462,35.059293 84.369201,35.0069927 84.3269734,34.9721259 C84.2851332,34.9357094 84.2374818,34.9175012 84.1832446,34.9175012 L84.1832446,34.7055884 L89.4020339,34.7055884 C89.5628087,34.7055884 89.6751574,34.6807942 89.7398547,34.6284939 C89.8045521,34.5773559 89.8370944,34.5095593 89.8370944,34.4223923 L90.0435835,34.4223923 L90.0435835,35.9817143 L89.8370944,35.9817143 Z" id="Fill-163"></path>
            <path d="M95.6618692,34.7054334 C96.0279709,34.7054334 96.360368,34.7395254 96.6582857,34.8065472 C96.9550412,34.8731816 97.2099564,34.9797191 97.4245811,35.1249976 C97.6388184,35.2710508 97.8026925,35.4604939 97.9162034,35.6913898 C98.0316513,35.9249976 98.0886005,36.2093559 98.0886005,36.548339 C98.0886005,37.0686295 97.9402228,37.4661114 97.6419177,37.7415593 C97.344,38.0170073 96.9438063,38.2018015 96.4405617,38.2971041 L97.9623051,40.5409782 C98.0157676,40.6203971 98.0793027,40.6680484 98.1521356,40.68277 C98.2230315,40.6994286 98.2900533,40.7075642 98.3512639,40.7075642 L98.3512639,40.919477 L96.2116029,40.919477 L96.2116029,40.7075642 C96.2809492,40.7075642 96.3386731,40.6951671 96.3886489,40.6711477 C96.4382373,40.6475157 96.4630315,40.6157482 96.4630315,40.5773947 C96.4630315,40.5374915 96.4471477,40.4921646 96.4177046,40.4410266 C96.3874867,40.390276 96.3409976,40.3209298 96.2809492,40.2337627 L95.0218692,38.3924068 L93.3850654,38.3924068 L93.3850654,40.4944891 C93.3850654,40.5646102 93.4090847,40.6180726 93.4586731,40.6533269 C93.5086489,40.6881937 93.5985278,40.7075642 93.7275351,40.7075642 L93.7275351,40.919477 L91.7474867,40.919477 L91.7474867,40.7075642 C91.9698596,40.7075642 92.0806586,40.6362809 92.0806586,40.4944891 L92.0806586,35.1304213 C92.0806586,34.9886295 91.9698596,34.9173462 91.7474867,34.9173462 L91.7474867,34.7054334 L95.6618692,34.7054334 Z M95.3651138,37.4695981 C95.6393995,37.4695981 95.8683584,37.4482906 96.0519903,37.4049007 C96.23446,37.3618983 96.3797385,37.3006877 96.4858886,37.2216562 C96.5935884,37.1430121 96.669908,37.0504213 96.7148475,36.9438838 C96.7613366,36.8373462 96.7838063,36.7218983 96.7838063,36.5959903 C96.7838063,36.4700823 96.7613366,36.3534722 96.7148475,36.2469346 C96.669908,36.1403971 96.5935884,36.0485811 96.4858886,35.9691622 C96.3797385,35.8909056 96.23446,35.8308571 96.0519903,35.7866925 C95.8683584,35.7436901 95.6393995,35.7212203 95.3651138,35.7212203 L93.3850654,35.7212203 L93.3850654,37.4695981 L95.3651138,37.4695981 Z" id="Fill-165"></path>
            <path d="M103.239051,40.4944504 C103.239051,40.6358547 103.321569,40.7075254 103.490479,40.7075254 L103.490479,40.9194383 L101.728542,40.9194383 L101.728542,40.7075254 C101.78123,40.7075254 101.828881,40.6893172 101.871109,40.6529007 C101.912949,40.6180339 101.934644,40.5645714 101.934644,40.4944504 L101.934644,35.7920775 L100.045249,35.7920775 C99.9770654,35.7920775 99.910431,35.8126102 99.8445714,35.8513511 C99.7798741,35.8908668 99.7481065,35.9656368 99.7481065,36.075661 L99.5420048,36.075661 L99.5420048,34.4221985 L99.7481065,34.4221985 C99.7481065,34.5318354 99.7798741,34.608155 99.8445714,34.6465085 C99.910431,34.6860242 99.9770654,34.7053947 100.045249,34.7053947 L105.126896,34.7053947 C105.19508,34.7053947 105.262102,34.6860242 105.327574,34.6465085 C105.392271,34.608155 105.424039,34.5318354 105.424039,34.4221985 L105.63014,34.4221985 L105.63014,36.075661 L105.424039,36.075661 C105.424039,35.9656368 105.392271,35.8908668 105.327574,35.8513511 C105.262102,35.8126102 105.19508,35.7920775 105.126896,35.7920775 L103.239051,35.7920775 L103.239051,40.4944504 Z" id="Fill-167"></path>
            <path d="M106.328097,40.7070605 C106.427661,40.6907893 106.505918,40.6400387 106.562479,40.5540339 C106.619429,40.4664794 106.674828,40.3680775 106.729065,40.2580533 L108.846257,35.6626053 C108.899719,35.5607167 108.94737,35.465414 108.989211,35.3794092 C109.031051,35.2918547 109.051196,35.2170847 109.051196,35.1547119 C109.051196,35.0756804 109.02524,35.0198935 108.971777,34.9892881 C108.918702,34.9575206 108.860978,34.9338886 108.799768,34.9180048 L108.799768,34.7049298 L110.735651,34.7049298 L110.735651,34.9180048 C110.681027,34.9338886 110.627952,34.9563584 110.574489,34.9827022 C110.521027,35.0109831 110.493133,35.068707 110.493133,35.1547119 C110.493133,35.2170847 110.507855,35.2806199 110.533424,35.344155 C110.559768,35.4065278 110.601608,35.4894334 110.65507,35.5924843 L113.034925,40.399845 C113.072116,40.4870121 113.124416,40.549385 113.189114,40.5889007 C113.254973,40.6288039 113.328194,40.6671574 113.412262,40.7070605 L113.412262,40.9201356 L111.399671,40.9201356 L111.399671,40.7070605 C111.429114,40.7070605 111.467855,40.6954383 111.512019,40.6718063 C111.558121,40.6481743 111.580978,40.6117579 111.580978,40.5652688 C111.580978,40.4870121 111.551148,40.3839613 111.490324,40.2580533 L111.056426,39.3832833 L108.262431,39.3832833 L107.850228,40.222799 C107.773908,40.3886102 107.735554,40.5063826 107.735554,40.5765036 C107.735554,40.6640581 107.808,40.7070605 107.952891,40.7070605 L107.952891,40.9201356 L106.328097,40.9201356 L106.328097,40.7070605 Z M110.642673,38.5096755 L109.681511,36.3119031 L108.606063,38.5096755 L110.642673,38.5096755 Z" id="Fill-169"></path>
            <path d="M114.67138,40.7070605 C114.869734,40.7070605 114.969685,40.6353898 114.969685,40.4939855 L114.969685,35.1310799 C114.969685,34.9892881 114.869734,34.9180048 114.67138,34.9180048 L114.67138,34.7049298 L116.570847,34.7049298 L116.570847,34.9180048 C116.372494,34.9180048 116.274092,34.9892881 116.274092,35.1310799 L116.274092,40.4939855 C116.274092,40.6353898 116.372494,40.7070605 116.570847,40.7070605 L116.570847,40.9201356 L114.67138,40.9201356 L114.67138,40.7070605 Z" id="Fill-171"></path>
            <path d="M118.573869,40.7070605 C118.719148,40.7070605 118.791593,40.6353898 118.791593,40.4939855 L118.791593,35.1310799 C118.791593,34.9892881 118.719148,34.9180048 118.573869,34.9180048 L118.573869,34.7049298 L120.531061,34.7049298 L120.531061,34.9180048 C120.470237,34.9180048 120.439245,34.9575206 120.439245,35.0369395 C120.439245,35.1004746 120.515177,35.2104988 120.668203,35.3666247 L123.952659,38.8881743 L123.952659,35.1310799 C123.952659,34.9892881 123.853869,34.9180048 123.655516,34.9180048 L123.655516,34.7049298 L125.384136,34.7049298 L125.384136,34.9180048 C125.237695,34.9180048 125.165249,34.9892881 125.165249,35.1310799 L125.165249,40.4939855 C125.165249,40.6353898 125.237695,40.7070605 125.384136,40.7070605 L125.384136,40.9201356 L123.528833,40.9201356 L123.528833,40.7070605 C123.628397,40.7070605 123.677211,40.6718063 123.677211,40.600523 C123.677211,40.5451235 123.617162,40.4552446 123.494741,40.3281743 L120.004184,36.5726295 L120.004184,40.4939855 C120.004184,40.6353898 120.091351,40.7070605 120.26801,40.7070605 L120.26801,40.9201356 L118.573869,40.9201356 L118.573869,40.7070605 Z" id="Fill-173"></path>
            <path d="M127.443797,40.7070605 C127.503458,40.7070605 127.558082,40.6888523 127.603409,40.6535981 C127.649898,40.617569 127.671593,40.5652688 127.671593,40.4939855 L127.671593,35.1070605 C127.671593,35.0369395 127.649898,34.9869637 127.603409,34.9602324 C127.558082,34.9327264 127.503458,34.9180048 127.443797,34.9180048 L127.443797,34.7049298 L129.58307,34.7049298 L129.58307,34.9180048 C129.545879,34.9180048 129.504814,34.9304019 129.462973,34.9528717 C129.421133,34.976891 129.400988,35.0133075 129.400988,35.0597966 C129.400988,35.1004746 129.415709,35.1504504 129.446315,35.2139855 C129.476533,35.2771332 129.510625,35.344155 129.549366,35.414276 L131.185782,38.4856562 L132.833433,35.4506925 C132.886896,35.3476416 132.926412,35.2670605 132.953918,35.2081743 C132.979874,35.1492881 132.994596,35.0946634 132.994596,35.0485617 C132.994596,34.9621695 132.94462,34.9180048 132.844668,34.9180048 L132.844668,34.7049298 L134.963022,34.7049298 L134.963022,34.9180048 C134.901811,34.9180048 134.847186,34.9327264 134.802247,34.9602324 C134.75692,34.9869637 134.732901,35.0369395 134.732901,35.1070605 L134.732901,40.4939855 C134.732901,40.5652688 134.75692,40.617569 134.802247,40.6535981 C134.847186,40.6888523 134.901811,40.7070605 134.963022,40.7070605 L134.963022,40.9201356 L133.165831,40.9201356 L133.165831,40.7070605 C133.371932,40.7070605 133.474983,40.6353898 133.474983,40.4939855 L133.474983,36.5726295 L133.451351,36.5726295 L131.150528,40.9201356 L131.116436,40.9201356 L128.862489,36.5602324 L128.840019,36.5602324 L128.840019,40.4939855 C128.840019,40.6353898 128.946557,40.7070605 129.159632,40.7070605 L129.159632,40.9201356 L127.443797,40.9201356 L127.443797,40.7070605 Z" id="Fill-175"></path>
            <path d="M142.607613,35.9817143 C142.607613,35.8945472 142.574683,35.8310121 142.510373,35.7868475 C142.445676,35.743845 142.333327,35.7209879 142.172552,35.7209879 L138.465433,35.7209879 L138.465433,37.1861695 L140.708533,37.1861695 C140.86001,37.1861695 140.979332,37.164862 141.06185,37.1206973 C141.146692,37.0776949 141.18892,36.9665085 141.18892,36.785201 L141.395022,36.785201 L141.395022,38.6269443 L141.18892,38.6269443 C141.18892,38.446799 141.146692,38.3301889 141.06185,38.2790508 C140.979332,38.2279128 140.86001,38.2019564 140.708533,38.2019564 L138.465433,38.2019564 L138.465433,39.8325617 L142.286838,39.8325617 C142.401511,39.8325617 142.495651,39.8054431 142.567709,39.7500436 C142.640542,39.6942567 142.676959,39.6198741 142.676959,39.5253462 L142.881898,39.5253462 L142.881898,41.1439419 L142.676959,41.1439419 C142.676959,41.0261695 142.640542,40.9591477 142.567709,40.9432639 C142.495651,40.9273801 142.401511,40.919632 142.286838,40.919632 L136.953375,40.919632 L136.953375,40.7065569 C137.008,40.7065569 137.055651,40.6883487 137.096329,40.6530944 C137.138557,40.6182276 137.159864,40.5647651 137.159864,40.4946441 L137.159864,35.1305763 C137.159864,35.059293 137.138557,35.0069927 137.096329,34.9721259 C137.055651,34.9357094 137.008,34.9175012 136.953375,34.9175012 L136.953375,34.7055884 L142.172552,34.7055884 C142.333327,34.7055884 142.445676,34.6807942 142.510373,34.6284939 C142.574683,34.5773559 142.607613,34.5095593 142.607613,34.4223923 L142.813714,34.4223923 L142.813714,35.9817143 L142.607613,35.9817143 Z" id="Fill-177"></path>
            <path d="M144.644533,40.7070605 C144.789811,40.7070605 144.862257,40.6353898 144.862257,40.4939855 L144.862257,35.1310799 C144.862257,34.9892881 144.789811,34.9180048 144.644533,34.9180048 L144.644533,34.7049298 L146.602111,34.7049298 L146.602111,34.9180048 C146.540901,34.9180048 146.509908,34.9575206 146.509908,35.0369395 C146.509908,35.1004746 146.586228,35.2104988 146.738867,35.3666247 L150.023322,38.8881743 L150.023322,35.1310799 C150.023322,34.9892881 149.92492,34.9180048 149.726567,34.9180048 L149.726567,34.7049298 L151.454799,34.7049298 L151.454799,34.9180048 C151.308358,34.9180048 151.2363,34.9892881 151.2363,35.1310799 L151.2363,40.4939855 C151.2363,40.6353898 151.308358,40.7070605 151.454799,40.7070605 L151.454799,40.9201356 L149.599496,40.9201356 L149.599496,40.7070605 C149.699448,40.7070605 149.748262,40.6718063 149.748262,40.600523 C149.748262,40.5451235 149.688213,40.4552446 149.565404,40.3281743 L146.074847,36.5726295 L146.074847,40.4939855 C146.074847,40.6353898 146.162402,40.7070605 146.339061,40.7070605 L146.339061,40.9201356 L144.644533,40.9201356 L144.644533,40.7070605 Z" id="Fill-179"></path>
            <path d="M156.649685,40.4944504 C156.649685,40.6358547 156.733753,40.7075254 156.901501,40.7075254 L156.901501,40.9194383 L155.139177,40.9194383 L155.139177,40.7075254 C155.192252,40.7075254 155.241065,40.6893172 155.282131,40.6529007 C155.323971,40.6180339 155.345666,40.5645714 155.345666,40.4944504 L155.345666,35.7920775 L153.457433,35.7920775 C153.388087,35.7920775 153.321453,35.8126102 153.256755,35.8513511 C153.190896,35.8908668 153.159128,35.9656368 153.159128,36.075661 L152.953027,36.075661 L152.953027,34.4221985 L153.159128,34.4221985 C153.159128,34.5318354 153.190896,34.608155 153.256755,34.6465085 C153.321453,34.6860242 153.388087,34.7053947 153.457433,34.7053947 L158.537918,34.7053947 C158.607264,34.7053947 158.674286,34.6860242 158.738596,34.6465085 C158.803293,34.608155 158.836223,34.5318354 158.836223,34.4221985 L159.042324,34.4221985 L159.042324,36.075661 L158.836223,36.075661 C158.836223,35.9656368 158.803293,35.8908668 158.738596,35.8513511 C158.674286,35.8126102 158.607264,35.7920775 158.537918,35.7920775 L156.649685,35.7920775 L156.649685,40.4944504 Z" id="Fill-181"></path>
        </g>
    </g>
</svg>