<?xml version="1.0" encoding="UTF-8"?>
<svg width="217px" height="208px" viewBox="0 0 217 208" version="1.1" xmlns="http://www.w3.org/2000/svg" xmlns:xlink="http://www.w3.org/1999/xlink">
    <title>Group 26</title>
    <defs>
        <linearGradient x1="50%" y1="0%" x2="71.700755%" y2="100%" id="linearGradient-1">
            <stop stop-color="#3F8D80" offset="0%"></stop>
            <stop stop-color="#00AA8F" stop-opacity="0" offset="100%"></stop>
        </linearGradient>
        <linearGradient x1="3.1734406%" y1="47.426107%" x2="98.9467076%" y2="52.7750908%" id="linearGradient-2">
            <stop stop-color="#084A3F" stop-opacity="0" offset="0%"></stop>
            <stop stop-color="#084A3F" offset="37.9698427%"></stop>
            <stop stop-color="#084A3F" offset="66.2204983%"></stop>
            <stop stop-color="#084A3F" stop-opacity="0" offset="100%"></stop>
        </linearGradient>
        <text id="text-3" font-family="Futura-Medium, Futura" font-size="30" font-weight="400" line-spacing="12" letter-spacing="3.46153846" fill="#FFFFFF">
            <tspan x="0" y="89">LOTTERIES</tspan>
        </text>
        <filter x="-5.3%" y="-18.7%" width="111.8%" height="152.4%" filterUnits="objectBoundingBox" id="filter-4">
            <feOffset dx="1" dy="3" in="SourceAlpha" result="shadowOffsetOuter1"></feOffset>
            <feGaussianBlur stdDeviation="3" in="shadowOffsetOuter1" result="shadowBlurOuter1"></feGaussianBlur>
            <feColorMatrix values="0 0 0 0 0   0 0 0 0 0   0 0 0 0 0  0 0 0 0.5 0" type="matrix" in="shadowBlurOuter1"></feColorMatrix>
        </filter>
        <linearGradient x1="0%" y1="102.058876%" x2="96.2146577%" y2="102.058876%" id="linearGradient-5">
            <stop stop-color="#89663D" stop-opacity="0" offset="0%"></stop>
            <stop stop-color="#AB8457" offset="33.8969624%"></stop>
            <stop stop-color="#B28B5D" offset="63.0111165%"></stop>
            <stop stop-color="#BF996C" stop-opacity="0" offset="100%"></stop>
            <stop stop-color="#89663D" stop-opacity="0" offset="100%"></stop>
        </linearGradient>
    </defs>
    <g id="Home" stroke="none" stroke-width="1" fill="none" fill-rule="evenodd">
        <g id="Group-26">
            <rect id="Rectangle" x="0" y="0" width="217" height="208"></rect>
            <g id="Group-25" transform="translate(20.000000, 7.000000)">
                <polygon id="Fill-7" fill="url(#linearGradient-1)" points="35 96.1193658 88.9993664 192.24 143 96.1193658 88.9993664 -1.13686838e-13"></polygon>
                <polygon id="Fill-7" fill="url(#linearGradient-1)" points="35 96.1193658 88.9993664 192.24 143 96.1193658 88.9993664 -1.13686838e-13"></polygon>
                <rect id="Rectangle" fill="url(#linearGradient-2)" x="4" y="57.571875" width="170" height="40.05"></rect>
                <g id="Lotteries" fill="#FFFFFF" fill-opacity="1">
                    <use filter="url(#filter-4)" xlink:href="#text-3"></use>
                    <use xlink:href="#text-3"></use>
                </g>
                <line x1="4.5" y1="57.07125" x2="171.5" y2="57.07125" id="Line-7-Copy" stroke="url(#linearGradient-5)" stroke-linecap="square"></line>
                <line x1="4.5" y1="98.1225" x2="171.5" y2="98.1225" id="Line-7" stroke="url(#linearGradient-5)" stroke-linecap="square" transform="translate(88.000000, 98.122500) scale(-1, 1) translate(-88.000000, -98.122500) "></line>
                <g id="Group" transform="translate(38.000000, 111.639375)" fill="#FFFFFF">
                    <path d="M15.9503699,14.8276964 L15.9503699,15.1638528 L19.6377179,15.1638528 L19.6377179,14.8276964 C19.2648903,14.8276964 19.0794357,14.7438174 19.0794357,14.5760594 C19.0794357,14.42687 19.1069342,14.2872851 19.1638495,14.1566643 C19.2188464,14.0266839 19.2930282,13.8403572 19.386395,13.5976843 L23.7714357,1.73872869 C23.9204389,1.36607537 24.0515361,1.11379803 24.1628088,0.982536983 C24.2753605,0.853196826 24.4518621,0.787246152 24.6935925,0.787246152 L24.6935925,0.451730102 L21.1744326,0.451730102 L21.1744326,0.787246152 C21.5843511,0.787246152 21.7883511,0.917866904 21.7883511,1.17910841 C21.7883511,1.29116053 21.7704451,1.38912609 21.7327147,1.4723648 C21.6956238,1.55624382 21.6578934,1.66445415 21.6208025,1.7950749 L17.9059561,11.8631176 L17.8503197,11.8631176 L14.2186082,1.93465982 C14.1636113,1.78483013 14.1066959,1.64076313 14.0510596,1.50053791 C13.9954232,1.36031269 13.9666458,1.24441879 13.9666458,1.15093531 C13.9666458,0.909543033 14.1348339,0.787246152 14.4705705,0.787246152 L14.4705705,0.451730102 L10.5868966,0.451730102 L10.5868966,0.787246152 C10.8663574,0.787246152 11.005768,0.899298268 11.005768,1.1240428 C11.005768,1.23481432 10.9776301,1.37439924 10.9219937,1.54215726 L7.1790094,12.1992739 L7.12401254,12.1992739 L3.35225078,2.07360444 C3.27678997,1.88727778 3.20708464,1.72400184 3.1424953,1.58377662 C3.07662696,1.444832 3.04401254,1.31869333 3.04401254,1.20728151 C3.04401254,1.07602046 3.08685893,0.973572813 3.17063323,0.899298268 C3.25376803,0.825023723 3.41684013,0.787246152 3.65921003,0.787246152 L3.65921003,0.451730102 L-1.34045335e-13,0.451730102 L-1.34045335e-13,0.787246152 C0.260275862,0.787246152 0.455322884,0.866002782 0.587059561,1.02543694 C0.716238245,1.1829502 0.837742947,1.42178128 0.949015674,1.73872869 L5.41847022,13.6533903 C5.45556113,13.784011 5.50288401,13.9287183 5.55915987,14.0868719 C5.61415674,14.2456657 5.64229467,14.3897327 5.64229467,14.5209938 C5.64229467,14.6317653 5.61415674,14.7118025 5.55915987,14.757904 C5.50288401,14.805286 5.3449279,14.8276964 5.08401254,14.8276964 L5.08401254,15.1638528 L9.05018182,15.1638528 L9.05018182,14.8276964 C8.67799373,14.8276964 8.49126019,14.7348533 8.49126019,14.5478863 C8.49126019,14.4185461 8.50980564,14.3020119 8.54817555,14.198924 C8.58526646,14.0964763 8.62171787,13.9895466 8.66008777,13.8781348 L12.4030721,3.41630894 L12.4587085,3.41630894 L16.2023323,13.5976843 C16.2573292,13.7468737 16.3231975,13.9088691 16.3967398,14.0868719 C16.4709216,14.2635941 16.5092915,14.4185461 16.5092915,14.5478863 C16.5092915,14.6413698 16.4773166,14.7118025 16.4120878,14.757904 C16.3455799,14.805286 16.1921003,14.8276964 15.9503699,14.8276964" id="Fill-10"></path>
                    <path d="M39.0956727,15.0534014 C40.1585191,14.7338928 41.0819549,14.244065 41.8647009,13.5871194 C42.647447,12.9288933 43.2562495,12.1163554 43.691748,11.1475848 C44.1266069,10.1800948 44.3440364,9.06789752 44.3440364,7.80971234 C44.3440364,6.55152715 44.1266069,5.43868956 43.691748,4.47119958 C43.2562495,3.50306929 42.647447,2.6847687 41.8647009,2.01821868 C41.0819549,1.34974777 40.1585191,0.847113997 39.0956727,0.50775616 C38.0315473,0.170319216 36.8727762,1.70609608e-14 35.6161618,1.70609608e-14 C34.3595473,1.70609608e-14 33.1994972,0.170319216 32.1366508,0.50775616 C31.0738044,0.847113997 30.1503687,1.34974777 29.3676226,2.01821868 C28.585516,2.6847687 27.9767135,3.50306929 27.541215,4.47119958 C27.1063561,5.43868956 26.8889266,6.55152715 26.8889266,7.80971234 C26.8889266,9.06789752 27.1063561,10.1800948 27.541215,11.1475848 C27.9767135,12.1163554 28.585516,12.9288933 29.3676226,13.5871194 C30.1503687,14.244065 31.0738044,14.7338928 32.1366508,15.0534014 C33.1994972,15.3722697 34.3595473,15.5317039 35.6161618,15.5317039 C36.8727762,15.5317039 38.0315473,15.3722697 39.0956727,15.0534014 M31.0495034,12.0657718 C29.9764251,11.0348924 29.4398859,9.61022976 29.4398859,7.79434519 C29.4398859,5.9803815 29.9764251,4.55507859 31.0495034,3.52355882 C32.1225818,2.49075846 33.6445881,1.97403813 35.6161618,1.97403813 C37.5877354,1.97403813 39.1097417,2.49075846 40.1834596,3.52355882 C41.2552589,4.55507859 41.7924376,5.9803815 41.7924376,7.79434519 C41.7924376,9.61022976 41.2552589,11.0348924 40.1834596,12.0657718 C39.1097417,13.0992125 37.5877354,13.6152925 35.6161618,13.6152925 C33.6445881,13.6152925 32.1225818,13.0992125 31.0495034,12.0657718" id="Fill-12"></path>
                    <path d="M52.2934495,14.8283367 C52.0312552,14.8283367 51.8547536,14.7675084 51.7620263,14.6458519 C51.6680201,14.5248356 51.6219762,14.3621999 51.6219762,14.1573046 L51.6219762,8.78584634 L56.7622646,8.78584634 L60.1976502,14.2693567 C60.2922959,14.3621999 60.3370608,14.4646476 60.3370608,14.5760594 C60.3370608,14.6695429 60.3057254,14.7348533 60.2404966,14.7719905 C60.1759072,14.8097681 60.0217881,14.8283367 59.7800577,14.8283367 L59.7800577,15.1632125 L63.8012238,15.1632125 L63.8012238,14.8283367 C63.523042,14.8283367 63.3222395,14.781595 63.2013743,14.6887518 C63.0785906,14.5952683 62.917437,14.3999775 62.713437,14.1003181 L59.1929981,8.64690172 C60.5896627,8.46121535 61.5943147,8.02197106 62.2088727,7.33301062 C62.8240702,6.64276958 63.131669,5.70985568 63.131669,4.53490921 C63.131669,3.21141364 62.7319824,2.19974311 61.9306909,1.50053791 C61.1281204,0.801973002 59.8081956,0.451089804 57.9638821,0.451089804 L48.6054621,0.451089804 L48.6054621,0.787246152 C48.8663774,0.787246152 49.0422395,0.848074444 49.1356063,0.968450431 C49.228973,1.09074731 49.2756564,1.25338295 49.2756564,1.45827825 L49.2756564,14.1573046 C49.2756564,14.3621999 49.228973,14.5248356 49.1356063,14.6458519 C49.0422395,14.7675084 48.8663774,14.8283367 48.6054621,14.8283367 L48.6054621,15.1632125 L52.2934495,15.1632125 L52.2934495,14.8283367 Z M51.6219762,2.35469518 L57.600647,2.35469518 C58.2535749,2.35469518 58.7888351,2.39567424 59.2064276,2.47891295 C59.6246596,2.56279197 59.9552803,2.69341272 60.1976502,2.87077521 C60.4406596,3.048778 60.6082082,3.26775985 60.7009354,3.52900136 C60.7936627,3.79088316 60.8403461,4.10654998 60.8403461,4.4798436 C60.8403461,5.22579054 60.6082082,5.81230333 60.1413743,6.24066256 C59.6770984,6.67094269 58.8751674,6.88416186 57.7400577,6.88416186 L51.6219762,6.88416186 L51.6219762,2.35469518 Z" id="Fill-14"></path>
                    <path d="M81.8754959,15.6956201 L82.2112326,15.6956201 L82.2112326,12.4787639 L81.8754959,12.4787639 C81.8754959,13.0383842 81.5493517,13.3169138 80.8977028,13.3169138 L71.5117843,13.3169138 L71.5117843,1.57001022 C71.5117843,1.30940901 71.5578282,1.11475848 71.6505555,0.982857132 C71.7439223,0.852876677 71.9204238,0.787566301 72.1819787,0.787566301 L72.1819787,0.451409953 L68.4946307,0.451409953 L68.4946307,0.787566301 C68.7555461,0.787566301 68.9314082,0.848394592 69.0247749,0.96877058 C69.1175022,1.09042716 69.1654646,1.2537031 69.1654646,1.4585984 L69.1654646,14.1576248 C69.1654646,14.3625201 69.1175022,14.5251557 69.0247749,14.6455317 C68.9314082,14.7678286 68.7555461,14.8286569 68.4946307,14.8286569 L68.4946307,15.1635326 L80.8977028,15.1635326 C81.5493517,15.1635326 81.8754959,15.3402548 81.8754959,15.6956201" id="Fill-16"></path>
                    <path d="M100.89872,4.85742721 C100.543798,3.95268641 100.046268,3.17472458 99.4029329,2.52162082 C98.761516,1.86851706 97.9794094,1.3607609 97.0572527,0.997712041 C96.1344564,0.632742292 95.09719,0.450897715 93.9428953,0.450897715 L85.2828075,0.450897715 L85.2828075,0.787694361 C85.5430834,0.787694361 85.719585,0.847242056 85.8142307,0.968898639 C85.906958,1.09055522 85.9530019,1.25383116 85.9530019,1.45808616 L85.9530019,14.1571125 C85.9530019,14.3626481 85.906958,14.5252838 85.8142307,14.6456598 C85.719585,14.7679566 85.5430834,14.8281446 85.2828075,14.8281446 L85.2828075,15.1636607 L94.473679,15.1636607 C95.6094282,15.1636607 96.6102433,14.9824564 97.4748451,14.6174867 C98.342005,14.2544378 99.0684752,13.7466816 99.6548953,13.0929376 C100.241955,12.4417547 100.684488,11.6631526 100.982494,10.7590521 C101.2805,9.85431129 101.429503,8.87081386 101.429503,7.8072792 C101.429503,6.74438485 101.252362,5.76088742 100.89872,4.85742721 M97.9090646,11.919912 C97.0892276,12.8515453 95.8607511,13.3176821 94.2223561,13.3176821 L88.2999611,13.3176821 L88.2999611,2.29751659 L93.7184313,2.29751659 C95.4501931,2.29751659 96.7867448,2.76365339 97.7280865,3.69656729 C98.6675097,4.62948119 99.1381806,5.9990782 99.1381806,7.8072792 C99.1381806,9.6174011 98.7282621,10.9869981 97.9090646,11.919912" id="Fill-18"></path>
                    <path d="M6.56336426,26.323027 C6.48918245,26.376812 6.39581567,26.4037045 6.27942696,26.4037045 L2.40662445,26.4037045 L2.40662445,24.8010391 L4.67940188,24.8010391 C4.8341605,24.8010391 4.95310721,24.826651 5.0388,24.8765942 C5.12385329,24.9278181 5.16606019,25.0411508 5.16606019,25.2191536 L5.37453668,25.2191536 L5.37453668,23.4090317 L5.16606019,23.4090317 C5.16606019,23.5870344 5.12385329,23.6965254 5.0388,23.7394253 C4.95310721,23.7829656 4.8341605,23.8021745 4.67940188,23.8021745 L2.40662445,23.8021745 L2.40662445,22.3634253 L6.16303824,22.3634253 C6.32547085,22.3634253 6.43994107,22.3851955 6.50516991,22.4280954 C6.57103824,22.4703551 6.60365266,22.5337446 6.60365266,22.6195445 L6.81212915,22.6195445 L6.81212915,21.0866715 L6.60365266,21.0866715 C6.60365266,21.1724714 6.57103824,21.240343 6.50516991,21.2896459 C6.43994107,21.34151 6.32547085,21.3658414 6.16303824,21.3658414 L0.875665204,21.3658414 L0.875665204,21.5745784 C0.929383072,21.5745784 0.978624451,21.5918665 1.02147085,21.6264426 C1.06367774,21.6622992 1.08478119,21.7135231 1.08478119,21.7826752 L1.08478119,27.0542471 C1.08478119,27.1233992 1.06367774,27.1759036 1.02147085,27.2104797 C0.978624451,27.2444155 0.929383072,27.2629841 0.875665204,27.2629841 L0.875665204,27.4723615 L6.27942696,27.4723615 C6.39581567,27.4723615 6.48918245,27.4794048 6.56336426,27.4954123 C6.63754608,27.5101391 6.67399749,27.5767301 6.67399749,27.6919837 L6.88183448,27.6919837 L6.88183448,26.1021242 L6.67399749,26.1021242 C6.67399749,26.1949674 6.63754608,26.2679614 6.56336426,26.323027" id="Fill-20"></path>
                    <path d="M13.8154683,21.5745784 C14.0162708,21.5745784 14.1166721,21.6437306 14.1166721,21.7826752 L14.1166721,25.4752727 L10.7893618,22.0151033 C10.6339636,21.8607916 10.5578633,21.7525812 10.5578633,21.6911126 C10.5578633,21.6136366 10.5879197,21.5745784 10.6499511,21.5745784 L10.6499511,21.3652011 L8.66686646,21.3652011 L8.66686646,21.5745784 C8.8145906,21.5745784 8.88749342,21.6437306 8.88749342,21.7826752 L8.88749342,27.0542471 C8.88749342,27.1931917 8.8145906,27.2629841 8.66686646,27.2629841 L8.66686646,27.4717212 L10.3832803,27.4717212 L10.3832803,27.2629841 C10.2048602,27.2629841 10.1166094,27.1931917 10.1166094,27.0542471 L10.1166094,23.2002946 L13.6523962,26.8916114 C13.7764589,27.0158292 13.8384903,27.1041903 13.8384903,27.1586156 C13.8384903,27.2277678 13.7886094,27.2629841 13.6875687,27.2629841 L13.6875687,27.4717212 L15.566415,27.4717212 L15.566415,27.2629841 C15.4193304,27.2629841 15.3457881,27.1931917 15.3457881,27.0542471 L15.3457881,21.7826752 C15.3457881,21.6437306 15.4193304,21.5745784 15.566415,21.5745784 L15.566415,21.3652011 L13.8154683,21.3652011 L13.8154683,21.5745784 Z" id="Fill-22"></path>
                    <path d="M20.8303185,27.0539909 L20.8303185,22.4329617 L22.7436978,22.4329617 C22.8127636,22.4329617 22.879911,22.4528109 22.9464188,22.4912288 C23.0116476,22.5302869 23.0442621,22.6039212 23.0442621,22.7121315 L23.2533781,22.7121315 L23.2533781,21.0870557 L23.0442621,21.0870557 C23.0442621,21.1946257 23.0116476,21.2689003 22.9464188,21.3079584 C22.879911,21.3463763 22.8127636,21.3655852 22.7436978,21.3655852 L17.5944564,21.3655852 C17.5260301,21.3655852 17.4582433,21.3463763 17.3923749,21.3079584 C17.3265066,21.2689003 17.2945317,21.1946257 17.2945317,21.0870557 L17.0847762,21.0870557 L17.0847762,22.7121315 L17.2945317,22.7121315 C17.2945317,22.6039212 17.3265066,22.5302869 17.3923749,22.4912288 C17.4582433,22.4528109 17.5260301,22.4329617 17.5944564,22.4329617 L19.5084752,22.4329617 L19.5084752,27.0539909 C19.5084752,27.1231431 19.4860928,27.1750072 19.4445254,27.2102236 C19.401679,27.2447997 19.3530771,27.262728 19.2993592,27.262728 L19.2993592,27.4714651 L21.0848389,27.4714651 L21.0848389,27.262728 C20.9153718,27.262728 20.8303185,27.1935759 20.8303185,27.0539909" id="Fill-24"></path>
                    <path d="M30.4014997,26.323027 C30.3273179,26.376812 30.2333116,26.4037045 30.1169229,26.4037045 L26.2447599,26.4037045 L26.2447599,24.8010391 L28.5168978,24.8010391 C28.6722959,24.8010391 28.7906031,24.826651 28.8769354,24.8765942 C28.9619887,24.9278181 29.0035561,25.0411508 29.0035561,25.2191536 L29.2126721,25.2191536 L29.2126721,23.4090317 L29.0035561,23.4090317 C29.0035561,23.5870344 28.9619887,23.6965254 28.8769354,23.7394253 C28.7906031,23.7829656 28.6722959,23.8021745 28.5168978,23.8021745 L26.2447599,23.8021745 L26.2447599,22.3634253 L30.0005342,22.3634253 C30.1642458,22.3634253 30.277437,22.3851955 30.3426658,22.4280954 C30.4091737,22.4703551 30.4417881,22.5337446 30.4417881,22.6195445 L30.6509041,22.6195445 L30.6509041,21.0866715 L30.4417881,21.0866715 C30.4417881,21.1724714 30.4091737,21.240343 30.3426658,21.2896459 C30.277437,21.34151 30.1642458,21.3658414 30.0005342,21.3658414 L24.7138006,21.3658414 L24.7138006,21.5745784 C24.7675185,21.5745784 24.8167599,21.5918665 24.8589668,21.6264426 C24.9018132,21.6622992 24.9229166,21.7135231 24.9229166,21.7826752 L24.9229166,27.0542471 C24.9229166,27.1233992 24.9018132,27.1759036 24.8589668,27.2104797 C24.8167599,27.2444155 24.7675185,27.2629841 24.7138006,27.2629841 L24.7138006,27.4723615 L30.1169229,27.4723615 C30.2333116,27.4723615 30.3273179,27.4794048 30.4014997,27.4954123 C30.4744025,27.5101391 30.5114934,27.5767301 30.5114934,27.6919837 L30.7199699,27.6919837 L30.7199699,26.1021242 L30.5114934,26.1021242 C30.5114934,26.1949674 30.4744025,26.2679614 30.4014997,26.323027" id="Fill-26"></path>
                    <path d="M37.0793981,27.2284721 C37.0295172,27.2521631 36.9694044,27.2630482 36.9003386,27.2630482 L36.9003386,27.4717853 L39.0682382,27.4717853 L39.0682382,27.2630482 C39.0049279,27.2630482 38.9384201,27.2560049 38.8648777,27.2399975 C38.7913354,27.2246303 38.7273856,27.1785289 38.6730282,27.1004125 L37.1311975,24.8952269 C37.6421567,24.8017434 38.0475987,24.6198988 38.3488025,24.3490529 C38.6506458,24.0782069 38.8002884,23.6876252 38.8002884,23.1766676 C38.8002884,22.8430724 38.743373,22.5632623 38.6269843,22.3340357 C38.5112351,22.1067299 38.3449655,21.9210436 38.128815,21.7769766 C37.9120251,21.6341902 37.6530282,21.5304619 37.3518245,21.463871 C37.0506207,21.3985606 36.713605,21.3652651 36.3426959,21.3652651 L32.3778056,21.3652651 L32.3778056,21.5746425 C32.6022696,21.5746425 32.7141818,21.6437946 32.7141818,21.7833796 L32.7141818,27.0543111 C32.7141818,27.193896 32.6022696,27.2630482 32.3778056,27.2630482 L32.3778056,27.4717853 L34.3839122,27.4717853 L34.3839122,27.2630482 C34.2521755,27.2630482 34.1613668,27.2451198 34.1108464,27.2111841 C34.0609655,27.1753274 34.0360251,27.1234633 34.0360251,27.0543111 L34.0360251,24.9880701 L35.693605,24.9880701 L36.9694044,26.7988323 C37.0301567,26.8839919 37.0774796,26.9512231 37.1081755,27.0018067 C37.1388715,27.0523902 37.1542194,27.0965707 37.1542194,27.1349886 C37.1542194,27.1740468 37.1299185,27.2047811 37.0793981,27.2284721 M36.736627,24.0173786 C36.5518119,24.0615591 36.3203135,24.0820487 36.0414922,24.0820487 L34.0360251,24.0820487 L34.0360251,22.3634894 L36.0414922,22.3634894 C36.3203135,22.3634894 36.5518119,22.3858998 36.736627,22.4275191 C36.9233605,22.4710594 37.0698056,22.5299668 37.1778809,22.6074428 C37.2859561,22.6855592 37.3633354,22.7758412 37.4100188,22.8802097 C37.4560627,22.9852185 37.4790846,23.0991915 37.4790846,23.2221287 C37.4790846,23.3469868 37.4560627,23.4609598 37.4100188,23.5646881 C37.3633354,23.6696969 37.2859561,23.7606192 37.1778809,23.8380952 C37.0698056,23.9155712 36.9233605,23.9751189 36.736627,24.0173786" id="Fill-28"></path>
                    <path d="M40.580716,21.3082146 C40.5148476,21.2691564 40.4828727,21.1942415 40.4828727,21.0866715 L40.2737567,21.0866715 L40.2737567,22.7117473 L40.4828727,22.7117473 C40.4828727,22.6028967 40.5148476,22.5299028 40.580716,22.4914849 C40.6465843,22.453067 40.7143712,22.4332178 40.783437,22.4332178 L42.6974558,22.4332178 L42.6974558,27.0542471 C42.6974558,27.1233992 42.6750734,27.1759036 42.633506,27.2104797 C42.5906596,27.2450558 42.5414182,27.2629841 42.4877003,27.2629841 L42.4877003,27.4717212 L44.2731799,27.4717212 L44.2731799,27.2629841 C44.1037129,27.2629841 44.0186596,27.1931917 44.0186596,27.0542471 L44.0186596,22.4332178 L45.9313994,22.4332178 C46.0011047,22.4332178 46.0688915,22.453067 46.1347599,22.4914849 C46.2006282,22.5299028 46.2332426,22.6028967 46.2332426,22.7117473 L46.4423586,22.7117473 L46.4423586,21.0866715 L46.2332426,21.0866715 C46.2332426,21.1942415 46.2006282,21.2691564 46.1347599,21.3082146 C46.0688915,21.3466324 46.0011047,21.3658414 45.9313994,21.3658414 L40.783437,21.3658414 C40.7143712,21.3658414 40.6465843,21.3466324 40.580716,21.3082146" id="Fill-30"></path>
                    <path d="M53.943995,26.9614679 L51.5330859,22.2360701 C51.4774495,22.1361836 51.4365216,22.0542255 51.4096627,21.9927569 C51.3828038,21.9306481 51.3687348,21.8685392 51.3687348,21.8064303 C51.3687348,21.7212707 51.3968727,21.6655648 51.4505906,21.6386723 C51.5043085,21.61242 51.5586658,21.5900096 51.6130232,21.5746425 L51.6130232,21.3659054 L49.6529605,21.3659054 L49.6529605,21.5746425 C49.7149918,21.5900096 49.7725467,21.6137006 49.8269041,21.6437946 C49.8806219,21.6751692 49.9081204,21.7289542 49.9081204,21.8064303 C49.9081204,21.8685392 49.8870169,21.9421734 49.84481,22.0279733 C49.8013241,22.1124926 49.7540013,22.2053358 49.6990044,22.3058626 L47.5547661,26.821883 C47.5010483,26.9300933 47.4441329,27.0274186 47.3859386,27.1119379 C47.3283837,27.1970975 47.2490859,27.247681 47.1493241,27.2630482 L47.1493241,27.4717853 L48.7953931,27.4717853 L48.7953931,27.2630482 C48.6483085,27.2630482 48.5747661,27.2201482 48.5747661,27.1349886 C48.5747661,27.0651962 48.6137755,26.9493023 48.6905154,26.7873069 L49.1087473,25.9626033 L51.9385279,25.9626033 L52.3778633,26.821883 C52.4405342,26.9461008 52.4699511,27.0466275 52.4699511,27.1234633 C52.4699511,27.1695647 52.4482082,27.2041408 52.4002458,27.2278318 C52.3561204,27.2515228 52.3164715,27.2630482 52.2857755,27.2630482 L52.2857755,27.4717853 L54.3257755,27.4717853 L54.3257755,27.2630482 C54.2413618,27.22399 54.1665404,27.1862124 54.0993931,27.1471543 C54.0341643,27.1080961 53.9810859,27.0466275 53.943995,26.9614679 L53.943995,26.9614679 Z M49.4553555,25.103964 L50.5457003,22.9442395 L51.5202959,25.103964 L49.4553555,25.103964 Z" id="Fill-32"></path>
                    <path d="M57.5262094,21.5745784 L57.5262094,21.3652011 L55.6019586,21.3652011 L55.6019586,21.5745784 C55.8027611,21.5745784 55.9038019,21.6437306 55.9038019,21.7826752 L55.9038019,27.0542471 C55.9038019,27.1931917 55.8027611,27.2629841 55.6019586,27.2629841 L55.6019586,27.4717212 L57.5262094,27.4717212 L57.5262094,27.2629841 C57.3254069,27.2629841 57.2243661,27.1931917 57.2243661,27.0542471 L57.2243661,21.7826752 C57.2243661,21.6437306 57.3254069,21.5745784 57.5262094,21.5745784" id="Fill-34"></path>
                    <path d="M64.7033643,21.5745784 C64.9041668,21.5745784 65.004568,21.6437306 65.004568,21.7826752 L65.004568,25.4752727 L61.6772577,22.0151033 C61.5212201,21.8607916 61.4451197,21.7525812 61.4451197,21.6911126 C61.4451197,21.6136366 61.4764552,21.5745784 61.537847,21.5745784 L61.537847,21.3652011 L59.5554019,21.3652011 L59.5554019,21.5745784 C59.7012075,21.5745784 59.7747498,21.6437306 59.7747498,21.7826752 L59.7747498,27.0542471 C59.7747498,27.1931917 59.7012075,27.2629841 59.5554019,27.2629841 L59.5554019,27.4717212 L61.2711762,27.4717212 L61.2711762,27.2629841 C61.0927561,27.2629841 61.0038658,27.1931917 61.0038658,27.0542471 L61.0038658,23.2002946 L64.5402922,26.8916114 C64.6643549,27.0158292 64.7251072,27.1041903 64.7251072,27.1586156 C64.7251072,27.2277678 64.6758658,27.2629841 64.5748251,27.2629841 L64.5748251,27.4717212 L66.453032,27.4717212 L66.453032,27.2629841 C66.3059473,27.2629841 66.232405,27.1931917 66.232405,27.0542471 L66.232405,21.7826752 C66.232405,21.6437306 66.3059473,21.5745784 66.453032,21.5745784 L66.453032,21.3652011 L64.7033643,21.3652011 L64.7033643,21.5745784 Z" id="Fill-36"></path>
                    <path d="M74.6508903,23.1997183 L74.6508903,27.0543111 C74.6508903,27.1932557 74.546652,27.2630482 74.3381755,27.2630482 L74.3381755,27.4717853 L76.1588276,27.4717853 L76.1588276,27.2630482 C76.0961567,27.2630482 76.0417994,27.2444795 75.9957555,27.2105438 C75.9497116,27.1753274 75.9260502,27.1234633 75.9260502,27.0543111 L75.9260502,21.7603288 C75.9260502,21.6911767 75.9497116,21.6412334 75.9957555,21.6156215 C76.0417994,21.5880887 76.0961567,21.5746425 76.1588276,21.5746425 L76.1588276,21.3652651 L74.0133103,21.3652651 L74.0133103,21.5746425 C74.1130721,21.5746425 74.1635925,21.6169021 74.1635925,21.7020617 C74.1635925,21.7481632 74.150163,21.8006676 74.1226646,21.8589347 C74.0958056,21.9165615 74.0548777,21.9959584 74.0017994,22.0971255 L72.3314295,25.080273 L70.6738495,22.0625494 C70.6354796,21.9927569 70.6009467,21.9268063 70.5696113,21.8646974 C70.5382759,21.8025885 70.5235674,21.7526453 70.5235674,21.7142274 C70.5235674,21.6668454 70.5446708,21.6329096 70.5868777,21.6092186 C70.6290846,21.5861678 70.6700125,21.5746425 70.7083824,21.5746425 L70.7083824,21.3652651 L68.5411223,21.3652651 L68.5411223,21.5746425 C68.6025141,21.5746425 68.656232,21.5880887 68.7022759,21.6156215 C68.7489592,21.6412334 68.7726207,21.6911767 68.7726207,21.7603288 L68.7726207,27.0543111 C68.7726207,27.1234633 68.7489592,27.1753274 68.7022759,27.2105438 C68.656232,27.2444795 68.6025141,27.2630482 68.5411223,27.2630482 L68.5411223,27.4717853 L70.2799185,27.4717853 L70.2799185,27.2630482 C70.062489,27.2630482 69.9556928,27.1932557 69.9556928,27.0543111 L69.9556928,23.1875526 L69.9787147,23.1875526 L72.2623636,27.4717853 L72.2975361,27.4717853 L74.6285078,23.1997183 L74.6508903,23.1997183 Z" id="Fill-38"></path>
                    <path d="M83.8633129,26.323027 C83.79041,26.376812 83.6951248,26.4037045 83.5780966,26.4037045 L79.706573,26.4037045 L79.706573,24.8010391 L81.9793505,24.8010391 C82.1328301,24.8010391 82.2536953,24.826651 82.3381091,24.8765942 C82.4238019,24.9278181 82.4660088,25.0411508 82.4660088,25.2191536 L82.6751248,25.2191536 L82.6751248,23.4090317 L82.4660088,23.4090317 C82.4660088,23.5870344 82.4238019,23.6965254 82.3381091,23.7394253 C82.2536953,23.7829656 82.1328301,23.8021745 81.9793505,23.8021745 L79.706573,23.8021745 L79.706573,22.3634253 L83.4623473,22.3634253 C83.6260589,22.3634253 83.7386107,22.3851955 83.8051185,22.4280954 C83.8703473,22.4703551 83.9042408,22.5337446 83.9042408,22.6195445 L84.1120777,22.6195445 L84.1120777,21.0866715 L83.9042408,21.0866715 C83.9042408,21.1724714 83.8703473,21.240343 83.8051185,21.2896459 C83.7386107,21.34151 83.6260589,21.3658414 83.4623473,21.3658414 L78.1762533,21.3658414 L78.1762533,21.5745784 C78.2306107,21.5745784 78.2779335,21.5918665 78.3207799,21.6264426 C78.3629868,21.6622992 78.3840903,21.7135231 78.3840903,21.7826752 L78.3840903,27.0542471 C78.3840903,27.1233992 78.3629868,27.1759036 78.3207799,27.2104797 C78.2779335,27.2444155 78.2306107,27.2629841 78.1762533,27.2629841 L78.1762533,27.4723615 L83.5780966,27.4723615 C83.6951248,27.4723615 83.79041,27.4794048 83.8633129,27.4954123 C83.9362157,27.5101391 83.9733066,27.5767301 83.9733066,27.6919837 L84.1824226,27.6919837 L84.1824226,26.1021242 L83.9733066,26.1021242 C83.9733066,26.1949674 83.9362157,26.2679614 83.8633129,26.323027" id="Fill-40"></path>
                    <path d="M91.1158006,21.5745784 C91.3166031,21.5745784 91.4170044,21.6437306 91.4170044,21.7826752 L91.4170044,25.4752727 L88.089694,22.0151033 C87.9336564,21.8607916 87.8562771,21.7525812 87.8562771,21.6911126 C87.8562771,21.6136366 87.888252,21.5745784 87.9502834,21.5745784 L87.9502834,21.3652011 L85.9671987,21.3652011 L85.9671987,21.5745784 C86.1142834,21.5745784 86.1871862,21.6437306 86.1871862,21.7826752 L86.1871862,27.0542471 C86.1871862,27.1931917 86.1142834,27.2629841 85.9671987,27.2629841 L85.9671987,27.4717212 L87.6836125,27.4717212 L87.6836125,27.2629841 C87.5051925,27.2629841 87.4163022,27.1931917 87.4163022,27.0542471 L87.4163022,23.2002946 L90.953368,26.8916114 C91.0767912,27.0158292 91.1375436,27.1041903 91.1375436,27.1586156 C91.1375436,27.2277678 91.0883022,27.2629841 90.9879009,27.2629841 L90.9879009,27.4717212 L92.8661078,27.4717212 L92.8661078,27.2629841 C92.7183837,27.2629841 92.6448414,27.1931917 92.6448414,27.0542471 L92.6448414,21.7826752 C92.6448414,21.6437306 92.7183837,21.5745784 92.8661078,21.5745784 L92.8661078,21.3652011 L91.1158006,21.3652011 L91.1158006,21.5745784 Z" id="Fill-42"></path>
                    <path d="M100.246431,21.3082146 C100.179924,21.3466324 100.112137,21.3658414 100.043071,21.3658414 L94.8951085,21.3658414 C94.8254031,21.3658414 94.7576163,21.3466324 94.6923875,21.3082146 C94.6258796,21.2691564 94.5932652,21.1942415 94.5932652,21.0866715 L94.3841492,21.0866715 L94.3841492,22.7117473 L94.5932652,22.7117473 C94.5932652,22.6028967 94.6258796,22.5299028 94.6923875,22.4914849 C94.7576163,22.453067 94.8254031,22.4332178 94.8951085,22.4332178 L96.8084878,22.4332178 L96.8084878,27.0542471 C96.8084878,27.1233992 96.7861053,27.1759036 96.7438984,27.2104797 C96.702331,27.2450558 96.6530897,27.2629841 96.5993718,27.2629841 L96.5993718,27.4717212 L98.3848514,27.4717212 L98.3848514,27.2629841 C98.2147448,27.2629841 98.1296915,27.1931917 98.1296915,27.0542471 L98.1296915,22.4332178 L100.043071,22.4332178 C100.112137,22.4332178 100.179924,22.453067 100.246431,22.4914849 C100.31166,22.5299028 100.344275,22.6028967 100.344275,22.7117473 L100.553391,22.7117473 L100.553391,21.0866715 L100.344275,21.0866715 C100.344275,21.1942415 100.31166,21.2691564 100.246431,21.3082146" id="Fill-44"></path>
                </g>
            </g>
        </g>
    </g>
</svg>