<svg width="121" height="60" viewBox="0 0 121 60" fill="none" xmlns="http://www.w3.org/2000/svg">
<path d="M46.1196 27.0759H41.0096V26.0559H46.1196V27.0759ZM46.1196 28.6859H41.0096V27.6559H46.1196V28.6859ZM46.8596 25.4559H40.2796V29.2959H46.8596V25.4559ZM45.9296 32.3359C46.3896 31.8059 46.9496 31.0259 47.3696 30.3359L46.7396 30.0459C46.4096 30.6759 45.8196 31.5259 45.3596 32.0659L45.9296 32.3359ZM41.5496 32.0959C41.3196 31.5859 40.8196 30.7359 40.4096 30.1159L39.8196 30.3659C40.2296 30.9959 40.7096 31.8659 40.9396 32.3859L41.5496 32.0959ZM44.9696 32.9259V29.6859H44.2596V32.9259H42.7996V29.6859H42.0896V32.9259H38.9996V33.6459H48.1196V32.9259H44.9696ZM58.0596 25.7159H51.0796V26.4459H58.0596V25.7159ZM51.9296 29.8259C51.4896 30.9559 50.7696 32.0459 49.9496 32.7459C50.1396 32.8459 50.4796 33.0759 50.6196 33.1959C51.4196 32.4359 52.1996 31.2459 52.6896 30.0259L51.9296 29.8259ZM56.3796 30.1159C57.1096 31.0859 57.8496 32.3759 58.1296 33.1959L58.8596 32.8759C58.5696 32.0359 57.7896 30.7659 57.0596 29.8359L56.3796 30.1159ZM50.1896 28.1259V28.8559H54.1796V33.1159C54.1796 33.2759 54.1196 33.3259 53.9296 33.3259C53.7496 33.3359 53.0996 33.3359 52.4196 33.3159C52.5296 33.5359 52.6496 33.8659 52.6896 34.0859C53.5596 34.0859 54.1496 34.0759 54.4996 33.9559C54.8496 33.8359 54.9696 33.6059 54.9696 33.1359V28.8559H58.9396V28.1259H50.1896ZM65.1096 24.9559C64.3396 26.2459 62.6796 27.8259 60.9696 28.7659C61.1296 28.9259 61.3396 29.1859 61.4296 29.3559C63.1096 28.3759 64.7196 26.8959 65.5196 25.6859C66.4196 26.9459 68.1696 28.4159 69.6996 29.3059C69.8196 29.0959 69.9996 28.8359 70.1896 28.6459C68.6296 27.8759 66.8896 26.4159 65.8496 24.9559H65.1096ZM65.9096 31.5159H68.9396V30.8559H65.9096V29.2959H68.5596V28.6259H62.6196V29.2959H65.1496V30.8559H62.1696V31.5159H65.1496V33.1459H61.3596V33.8259H69.8096V33.1459H65.9096V31.5159ZM77.0096 26.0759H74.9796V25.0059H74.2696V26.0759H72.2696V26.7259H77.0096V26.0759ZM75.7796 28.7259C75.9896 28.2859 76.2296 27.6259 76.4396 27.0459L75.7396 26.8759C75.6196 27.3759 75.3696 28.1159 75.1796 28.5759L75.7796 28.7259ZM73.9596 28.5459C73.9096 28.1159 73.7296 27.4359 73.4996 26.9459L72.8796 27.0759C73.0896 27.5859 73.2696 28.2559 73.3196 28.6959L73.9596 28.5459ZM75.8696 31.0259V32.8659H73.3696V31.0259H75.8696ZM72.6796 34.1059H73.3696V33.5159H75.8696V34.0459H76.5896V30.3659H72.6796V34.1059ZM72.0096 29.4959H77.1496V28.8159H72.0096V29.4959ZM80.6096 25.5259L80.4896 25.5559H77.5496V34.0959H78.2696V26.2559H80.1596C79.8496 27.0559 79.4096 28.1359 78.9996 28.9759C80.0096 29.8459 80.2896 30.5859 80.2896 31.2159C80.2896 31.5759 80.2296 31.8759 80.0196 32.0059C79.8996 32.0759 79.7396 32.1059 79.5896 32.1159C79.3796 32.1259 79.1096 32.1259 78.7996 32.0959C78.9296 32.3059 78.9996 32.6259 79.0096 32.8359C79.2996 32.8459 79.6296 32.8459 79.8796 32.8159C80.1396 32.7859 80.3496 32.7159 80.5296 32.5959C80.8796 32.3659 81.0196 31.9059 81.0196 31.2959C81.0096 30.5859 80.7596 29.7959 79.7596 28.8759C80.2296 27.9659 80.7396 26.8159 81.1496 25.8759L80.6096 25.5259Z" fill="white"/>
<rect x="120.06" y="45.5703" width="120" height="1" transform="rotate(-180 120.06 45.5703)" fill="url(#paint0_linear)"/>
<path d="M67.0596 45.0867L60.781 51.3653L54.5024 45.0867" stroke="#B0936D"/>
<path d="M74.0596 45L60.0596 59L46.0596 45" stroke="#B0936D"/>
<rect x="0.0595703" y="14.4297" width="120" height="1" fill="url(#paint1_linear)"/>
<path d="M54.0596 14.9133L60.3382 8.63473L66.6168 14.9133" stroke="#B0936D"/>
<path d="M46.0596 15L60.0596 1L74.0596 15" stroke="#B0936D"/>
<defs>
<linearGradient id="paint0_linear" x1="123.66" y1="46.5702" x2="240.06" y2="46.5702" gradientUnits="userSpaceOnUse">
<stop stop-color="#B0936D" stop-opacity="0"/>
<stop offset="0.348958" stop-color="#B0936D"/>
<stop offset="0.65625" stop-color="#B0936D"/>
<stop offset="1" stop-color="#B0936D" stop-opacity="0"/>
</linearGradient>
<linearGradient id="paint1_linear" x1="3.65957" y1="15.4296" x2="120.06" y2="15.4296" gradientUnits="userSpaceOnUse">
<stop stop-color="#B0936D" stop-opacity="0"/>
<stop offset="0.348958" stop-color="#B0936D"/>
<stop offset="0.65625" stop-color="#B0936D"/>
<stop offset="1" stop-color="#B0936D" stop-opacity="0"/>
</linearGradient>
</defs>
</svg>
