<svg xmlns="http://www.w3.org/2000/svg" xmlns:xlink="http://www.w3.org/1999/xlink" viewBox="0 0 31.26 31.28"><defs><style>.cls-1{fill:none;}.cls-2{clip-path:url(#clip-path);}.cls-3{fill:#b0935b;}</style><clipPath id="clip-path" transform="translate(0 -0.37)"><rect class="cls-1" width="31.27" height="31.65"/></clipPath></defs><g id="Layer_2" data-name="Layer 2"><g id="Layer_1-2" data-name="Layer 1"><g class="cls-2"><path class="cls-3" d="M15.63,31.65A15.64,15.64,0,1,0,0,16,15.63,15.63,0,0,0,15.63,31.65Z" transform="translate(0 -0.37)"/><path d="M18.45,16.8l5.61,3.55V13.11Z" transform="translate(0 -0.37)"/><path d="M7.43,13.11v7.24L13,16.8Z" transform="translate(0 -0.37)"/><path d="M23,11H8.47a1,1,0,0,0-1,.88l8.28,5.46L24,11.88A1,1,0,0,0,23,11Zm-5.5,6.43-1.5,1a.51.51,0,0,1-.29.08.46.46,0,0,1-.28-.08L14,17.4,7.5,21.56a1,1,0,0,0,.34.62,1,1,0,0,0,.66.25H23a1,1,0,0,0,.66-.25,1,1,0,0,0,.34-.62Z" transform="translate(0 -0.37)"/></g></g></g></svg>