<svg xmlns="http://www.w3.org/2000/svg" xmlns:xlink="http://www.w3.org/1999/xlink" viewBox="0 0 31.26 31.28"><defs><style>.cls-1{fill:none;}.cls-2{clip-path:url(#clip-path);}.cls-3{fill:#b0935b;}.cls-4{fill-rule:evenodd;}</style><clipPath id="clip-path"><rect class="cls-1" width="31.27" height="31.29"/></clipPath></defs><g id="Layer_2" data-name="Layer 2"><g id="Layer_1-2" data-name="Layer 1"><g class="cls-2"><path class="cls-3" d="M15.63,31.28A15.64,15.64,0,1,0,0,15.64,15.63,15.63,0,0,0,15.63,31.28Z"/><path class="cls-4" d="M20,8.53H11.27a2.75,2.75,0,0,0-2.74,2.75V20a2.75,2.75,0,0,0,2.74,2.75H20A2.75,2.75,0,0,0,22.74,20V11.28A2.75,2.75,0,0,0,20,8.53Zm.79,1.64h.32v2.41H18.69v-2.4Zm-7.17,4a2.51,2.51,0,0,1,4.53,1.46,2.69,2.69,0,0,1-.26,1.15,2.63,2.63,0,0,1-.76.9,2.52,2.52,0,0,1-1.09.46,2.58,2.58,0,0,1-1.17-.09,2.58,2.58,0,0,1-1.62-1.62,2.58,2.58,0,0,1-.09-1.17,2.52,2.52,0,0,1,.46-1.09ZM21.36,20A1.37,1.37,0,0,1,20,21.37H11.27a1.5,1.5,0,0,1-.52-.1,1.37,1.37,0,0,1-.45-.3,1.51,1.51,0,0,1-.29-.45,1.3,1.3,0,0,1-.1-.52V14.18H12a4,4,0,0,0-.28,1.46A3.74,3.74,0,0,0,12,17.19a3.87,3.87,0,0,0,.83,1.33,3.93,3.93,0,0,0,1.28.89,3.84,3.84,0,0,0,3.07,0,3.93,3.93,0,0,0,1.28-.89,3.87,3.87,0,0,0,.83-1.33,3.74,3.74,0,0,0,.24-1.55,3.84,3.84,0,0,0-.29-1.46h2.13Z"/></g></g></g></svg>