<svg xmlns="http://www.w3.org/2000/svg" xmlns:xlink="http://www.w3.org/1999/xlink" viewBox="0 0 31.26 31.28"><defs><style>.cls-1{fill:none;}.cls-2{clip-path:url(#clip-path);}.cls-3{fill:#b0935b;}</style><clipPath id="clip-path" transform="translate(-0.23 -0.27)"><rect class="cls-1" width="31.49" height="31.55"/></clipPath></defs><g id="Layer_2" data-name="Layer 2"><g id="Layer_1-2" data-name="Layer 1"><g class="cls-2"><path class="cls-3" d="M15.86,31.55A15.64,15.64,0,1,0,.23,15.91,15.63,15.63,0,0,0,15.86,31.55Z" transform="translate(-0.23 -0.27)"/><path d="M20.45,15.89c-.47,1.33-.88,2.54-1.3,3.74-.2.59-.42,1.19-.61,1.79a1,1,0,0,1-2,0c-.86-2.42-1.74-4.83-2.59-7.25A.87.87,0,0,1,14.42,13a.83.83,0,0,1,1.17.65c.66,1.92,1.3,3.85,2,5.88.56-1.69,1.09-3.29,1.61-4.89.11-.33.23-.65.33-1a1.05,1.05,0,0,1,.36-.49,1,1,0,0,1,1.17,0,1.05,1.05,0,0,1,.36.49c.59,1.81,1.19,3.63,1.79,5.44a1.39,1.39,0,0,0,.15.39c.63-1.87,1.24-3.71,1.86-5.54.05-.15.09-.31.15-.46a.84.84,0,0,1,.44-.49,1,1,0,0,1,.33-.07.76.76,0,0,1,.33.05.86.86,0,0,1,.32.15.86.86,0,0,1,.3.63,1.06,1.06,0,0,1-.09.35c-.38,1.08-.77,2.15-1.16,3.22-.48,1.36-1,2.72-1.45,4.09a1.07,1.07,0,0,1-1.05.85c-.54,0-.8-.39-1-.87C21.72,19.6,21.11,17.82,20.45,15.89Z" transform="translate(-0.23 -0.27)"/><path d="M10.85,16.23c-.69,1-1.27,1.91-1.86,2.78S7.84,20,7.2,19,6,17.21,5.29,16.15v5.08a.8.8,0,0,1-.13.58.82.82,0,0,1-.49.34.77.77,0,0,1-.37,0A.84.84,0,0,1,4,22a.86.86,0,0,1-.3-.65V13.85a.8.8,0,0,1,.14-.54A.86.86,0,0,1,4.27,13,1.05,1.05,0,0,1,5,13a1,1,0,0,1,.52.46c.67,1,1.33,2.1,2,3.15.18.29.37.58.61.94.44-.67.84-1.28,1.24-1.91s.91-1.41,1.35-2.11a1,1,0,0,1,.52-.51,1,1,0,0,1,.73,0c.56.16.68.59.69,1.09V21c0,.74-.35,1.15-.91,1.14s-.87-.42-.87-1.17Z" transform="translate(-0.23 -0.27)"/><path d="M28.12,10.75a1.15,1.15,0,0,1-.35.82,1.36,1.36,0,0,1-.38.24,1.27,1.27,0,0,1-1.09-.15,1.1,1.1,0,0,1-.42-.53,1.18,1.18,0,0,1-.05-.67,1.19,1.19,0,0,1,.33-.59,1.17,1.17,0,0,1,.61-.3,1.19,1.19,0,0,1,.67.08,1.23,1.23,0,0,1,.51.45,1.13,1.13,0,0,1,.17.65Z" transform="translate(-0.23 -0.27)"/><path d="M21.61,10.75a1.12,1.12,0,0,1-.09.44,1,1,0,0,1-.26.38,1.36,1.36,0,0,1-.38.24,1.14,1.14,0,0,1-.45.06,1.2,1.2,0,0,1-.88-.32,1.05,1.05,0,0,1-.27-.39,1.27,1.27,0,0,1-.09-.47,1.12,1.12,0,0,1,.11-.47,1.33,1.33,0,0,1,.29-.38A1,1,0,0,1,20,9.61a1.53,1.53,0,0,1,.92,0,1.28,1.28,0,0,1,.38.26,1.33,1.33,0,0,1,.24.39A1.15,1.15,0,0,1,21.61,10.75Z" transform="translate(-0.23 -0.27)"/><path d="M15.1,10.75a1.15,1.15,0,0,1-.35.82,1.36,1.36,0,0,1-.38.24,1.27,1.27,0,0,1-1.09-.15,1.1,1.1,0,0,1-.42-.53,1.18,1.18,0,0,1,0-.67,1.19,1.19,0,0,1,.33-.59,1.17,1.17,0,0,1,.61-.3,1.19,1.19,0,0,1,.67.08,1.23,1.23,0,0,1,.51.45,1.13,1.13,0,0,1,.17.65Z" transform="translate(-0.23 -0.27)"/><path d="M9.34,10.75a1.2,1.2,0,0,1-.09.45,1.18,1.18,0,0,1-.26.37,1.41,1.41,0,0,1-.39.24,1.14,1.14,0,0,1-.45.06,1.22,1.22,0,0,1-.64-.21,1.15,1.15,0,0,1-.41-.54,1.1,1.1,0,0,1,0-.67,1.11,1.11,0,0,1,.34-.58,1,1,0,0,1,.6-.3,1.18,1.18,0,0,1,.67.08,1.23,1.23,0,0,1,.51.45A1.13,1.13,0,0,1,9.34,10.75Z" transform="translate(-0.23 -0.27)"/></g></g></g></svg>