<?xml version="1.0" encoding="UTF-8"?>
<svg width="215px" height="193px" viewBox="0 0 215 193" version="1.1" xmlns="http://www.w3.org/2000/svg" xmlns:xlink="http://www.w3.org/1999/xlink">
    <title>col1_expand-icon@1x</title>
    <defs>
        <linearGradient x1="50%" y1="-6.03102416%" x2="65.6989313%" y2="114.679697%" id="linearGradient-1">
            <stop stop-color="#2268C8" offset="0%"></stop>
            <stop stop-color="#3B8EDD" stop-opacity="0" offset="100%"></stop>
        </linearGradient>
        <linearGradient x1="3.1734406%" y1="47.426107%" x2="98.9467076%" y2="52.7750908%" id="linearGradient-2">
            <stop stop-color="#004383" stop-opacity="0" offset="0%"></stop>
            <stop stop-color="#003066" offset="44.4674086%"></stop>
            <stop stop-color="#00204C" stop-opacity="0.6" offset="75.5651181%"></stop>
            <stop stop-color="#00204C" stop-opacity="0" offset="100%"></stop>
        </linearGradient>
        <path d="M64.2964825,83.3248312 L64.2964825,81.0328312 L60.2780409,81.0328312 L60.2780409,67.8166234 L51.9732617,67.8166234 C52.0327941,67.3105974 52.1518591,66.7748052 52.270924,66.2092468 L63.5523266,66.2092468 L63.5523266,63.8577143 L52.6876513,63.8577143 C52.8067162,63.1730909 52.9257812,62.4884675 53.0448461,61.8038442 L50.1277552,61.5359481 C50.0682227,62.2205714 50.0086903,63.054026 49.8896253,63.8577143 L38.8761188,63.8577143 L38.8761188,66.2092468 L49.5621967,66.2092468 C49.4431318,66.7748052 49.3538331,67.3105974 49.2645344,67.8166234 L42.1801708,67.8166234 L42.1801708,81.0328312 L38.1021967,81.0328312 L38.1021967,83.3248312 L64.2964825,83.3248312 Z M57.5097812,71.2992727 L44.8293656,71.2992727 L44.8293656,69.6621299 L57.5097812,69.6621299 L57.5097812,71.2992727 Z M57.5097812,74.4247273 L44.8293656,74.4247273 L44.8293656,72.9959481 L57.5097812,72.9959481 L57.5097812,74.4247273 Z M57.5097812,77.5799481 L44.8293656,77.5799481 L44.8293656,76.0916364 L57.5097812,76.0916364 L57.5097812,77.5799481 Z M57.5097812,81.0328312 L44.8293656,81.0328312 L44.8293656,79.2766234 L57.5097812,79.2766234 L57.5097812,81.0328312 Z M62.2426123,88.8315844 L64.4750799,86.9563117 C62.331911,85.8847273 58.640898,84.4559481 55.3368461,83.4736623 L53.6104045,85.2894026 C56.8846903,86.3312208 60.2185084,87.7302338 62.2426123,88.8315844 Z M39.917937,88.8911169 C42.8350279,88.1171948 46.5260409,86.6586494 48.8180409,85.2001039 L46.4665084,83.6224935 C44.6210019,84.8131429 40.9895214,86.2419221 38.012898,86.9860779 C38.6082227,87.4921039 39.4714435,88.3850909 39.917937,88.8911169 Z M72.7543451,88.8018182 C79.481514,85.081039 82.6367347,79.0682597 84.1250464,73.4722078 C85.7026568,78.8003636 88.9471763,85.3489351 95.9422412,88.652987 C96.3292023,87.9088312 97.1626568,86.9265455 97.9663451,86.3014545 C87.5779295,81.6876883 85.7621893,69.810961 85.345462,66.0901818 C85.4942932,64.333974 85.5240594,62.7861299 85.5538256,61.655013 L82.3986049,61.655013 C82.3093062,66.4176104 82.6367347,80.2886753 70.4623451,86.5991169 C71.3850984,87.1944416 72.2780854,88.0874286 72.7543451,88.8018182 Z M121.545455,88.8613506 C123.510026,88.8613506 124.879273,88.8315844 125.802026,88.4148571 C126.724779,87.9981299 126.962909,87.253974 126.962909,85.9442597 L126.962909,80.1993766 L130.772987,80.1993766 L130.772987,77.699013 L126.962909,77.699013 L126.962909,75.7642078 C128.332156,74.6330909 129.701403,73.1447792 130.713455,71.7457662 L129.076312,70.5551169 L128.570286,70.7039481 L122.081247,70.7039481 C122.557506,69.8704935 122.944468,68.917974 123.331429,67.9356883 L130.743221,67.9356883 L130.743221,65.3162597 L124.164883,65.3162597 C124.462545,64.2744416 124.700675,63.1433247 124.909039,62.041974 L122.28961,61.6252468 C121.872883,63.9767792 121.218026,66.3580779 120.325039,68.2928831 L120.325039,66.1199481 L115.235013,66.1199481 L117.437714,65.1674286 C116.931688,64.0958442 115.919636,62.5777662 114.996883,61.4168831 L112.496519,62.4587013 C113.270442,63.5302857 114.222961,65.0781299 114.669455,66.1199481 L109.936623,66.1199481 L109.936623,68.7393766 L112.436987,68.7393766 L112.427213,69.1880204 L112.427213,69.1880204 L112.405461,70.0862214 C112.23241,76.674618 111.721331,83.2557988 108.210182,87.0456104 C108.865039,87.4623377 109.698494,88.2362597 110.115221,88.8315844 C113.091844,85.4977662 114.222961,80.497039 114.669455,75.0498182 L117.169818,75.0498182 C116.931688,82.4616104 116.663792,85.1703377 116.187532,85.7656623 C115.979169,86.1526234 115.741039,86.2121558 115.324312,86.2121558 C114.907584,86.2121558 113.984831,86.1823896 112.972779,86.0930909 C113.329974,86.8074805 113.568104,87.8492987 113.627636,88.5934545 C114.788519,88.6232208 115.949403,88.6232208 116.60426,88.5339221 C117.378182,88.4148571 117.884208,88.1767273 118.390234,87.4921039 C119.164156,86.4502857 119.402286,83.0867013 119.699948,73.6805714 C119.709107,73.5798242 119.715448,73.4339872 119.719837,73.2803463 L119.725067,73.0486927 C119.727723,72.8965692 119.728861,72.7552846 119.729348,72.6621246 L119.729714,72.5494545 L119.729714,72.5494545 L114.848052,72.5494545 C114.907584,71.2992727 114.937351,70.0193247 114.967117,68.7393766 L120.116675,68.7393766 C119.759481,69.424 119.372519,70.0193247 118.985558,70.5551169 C119.640416,70.8825455 120.831065,71.5374026 121.337091,71.9243636 L121.545455,71.5969351 L121.545455,73.115013 L126.427117,73.115013 C125.802026,73.8294026 125.028104,74.4842597 124.373247,74.9902857 L124.373247,77.699013 L120.205974,77.699013 L120.205974,80.1993766 L124.373247,80.1993766 L124.373247,85.9144935 C124.373247,86.2419221 124.283948,86.360987 123.867221,86.360987 C123.730646,86.3714927 123.479127,86.3782906 123.149305,86.3800718 L122.79474,86.3801324 C122.227812,86.3775696 121.512186,86.362738 120.771532,86.3312208 C121.069195,87.0456104 121.456156,88.1171948 121.545455,88.8613506 Z M109.01387,66.9831688 L110.680779,64.7804675 C109.638961,63.9767792 107.555325,62.6968312 106.037247,61.9229091 L104.42987,63.8577143 C105.947948,64.7507013 108.061351,66.1199481 109.01387,66.9831688 Z M108.120883,74.6628571 L109.72826,72.4303896 C108.626909,71.6267013 106.453974,70.4955844 104.90613,69.7514286 L103.328519,71.7755325 C104.90613,72.608987 107.079065,73.8591688 108.120883,74.6628571 Z M106.275377,88.4743896 C107.43626,85.6763636 108.716208,82.1044156 109.668727,78.978961 L107.406494,77.5799481 C106.334909,80.9732987 104.846597,84.7833766 103.775013,87.1051429 L106.275377,88.4743896 Z M163.668928,82.4616104 C163.103369,82.1937143 161.882954,81.4495584 161.317395,80.8542338 C161.109031,84.0094545 160.692304,85.5870649 159.977915,85.4977662 C158.727733,85.3191688 157.715681,84.1285195 156.882226,82.1341818 C159.084928,79.5445195 160.9602,76.5083636 162.15085,73.4722078 L159.918382,72.1624935 C158.995629,74.5735584 157.596616,76.9846234 155.899941,79.1575584 C155.393915,77.0441558 154.977187,74.5437922 154.679525,71.716 L163.311733,70.7039481 L162.954538,68.1738182 L154.441395,69.1858701 C154.262798,66.8343377 154.143733,64.333974 154.0842,61.7443117 L151.196876,61.7443117 C151.286174,64.4828052 151.435006,67.0724675 151.613603,69.4835325 L147.892824,69.930026 L148.250019,72.4601558 L151.851733,72.0434286 C152.238694,75.8237403 152.774486,79.098026 153.607941,81.7174545 C151.821967,83.5034286 149.797863,84.961974 147.68446,85.974026 C148.458382,86.4800519 149.321603,87.3432727 149.857395,88.0576623 C151.524304,87.1349091 153.161447,85.9144935 154.679525,84.4857143 C155.959473,87.1349091 157.715681,88.6827532 160.09698,88.9208831 C161.615057,89.0399481 162.954538,87.6409351 163.668928,82.4616104 Z M159.977915,67.4296623 L162.061551,65.732987 C161.19833,64.6018701 159.38259,62.934961 158.013343,61.7740779 L156.078538,63.2326234 C157.418019,64.4828052 159.174226,66.2687792 159.977915,67.4296623 Z M138.0402,86.7777143 C140.183369,85.081039 142.028876,82.8188052 143.57672,80.0207792 C144.648304,81.7174545 145.63059,83.2950649 146.255681,84.575013 L148.458382,82.6104416 C147.624928,81.1518961 146.374746,79.2170909 144.945967,77.192987 C146.374746,73.8294026 147.44633,69.8407273 148.011889,65.346026 L146.225915,64.7507013 L145.779421,64.8697662 L136.760252,64.8697662 L136.760252,67.3105974 L145.035265,67.3105974 C144.588772,69.8704935 143.904148,72.3410909 143.070694,74.5437922 C141.612148,72.5494545 140.123837,70.6146494 138.784356,68.8584416 L136.849551,70.4658182 C138.427161,72.5196883 140.183369,74.9902857 141.790746,77.3715844 C140.242902,80.4672727 138.248564,82.9378701 136.016096,84.5154805 C136.70072,85.0215065 137.593707,86.0633247 138.0402,86.7777143 Z" id="path-3"></path>
        <filter x="-7.2%" y="-29.1%" width="115.9%" height="172.7%" filterUnits="objectBoundingBox" id="filter-4">
            <feOffset dx="1" dy="2" in="SourceAlpha" result="shadowOffsetOuter1"></feOffset>
            <feGaussianBlur stdDeviation="3" in="shadowOffsetOuter1" result="shadowBlurOuter1"></feGaussianBlur>
            <feColorMatrix values="0 0 0 0 0   0 0 0 0 0   0 0 0 0 0  0 0 0 0.5 0" type="matrix" in="shadowBlurOuter1"></feColorMatrix>
        </filter>
        <linearGradient x1="0%" y1="102.058876%" x2="96.2146577%" y2="102.058876%" id="linearGradient-5">
            <stop stop-color="#89663D" stop-opacity="0" offset="0%"></stop>
            <stop stop-color="#AB8457" offset="33.8969624%"></stop>
            <stop stop-color="#B28B5D" offset="63.0111165%"></stop>
            <stop stop-color="#BF996C" stop-opacity="0" offset="100%"></stop>
            <stop stop-color="#89663D" stop-opacity="0" offset="100%"></stop>
        </linearGradient>
    </defs>
    <g id="col1_expand-icon" stroke="none" stroke-width="1" fill="none" fill-rule="evenodd">
        <g id="logo" transform="translate(5.000000, 2.000000)">
            <polygon id="Fill-7" fill="url(#linearGradient-1)" points="48.6181818 95.3703837 102.196774 190.742026 155.776623 95.3703837 102.196774 0"></polygon>
            <polygon id="Fill-7" fill="url(#linearGradient-1)" points="48.6181818 95.3703837 102.196774 190.742026 155.776623 95.3703837 102.196774 0"></polygon>
            <rect id="Rectangle" fill="url(#linearGradient-2)" x="17.8597403" y="56.626539" width="168.675325" height="39.7379221"></rect>
            <g id="真人游戏" fill-rule="nonzero">
                <use fill="black" fill-opacity="1" filter="url(#filter-4)" xlink:href="#path-3"></use>
                <use fill="#FFFFFF" xlink:href="#path-3"></use>
            </g>
            <line x1="18.3558442" y1="56.626539" x2="184.054545" y2="56.626539" id="Line-7-Copy" stroke="url(#linearGradient-5)" stroke-width="0.992207792" stroke-linecap="square"></line>
            <line x1="18.3558442" y1="97.3579091" x2="184.054545" y2="97.3579091" id="Line-7" stroke="url(#linearGradient-5)" stroke-width="0.992207792" stroke-linecap="square" transform="translate(101.205195, 97.357909) scale(-1, 1) translate(-101.205195, -97.357909) "></line>
        </g>
        <g id="Group-6" transform="translate(53.000000, 112.000000)" fill="#FFFFFF">
            <path d="M40.0482234,8.00377419 L46.3340279,8.00377419 L46.3340279,5.93958065 L40.0482234,5.93958065 L40.0482234,8.00377419 Z M31.6674742,4.48958065 L37.8426269,4.48958065 L37.8426269,2.32054839 L31.6674742,2.32054839 L31.6674742,4.48958065 Z M31.6674742,8.00377419 L37.8426269,8.00377419 L37.8426269,5.93958065 L31.6674742,5.93958065 L31.6674742,8.00377419 Z M40.0482234,4.48990323 L46.3340279,4.48990323 L46.3340279,2.32087097 L40.0482234,2.32087097 L40.0482234,4.48990323 Z M51.0215272,13.7582903 C50.9027867,13.8611935 50.7364853,13.8982903 50.5860376,13.8515161 C47.4437824,12.8724839 45.3747212,11.7447419 43.6680289,10.0815161 L43.3884872,9.80893548 L48.5108291,9.80893548 L48.5108291,1.50506452 C48.5108291,1.06280645 48.8544324,0.696354839 49.2999519,0.655064516 L49.2999519,0.490225806 L28.7808185,0.490225806 L28.7808185,0.666032258 C29.1878363,0.741193548 29.4906731,1.09603226 29.4906731,1.50506452 L29.4906731,9.81022581 L34.4758325,9.80893548 L34.1632894,10.0863548 C32.4533616,11.6053871 30.3561521,12.680871 27.1517766,13.6824839 C27.0087703,13.7282903 26.846675,13.7011935 26.7230814,13.6121613 L26.5619567,13.7160323 L28.1191719,16.0099032 L28.2809437,15.9057097 C28.2657371,15.8363548 28.2676784,15.7637742 28.2883852,15.6940968 C28.3262398,15.5679677 28.4187732,15.4676452 28.543014,15.4192581 C30.7321098,14.547 32.1392008,13.7202258 33.5783226,12.7473226 L33.6194126,12.7192581 L33.9290438,12.7192581 L33.9361618,12.8715161 C34.0891979,16.147 31.8480116,17.0695806 29.5388811,17.7334516 C29.3897275,17.7766774 29.2431623,17.7650645 29.1231276,17.6995806 L28.9726798,17.8237742 L30.7974656,19.9844194 L30.9534136,19.8553871 C30.9291478,19.7679677 30.9314126,19.6747419 30.9608551,19.5905484 C31.0022687,19.4705484 31.094155,19.380871 31.2128955,19.3450645 C33.986311,18.5299032 35.6952682,17.2699032 36.2232913,13.2411935 C36.254675,13.0011935 36.4115936,12.8089355 36.6267501,12.7434516 L36.6267501,12.5582903 L33.8539817,12.5582903 L34.2334983,12.2728065 C35.1659509,11.5702258 36.0252826,10.7605484 36.7872277,9.86570968 L36.8364064,9.80893548 L41.05865,9.80893548 L41.1075051,9.87119355 C41.7927703,10.7505484 42.5831873,11.5447419 43.5230814,12.2986129 L43.8754203,12.5815161 L41.6429697,12.5815161 L41.6429697,12.760871 C41.8992162,12.8260323 42.0752239,13.0424839 42.0752239,13.2982903 L42.0752239,18.8811935 C42.0752239,19.2647419 41.778858,19.5834516 41.3941647,19.6224839 L41.3941647,19.7889355 L44.9877631,19.7889355 L44.9877631,19.6095806 C44.6389831,19.5357097 44.3895311,19.2347419 44.3895311,18.8811935 L44.3895311,12.9392581 L44.6435128,13.1124839 C46.2227289,14.1899032 47.5913182,14.8986129 49.5251382,15.6405484 C49.6448493,15.6866774 49.7399711,15.7805484 49.7855908,15.8986129 C49.8108272,15.9634516 49.8205335,16.033129 49.813092,16.1021613 L49.9874819,16.1882903 L51.1968878,13.8447419 L51.0215272,13.7582903 Z" id="Fill-1"></path>
            <path d="M12.3846009,12.4815161 L16.9255349,12.4815161 L16.9255349,7.57377419 L12.3846009,7.57377419 L12.3846009,12.4815161 Z M22.8975022,7.93603226 L23.0848339,7.93603226 L23.0848339,5.20829032 L22.8949138,5.20829032 C22.8247049,5.41925806 22.6244314,5.56377419 22.3966567,5.56377419 L19.1573385,5.56377419 L19.1573385,1.45345161 C19.1573385,1.06409677 19.4449687,0.730548387 19.8316033,0.663451613 L19.8316033,0.489258065 L16.2380048,0.489258065 L16.2380048,0.66183871 C16.6317573,0.724096774 16.9242407,1.05829032 16.9242407,1.45345161 L16.9242407,5.56377419 L12.3846009,5.56377419 L12.3846009,1.45345161 C12.3846009,1.07409677 12.6641425,0.74216129 13.0404237,0.667322581 L13.0404237,0.489258065 L9.47400289,0.489258065 L9.47400289,0.665709677 C9.8684025,0.737322581 10.1511796,1.06345161 10.1511796,1.45345161 L10.1511796,5.56377419 L4.88227251,5.56377419 L4.88227251,1.69248387 C4.88227251,1.25377419 5.24334714,0.896032258 5.68919018,0.890870968 L5.68919018,0.729580645 L1.82575638,0.729580645 L1.82575638,0.897 C2.22856813,0.947967742 2.53916996,1.29054839 2.53916996,1.69248387 L2.53916996,5.56377419 L0.689471353,5.56377419 C0.461049591,5.56377419 0.260129032,5.41925806 0.189920077,5.20829032 L0,5.20829032 L0,7.93603226 L0.187331728,7.93603226 C0.255275879,7.72119355 0.457167068,7.57377419 0.689471353,7.57377419 L2.53916996,7.57377419 L2.53916996,19.4211935 L21.4221435,19.4211935 C21.6648012,19.4211935 21.8767222,19.5760323 21.9475782,19.8018387 L22.1514107,19.8018387 L22.1514107,16.8395806 L21.9576081,16.8395806 C21.9019586,17.0811935 21.6774194,17.2592581 21.4221435,17.2592581 L4.88227251,17.2592581 L4.88227251,7.57377419 L10.1511796,7.57377419 L10.1511796,14.517 L19.1573385,14.517 L19.1573385,7.57377419 L22.3966567,7.57377419 C22.6279904,7.57377419 22.829558,7.72119355 22.8975022,7.93603226 L22.8975022,7.93603226 Z" id="Fill-3"></path>
            <path d="M67.8095561,5.1353871 L75.1484949,5.1353871 L75.1484949,2.42441935 L67.8095561,2.42441935 L67.8095561,5.1353871 Z M77.7129013,6.72216129 C77.3194723,6.70764516 76.9509562,6.69280645 76.6076765,6.67796774 C76.2634261,6.66377419 75.865791,6.64893548 75.4134771,6.63377419 C74.9614868,6.61958065 74.4117862,6.61183871 73.7634049,6.61183871 L71.8768223,6.61183871 C70.3047241,6.61183871 69.0183149,6.62312903 68.0159769,6.64474194 C67.0136389,6.667 66.1293943,6.69280645 65.3632431,6.72216129 C65.4023919,6.34022581 65.4366875,5.87022581 65.46613,5.31151613 C65.495896,4.75345161 65.510779,4.20958065 65.510779,3.68054839 C65.510779,3.16635484 65.495896,2.64119355 65.46613,2.10474194 C65.4366875,1.5686129 65.4023919,1.11667742 65.3632431,0.749258065 C65.7563486,0.778935484 66.1245412,0.804419355 66.468468,0.826354839 C66.8120713,0.848612903 67.2100299,0.867 67.6620202,0.881516129 C68.1140106,0.896354839 68.6692114,0.903451613 69.3276225,0.903451613 L71.8768223,0.903451613 L73.7485219,0.903451613 C74.3865498,0.903451613 74.9320443,0.896354839 75.3840347,0.881516129 C75.8363486,0.867 76.2339836,0.848612903 76.5779104,0.826354839 C76.9215137,0.804419355 77.3000597,0.778935484 77.7129013,0.749258065 C77.673429,1.11667742 77.6391334,1.5686129 77.6093674,2.10474194 C77.5802484,2.64119355 77.565689,3.16635484 77.565689,3.68054839 C77.565689,4.22441935 77.5802484,4.78248387 77.6093674,5.35570968 C77.6391334,5.9286129 77.673429,6.38409677 77.7129013,6.72216129 L77.7129013,6.72216129 Z M69.4305094,12.9811935 C68.2515166,12.9811935 67.1805874,12.9960323 66.2180453,13.0253871 C65.2551796,13.0550645 64.4298199,13.0915161 63.7419663,13.1357097 L63.7419663,11.3505484 C64.4495561,11.3944194 65.3189177,11.4311935 66.3503746,11.4605484 C67.382155,11.4902258 68.5265286,11.5047419 69.7844661,11.5047419 C69.8624401,11.1521613 69.9171189,10.8179677 69.9465614,10.5018387 C69.9760039,10.1860323 70.0002696,9.88119355 70.0200058,9.58732258 C68.9591064,9.60183871 68.005947,9.62022581 67.1608512,9.64216129 C66.3157554,9.66441935 65.5987829,9.69732258 65.00961,9.74151613 L65.00961,7.95635484 C65.3632431,7.98603226 65.7265826,8.01119355 66.0999519,8.03345161 C66.4729976,8.0553871 66.9052518,8.07022581 67.397038,8.07732258 C67.8875301,8.08506452 68.4527607,8.09216129 69.0917593,8.09958065 C69.7297872,8.10732258 70.5111449,8.11054839 71.4345383,8.11054839 C72.4960847,8.11054839 73.3948888,8.10732258 74.1315975,8.09958065 C74.8686298,8.09216129 75.5024516,8.08506452 76.0327395,8.07732258 C76.563351,8.07022581 77.0201945,8.0553871 77.4032701,8.03345161 C77.7863457,8.01119355 78.1645681,7.98603226 78.5379374,7.95635484 L78.5379374,9.74151613 C77.8698199,9.69732258 76.975869,9.66087097 75.8557612,9.63119355 C74.7356533,9.60183871 73.5666904,9.58732258 72.3485489,9.58732258 C72.3090766,9.96958065 72.2647511,10.3111935 72.215896,10.6121613 C72.1667174,10.9134516 72.1126856,11.210871 72.0538007,11.5047419 C73.0755513,11.5047419 73.9843852,11.5011935 74.7799788,11.4937742 C75.575896,11.4863548 76.2831623,11.4792581 76.9024247,11.4715161 C77.5213635,11.4644194 78.071064,11.4495806 78.5524969,11.4276452 C79.0342532,11.4053871 79.4810669,11.3799032 79.8939085,11.3505484 L79.8939085,13.1357097 C79.1468464,13.0915161 78.1351257,13.0550645 76.8580992,13.0253871 C75.5807492,12.9960323 74.2244545,12.9811935 72.7908329,12.9811935 C73.2421762,13.613129 73.7139027,14.157 74.2053654,14.6124839 C74.696181,15.0679677 75.2368223,15.4573226 75.8266423,15.7802258 C76.4158151,16.1037742 77.0739027,16.3721613 77.8012287,16.5847419 C78.5279076,16.7979677 79.3632971,16.9782903 80.3064266,17.1247419 C80.1491844,17.2866774 80.0068252,17.4624839 79.8790255,17.6537742 C79.7509023,17.8444194 79.6331324,18.0428065 79.5253924,18.2489355 C79.4170053,18.4544194 79.3235012,18.6528065 79.2452037,18.8437742 C79.1669061,19.0347419 79.1174039,19.2037742 79.0979913,19.350871 C78.037092,19.0566774 77.1036688,18.7224839 76.2980453,18.3479677 C75.4917747,17.9734516 74.784832,17.5434516 74.175923,17.0586129 C73.5666904,16.5737742 73.0457853,16.0305484 72.6135311,15.4276452 C72.1812768,14.8253871 71.8079076,14.157 71.4937468,13.4221613 C71.2381473,14.113129 70.9042504,14.7444194 70.4917323,15.3176452 C70.0788907,15.8905484 69.5631623,16.423129 68.9442234,16.9153871 C68.3252845,17.4079677 67.5782224,17.8666774 66.7040077,18.2928065 C65.829793,18.7189355 64.8128955,19.1305484 63.6539624,19.527 C63.5549581,19.277 63.368597,19.0015161 63.093585,18.7005484 C62.8182494,18.3992581 62.45491,18.1237742 62.0029196,17.8740968 C64.2233991,17.3747419 65.9181204,16.7247419 67.0874068,15.9237742 C68.2560462,15.123129 69.0374039,14.1421613 69.4305094,12.9811935 L69.4305094,12.9811935 Z M58.6726856,6.34764516 C58.534856,7.05280645 58.3779374,7.83893548 58.2009591,8.70570968 C58.0239807,9.57280645 57.8275898,10.557 57.6117862,11.6589355 C57.9654194,11.820871 58.3086991,11.9821613 58.6432431,12.1437742 C58.9768166,12.3057097 59.3110371,12.4673226 59.6452576,12.6286129 C59.9988907,11.820871 60.2981685,10.9060323 60.5443852,9.88474194 C60.7896312,8.86345161 60.9908753,7.68474194 61.148441,6.34764516 L58.6726856,6.34764516 Z M56.874754,4.80474194 C56.9727877,4.01119355 57.0413789,3.18119355 57.0811748,2.31409677 C57.1203235,1.44732258 57.1297063,0.676032258 57.1106172,-9.67741935e-05 C57.5820202,0.13216129 58.0731594,0.227967742 58.5843582,0.286354839 C59.09491,0.345387097 59.5863727,0.367322581 60.0577756,0.352483871 C60.3919961,0.338290323 60.5589446,0.367322581 60.5589446,0.440870968 C60.5589446,0.514419355 60.4211151,0.653774194 60.1464266,0.859580645 C60.0872181,0.903451613 60.0331863,0.977322581 59.9843312,1.07990323 C59.9348291,1.18280645 59.8662378,1.37409677 59.7779104,1.65280645 C59.6895831,1.93216129 59.581196,2.32183871 59.4537198,2.82119355 C59.3259201,3.32087097 59.1738546,3.98183871 58.9968763,4.80474194 C59.7041425,4.80474194 60.3033452,4.80119355 60.7948079,4.79377419 C61.2856235,4.78635484 61.7033182,4.77925806 62.0475686,4.77151613 C62.3908483,4.76441935 62.6758902,4.74958065 62.9020472,4.72764516 C63.1278806,4.7053871 63.3391545,4.67990323 63.5355455,4.65022581 C63.3783033,5.97248387 63.231091,7.10764516 63.093585,8.0553871 C62.956079,9.00312903 62.8137198,9.8186129 62.6661839,10.5018387 C62.5189716,11.1850645 62.3614059,11.7692581 62.1947809,12.2540968 C62.0275089,12.7389355 61.8359711,13.1873226 61.619844,13.5986129 C62.2096639,13.8924839 62.7593645,14.1640968 63.2705633,14.4137742 C63.7811151,14.6640968 64.2434588,14.8915161 64.6556533,15.0973226 C64.2822841,15.347 63.9677997,15.5966774 63.7128474,15.8463548 C63.457248,16.0966774 63.2016485,16.3973226 62.9463727,16.7502258 C62.6121521,16.4711935 62.2633722,16.2028065 61.9000327,15.9453871 C61.5363698,15.6889355 61.1086452,15.4134516 60.6181531,15.1189355 C59.9497121,16.0305484 59.2767415,16.8382903 58.5989177,17.5434516 C57.9210939,18.2489355 57.2086509,18.9099032 56.4619124,19.527 C55.9507135,18.9834516 55.1065883,18.5647419 53.927272,18.270871 C55.007584,17.6979677 55.9507135,17.0882903 56.7566606,16.4415161 C57.5622841,15.7953871 58.2494906,15.0311935 58.8198979,14.1495806 C58.3086991,13.8999032 57.7489687,13.6279677 57.1400597,13.3340968 C56.5308272,13.0402258 55.8332672,12.7244194 55.0473799,12.3863548 C55.4201021,11.3282903 55.7252037,10.3111935 55.9607434,9.33377419 C56.1969302,8.357 56.4224401,7.36119355 56.6392143,6.34764516 C56.0296582,6.36216129 55.5284892,6.38054839 55.1357073,6.40248387 C54.7426018,6.42441935 54.3498199,6.46506452 53.9567145,6.52345161 L53.9567145,4.65022581 C54.2906115,4.69441935 54.6639807,4.72764516 55.0768223,4.74958065 C55.4893404,4.77151613 56.0888666,4.79022581 56.874754,4.80474194 L56.874754,4.80474194 Z" id="Fill-4"></path>
            <path d="M105.891735,17.9402581 C105.203881,17.1325161 104.344549,16.2870323 103.312769,15.4057419 C102.281312,14.524129 101.195176,13.6863871 100.055979,12.8931613 L101.677256,11.6370323 C102.718419,12.2983226 103.828497,13.044129 105.00749,13.874129 C106.186483,14.704129 107.306267,15.5157419 108.36749,16.3092903 L105.891735,17.9402581 Z M95.3982459,9.78541935 C93.5902844,9.78541935 92.7785136,9.80412903 91.6687592,9.84058065 C90.5580341,9.87735484 89.6543769,9.92896774 88.9568169,9.99509677 C88.259257,10.0612258 87.7189392,10.1457419 87.3358636,10.2483226 C86.9527881,10.3512258 86.5939782,10.4689677 86.2604048,10.6012258 C86.161724,10.278 86.0287476,9.95090323 85.8624462,9.62025806 C85.6948506,9.2896129 85.5233726,8.9996129 85.3463942,8.7496129 C85.6214063,8.6763871 85.8375334,8.49993548 85.9950991,8.22090323 C86.1520177,7.94187097 86.2604048,7.64767742 86.3189662,7.33929032 C86.5742421,5.97251613 86.7492792,4.55187097 86.8181939,3.67025806 C86.8867852,2.78864516 86.9113745,2.06896774 86.8919619,1.51025806 C88.2278733,1.56896774 89.7604992,1.57316129 91.4898396,1.52154839 C93.2188564,1.46993548 94.2914034,1.378 96.0006841,1.24606452 C97.7102883,1.11348387 98.9682257,0.952193548 100.422554,0.761225806 C101.876559,0.570258065 102.996343,0.364451613 103.782231,0.144129032 C103.959209,0.570258065 104.180513,0.970580645 104.445495,1.34509677 C104.711124,1.7196129 104.980959,2.00283871 105.255971,2.19380645 C105.43295,2.34058065 105.492158,2.45477419 105.43295,2.53509677 C105.374065,2.61606452 105.255971,2.64187097 105.079317,2.61219355 C104.922075,2.59767742 104.499527,2.59412903 103.811997,2.60122581 C103.123819,2.60896774 102.117275,2.63445161 100.790747,2.67832258 C99.4645416,2.72251613 98.1079234,2.78864516 96.0741285,2.87670968 C94.0406571,2.96509677 92.2462844,3.08251613 89.3974833,3.22929032 L88.7950452,8.24283871 L95.3982459,8.24283871 C95.3982459,7.66993548 95.3933928,7.16670968 95.3833629,6.73316129 C95.3733331,6.29993548 95.354244,5.91735484 95.3248015,5.58703226 C95.2953591,5.2563871 95.2507101,4.96283871 95.1924722,4.70541935 C95.1332637,4.44864516 95.0640254,4.19509677 94.9857279,3.94509677 C96.2433417,4.12154839 97.2647688,4.2096129 98.0509797,4.2096129 C98.4832339,4.19509677 98.729127,4.2463871 98.7876884,4.36380645 C98.8468969,4.48154839 98.7485396,4.59896774 98.4932637,4.7163871 C98.1787794,4.83445161 98.0215372,5.06187097 98.0215372,5.3996129 L98.0215372,8.24283871 C99.1416451,8.24283871 99.8298222,8.23574194 100.733803,8.22090323 C101.63746,8.2063871 102.46282,8.18767742 103.209882,8.16574194 C103.956297,8.14348387 104.643827,8.11445161 105.272796,8.07735484 C105.901441,8.04090323 106.500644,8.00058065 107.070727,7.9563871 L107.070727,10.0060645 C106.52038,9.97670968 105.950943,9.94735484 105.361123,9.91767742 C104.771627,9.88864516 104.108686,9.8663871 103.371654,9.85154839 C102.634945,9.83703226 101.804409,9.82251613 100.881339,9.80767742 C99.9572984,9.79316129 99.2199426,9.78541935 98.0215372,9.78541935 L98.0215372,17.2570323 C98.0215372,17.7270323 97.9920948,18.098 97.9332098,18.3699355 C97.8743249,18.641871 97.6873167,18.8660645 97.3731559,19.0421935 C97.058348,19.2186452 96.5820919,19.3650968 95.9437404,19.4831613 C95.3050654,19.6005806 94.4156441,19.7328387 93.2764472,19.8796129 C93.1586773,19.4092903 92.9765223,18.9905806 92.7309527,18.6234839 C92.4850596,18.2560645 92.1366032,17.8960645 91.6846128,17.5434839 C92.5290615,17.5728387 93.2026792,17.5838065 93.7035247,17.5767097 C94.2046937,17.5689677 94.5777394,17.5286452 94.8236325,17.4554194 C95.0692021,17.3821935 95.2261208,17.2644516 95.2953591,17.1028387 C95.3636268,16.9412258 95.3982459,16.728 95.3982459,16.4634839 L95.3982459,9.78541935 Z M92.7147755,12.6947742 C93.0098473,12.7686452 93.1570596,12.8638065 93.1570596,12.9812258 C93.1570596,13.0992903 92.9804048,13.201871 92.6264481,13.2899355 C92.4889421,13.3196129 92.3171405,13.4150968 92.1107197,13.5763871 C91.9046224,13.7383226 91.6046975,14.0028387 91.2119156,14.3699355 C90.7793379,14.7960645 90.1403393,15.3654194 89.2962142,16.078 C88.4511183,16.7909032 87.4879291,17.5799355 86.4076171,18.4470323 C85.71944,18.0209032 84.8649614,17.6683226 83.8435343,17.3892903 C85.1399734,16.6547742 86.358115,15.7802581 87.497959,14.7667097 C88.6374794,13.7528387 89.5511665,12.7170323 90.2393437,11.6589677 C90.5732406,11.8502581 90.9708757,12.0447742 91.4332195,12.2431613 C91.894269,12.4415484 92.3219936,12.5921935 92.7147755,12.6947742 L92.7147755,12.6947742 Z" id="Fill-5"></path>
        </g>
    </g>
</svg>