<svg width="121" height="60" viewBox="0 0 121 60" fill="none" xmlns="http://www.w3.org/2000/svg">
<path d="M47.9145 28.5559H45.6545V27.6059H47.9145V28.5559ZM47.9145 30.0759H45.6545V29.1059H47.9145V30.0759ZM47.9145 31.6059H45.6545V30.6359H47.9145V31.6059ZM45.0345 27.0159V32.1959H48.5545V27.0159H46.8945C46.9645 26.7259 47.0245 26.4059 47.1045 26.0859H48.7445V25.4459H44.7445V26.0859H46.3545C46.3245 26.3859 46.2745 26.7259 46.2245 27.0159H45.0345ZM40.1645 34.0559C40.6045 33.6159 40.8145 32.8859 40.9345 32.2359L40.3945 32.0559C40.2745 32.6659 40.0445 33.3559 39.6545 33.7459L40.1645 34.0559ZM41.3245 32.2559C41.4245 32.7559 41.5045 33.4159 41.5145 33.8559L42.0645 33.7659C42.0445 33.3359 41.9545 32.6859 41.8345 32.1759L41.3245 32.2559ZM41.4445 30.5359C41.5145 30.7059 41.5845 30.8859 41.6545 31.0759L40.9045 31.1059C41.2845 30.6459 41.6945 30.0659 42.0545 29.5459C42.3945 29.8059 42.7745 30.1559 43.0245 30.4359C42.8345 30.6959 42.6445 30.9459 42.4645 31.1459L42.2345 31.1559L42.2745 31.4659C42.1845 31.1259 42.0345 30.7159 41.8645 30.3759L41.4445 30.5359ZM41.2945 28.3759H43.0145C42.8945 28.6559 42.7345 28.9959 42.5745 29.2859C42.4845 29.2259 42.4045 29.1659 42.3245 29.1059L42.2145 29.2659L41.6845 29.0359C41.5345 29.3059 41.3345 29.6359 41.1145 29.9759C41.0145 29.8559 40.8845 29.7359 40.7345 29.6059C40.9545 29.2659 41.2045 28.8259 41.4345 28.4259L41.2945 28.3759ZM40.8645 27.1459H43.6745V27.8659H40.8645V27.1459ZM40.8645 25.9559H43.6745V26.6559H40.8645V25.9559ZM44.7445 31.7259C44.6445 31.3459 44.3945 30.7659 44.1245 30.3359L43.6845 30.5259C43.7845 30.6959 43.8745 30.8859 43.9645 31.0759L43.0845 31.1159C43.5445 30.5759 44.0545 29.8659 44.4745 29.2659L43.9345 29.0159C43.7745 29.2959 43.5745 29.6359 43.3445 29.9759C43.2345 29.8559 43.1045 29.7259 42.9545 29.5959C43.1845 29.2659 43.4245 28.8259 43.6445 28.4259L43.5045 28.3759H44.3345V25.4459H40.2245V28.3759H40.7945C40.6745 28.6559 40.5145 28.9959 40.3445 29.2859C40.2645 29.2159 40.1745 29.1559 40.0845 29.0959L39.7845 29.5059C40.1445 29.7759 40.5445 30.1459 40.8045 30.4459C40.6245 30.6959 40.4445 30.9359 40.2845 31.1359C40.0945 31.1359 39.9145 31.1459 39.7545 31.1459L39.8045 31.7159C40.4045 31.6759 41.0845 31.6459 41.8145 31.5859C41.8445 31.6959 41.8645 31.7959 41.8845 31.8859L42.3145 31.7159V31.7259C42.8745 31.6759 43.4945 31.6359 44.1645 31.5759C44.2145 31.7059 44.2445 31.8259 44.2745 31.9359L44.7445 31.7259ZM42.3645 32.1759C42.5445 32.6359 42.7245 33.2359 42.7845 33.6159L43.3045 33.4859C43.2345 33.0959 43.0445 32.5059 42.8445 32.0559L42.3645 32.1759ZM43.3545 32.0359C43.6045 32.4259 43.8945 32.9259 44.0245 33.2559L44.5045 33.0359C44.3745 32.7159 44.0745 32.2259 43.8145 31.8559L43.3545 32.0359ZM45.9045 32.4559C45.5545 32.8659 44.8645 33.3759 44.2545 33.6559C44.4145 33.7859 44.6245 33.9859 44.7345 34.1159C45.3445 33.8159 46.0645 33.2959 46.5245 32.8059L45.9045 32.4559ZM47.1245 32.8159C47.5945 33.2059 48.1545 33.7559 48.4345 34.1159L48.9945 33.7359C48.7045 33.3759 48.1345 32.8459 47.6645 32.4759L47.1245 32.8159ZM58.8145 25.7159H51.8345V26.4459H58.8145V25.7159ZM52.6845 29.8259C52.2445 30.9559 51.5245 32.0459 50.7045 32.7459C50.8945 32.8459 51.2345 33.0759 51.3745 33.1959C52.1745 32.4359 52.9545 31.2459 53.4445 30.0259L52.6845 29.8259ZM57.1345 30.1159C57.8645 31.0859 58.6045 32.3759 58.8845 33.1959L59.6145 32.8759C59.3245 32.0359 58.5445 30.7659 57.8145 29.8359L57.1345 30.1159ZM50.9445 28.1259V28.8559H54.9345V33.1159C54.9345 33.2759 54.8745 33.3259 54.6845 33.3259C54.5045 33.3359 53.8545 33.3359 53.1745 33.3159C53.2845 33.5359 53.4045 33.8659 53.4445 34.0859C54.3145 34.0859 54.9045 34.0759 55.2545 33.9559C55.6045 33.8359 55.7245 33.6059 55.7245 33.1359V28.8559H59.6945V28.1259H50.9445ZM65.8645 24.9559C65.0945 26.2459 63.4345 27.8259 61.7245 28.7659C61.8845 28.9259 62.0945 29.1859 62.1845 29.3559C63.8645 28.3759 65.4745 26.8959 66.2745 25.6859C67.1745 26.9459 68.9245 28.4159 70.4545 29.3059C70.5745 29.0959 70.7545 28.8359 70.9445 28.6459C69.3845 27.8759 67.6445 26.4159 66.6045 24.9559H65.8645ZM66.6645 31.5159H69.6945V30.8559H66.6645V29.2959H69.3145V28.6259H63.3745V29.2959H65.9045V30.8559H62.9245V31.5159H65.9045V33.1459H62.1145V33.8259H70.5645V33.1459H66.6645V31.5159ZM77.7645 26.0759H75.7345V25.0059H75.0245V26.0759H73.0245V26.7259H77.7645V26.0759ZM76.5345 28.7259C76.7445 28.2859 76.9845 27.6259 77.1945 27.0459L76.4945 26.8759C76.3745 27.3759 76.1245 28.1159 75.9345 28.5759L76.5345 28.7259ZM74.7145 28.5459C74.6645 28.1159 74.4845 27.4359 74.2545 26.9459L73.6345 27.0759C73.8445 27.5859 74.0245 28.2559 74.0745 28.6959L74.7145 28.5459ZM76.6245 31.0259V32.8659H74.1245V31.0259H76.6245ZM73.4345 34.1059H74.1245V33.5159H76.6245V34.0459H77.3445V30.3659H73.4345V34.1059ZM72.7645 29.4959H77.9045V28.8159H72.7645V29.4959ZM81.3645 25.5259L81.2445 25.5559H78.3045V34.0959H79.0245V26.2559H80.9145C80.6045 27.0559 80.1645 28.1359 79.7545 28.9759C80.7645 29.8459 81.0445 30.5859 81.0445 31.2159C81.0445 31.5759 80.9845 31.8759 80.7745 32.0059C80.6545 32.0759 80.4945 32.1059 80.3445 32.1159C80.1345 32.1259 79.8645 32.1259 79.5545 32.0959C79.6845 32.3059 79.7545 32.6259 79.7645 32.8359C80.0545 32.8459 80.3845 32.8459 80.6345 32.8159C80.8945 32.7859 81.1045 32.7159 81.2845 32.5959C81.6345 32.3659 81.7745 31.9059 81.7745 31.2959C81.7645 30.5859 81.5145 29.7959 80.5145 28.8759C80.9845 27.9659 81.4945 26.8159 81.9045 25.8759L81.3645 25.5259Z" fill="white"/>
<rect x="120.814" y="45.5703" width="120" height="1" transform="rotate(-180 120.814 45.5703)" fill="url(#paint0_linear)"/>
<path d="M67.8145 45.0867L61.5359 51.3653L55.2572 45.0867" stroke="#B0936D"/>
<path d="M74.8145 45L60.8145 59L46.8145 45" stroke="#B0936D"/>
<rect x="0.814453" y="14.4297" width="120" height="1" fill="url(#paint1_linear)"/>
<path d="M54.8145 14.9133L61.0931 8.63473L67.3717 14.9133" stroke="#B0936D"/>
<path d="M46.8145 15L60.8145 1L74.8145 15" stroke="#B0936D"/>
<defs>
<linearGradient id="paint0_linear" x1="124.414" y1="46.5702" x2="240.814" y2="46.5702" gradientUnits="userSpaceOnUse">
<stop stop-color="#B0936D" stop-opacity="0"/>
<stop offset="0.348958" stop-color="#B0936D"/>
<stop offset="0.65625" stop-color="#B0936D"/>
<stop offset="1" stop-color="#B0936D" stop-opacity="0"/>
</linearGradient>
<linearGradient id="paint1_linear" x1="4.41445" y1="15.4296" x2="120.814" y2="15.4296" gradientUnits="userSpaceOnUse">
<stop stop-color="#B0936D" stop-opacity="0"/>
<stop offset="0.348958" stop-color="#B0936D"/>
<stop offset="0.65625" stop-color="#B0936D"/>
<stop offset="1" stop-color="#B0936D" stop-opacity="0"/>
</linearGradient>
</defs>
</svg>
