<?xml version="1.0" encoding="UTF-8"?>
<svg width="56px" height="59px" viewBox="0 0 56 59" version="1.1" xmlns="http://www.w3.org/2000/svg" xmlns:xlink="http://www.w3.org/1999/xlink">
    <title>favicon</title>
    <defs>
        <polygon id="path-1" points="0.965 0.667 2.657 0.667 2.657 2.412 0.965 2.412"></polygon>
    </defs>
    <g id="Page-1" stroke="none" stroke-width="1" fill="none" fill-rule="evenodd">
        <g id="favicon">
            <path d="M22.9298,38.9315 L20.6001698,32.9485861 L16.9898,23.6765 L19.8388,23.6765 L19.8388,23.8215 L19.6078,24.0605 C19.5678,24.1035 19.5368,24.1545 19.5168,24.2155 C19.4978,24.2795 19.4868,24.3515 19.4868,24.4355 C19.4868,24.5035 19.4918,24.5705 19.5018,24.6315 C19.5128,24.6945 19.5278,24.7565 19.5468,24.8205 L23.0898,33.9325 L27.8528,23.4155 L32.6348,33.7575 L36.0378,24.8305 C36.0568,24.7675 36.0738,24.7035 36.0828,24.6375 C36.0928,24.5725 36.0978,24.5035 36.0978,24.4355 C36.0978,24.3515 36.0888,24.2795 36.0678,24.2155 C36.0478,24.1545 36.0178,24.1035 35.9778,24.0605 L35.7568,23.8215 L35.7568,23.6765 L38.5548,23.6765 L32.7448,38.9315 L27.8128,27.8645 L22.9298,38.9315 Z" id="Path" fill="#B0936D"></path>
            <g id="Clipped" transform="translate(0.000000, 0.333000)">
                <mask id="mask-2" fill="white">
                    <use xlink:href="#path-1"></use>
                </mask>
                <g id="Path"></g>
            </g>
            <path d="M38.274,5.7 C38.274,6.182 37.896,6.573 37.428,6.573 C36.961,6.573 36.583,6.182 36.583,5.7 C36.583,5.218 36.961,4.828 37.428,4.828 C37.896,4.828 38.274,5.218 38.274,5.7 M47.6852,10.0408 C47.6852,10.5228 47.3062,10.9138 46.8392,10.9138 C46.3722,10.9138 45.9932,10.5228 45.9932,10.0408 C45.9932,9.5598 46.3722,9.1688 46.8392,9.1688 C47.3062,9.1688 47.6852,9.5598 47.6852,10.0408 M51.8634,19.7674 C51.8634,20.2494 51.4854,20.6404 51.0174,20.6404 C50.5504,20.6404 50.1714,20.2494 50.1714,19.7674 C50.1714,19.2864 50.5504,18.8954 51.0174,18.8954 C51.4854,18.8954 51.8634,19.2864 51.8634,19.7674 M55.544,29.7059 C55.544,30.1879 55.166,30.5779 54.698,30.5779 C54.231,30.5779 53.853,30.1879 53.853,29.7059 C53.853,29.2239 54.231,28.8339 54.698,28.8339 C55.166,28.8339 55.544,29.2239 55.544,29.7059 M51.836,39.6336 C51.836,40.1156 51.457,40.5056 50.99,40.5056 C50.523,40.5056 50.144,40.1156 50.144,39.6336 C50.144,39.1516 50.523,38.7606 50.99,38.7606 C51.457,38.7606 51.836,39.1516 51.836,39.6336 M47.6305,49.3475 C47.6305,49.8295 47.2515,50.2205 46.7845,50.2205 C46.3175,50.2205 45.9385,49.8295 45.9385,49.3475 C45.9385,48.8665 46.3175,48.4755 46.7845,48.4755 C47.2515,48.4755 47.6305,48.8665 47.6305,49.3475 M38.2076,53.661 C38.2076,54.142 37.8286,54.533 37.3616,54.533 C36.8946,54.533 36.5156,54.142 36.5156,53.661 C36.5156,53.179 36.8946,52.788 37.3616,52.788 C37.8286,52.788 38.2076,53.179 38.2076,53.661 M44.8526,12.9569 C44.8526,13.4389 44.4746,13.8299 44.0066,13.8299 C43.5396,13.8299 43.1616,13.4389 43.1616,12.9569 C43.1616,12.4759 43.5396,12.0849 44.0066,12.0849 C44.4746,12.0849 44.8526,12.4759 44.8526,12.9569 M47.8927,19.5897 C47.8927,20.0717 47.5147,20.4627 47.0467,20.4627 C46.5797,20.4627 46.2027,20.0717 46.2027,19.5897 C46.2027,19.1077 46.5797,18.7177 47.0467,18.7177 C47.5147,18.7177 47.8927,19.1077 47.8927,19.5897 M49.1695,22.784 C49.1695,23.265 48.7905,23.656 48.3235,23.656 C47.8565,23.656 47.4775,23.265 47.4775,22.784 C47.4775,22.302 47.8565,21.911 48.3235,21.911 C48.7905,21.911 49.1695,22.302 49.1695,22.784 M51.544,29.7 C51.544,30.182 51.165,30.573 50.698,30.573 C50.231,30.573 49.853,30.182 49.853,29.7 C49.853,29.219 50.231,28.828 50.698,28.828 C51.165,28.828 51.544,29.219 51.544,29.7 M49.15,36.6092 C49.15,37.0912 48.772,37.4822 48.304,37.4822 C47.837,37.4822 47.459,37.0912 47.459,36.6092 C47.459,36.1282 47.837,35.7372 48.304,35.7372 C48.772,35.7372 49.15,36.1282 49.15,36.6092 M47.8648,39.7996 C47.8648,40.2816 47.4858,40.6716 47.0188,40.6716 C46.5518,40.6716 46.1728,40.2816 46.1728,39.7996 C46.1728,39.3176 46.5518,38.9266 47.0188,38.9266 C47.4858,38.9266 47.8648,39.3176 47.8648,39.7996 M44.8058,46.4237 C44.8058,46.9057 44.4268,47.2957 43.9598,47.2957 C43.4928,47.2957 43.1138,46.9057 43.1138,46.4237 C43.1138,45.9417 43.4928,45.5507 43.9598,45.5507 C44.4268,45.5507 44.8058,45.9417 44.8058,46.4237 M38.38,49.5623 C38.38,50.0443 38.001,50.4343 37.534,50.4343 C37.067,50.4343 36.688,50.0443 36.688,49.5623 C36.688,49.0803 37.067,48.6893 37.534,48.6893 C38.001,48.6893 38.38,49.0803 38.38,49.5623 M35.2857,50.8797 C35.2857,51.3617 34.9067,51.7517 34.4397,51.7517 C33.9727,51.7517 33.5937,51.3617 33.5937,50.8797 C33.5937,50.3977 33.9727,50.0067 34.4397,50.0067 C34.9067,50.0067 35.2857,50.3977 35.2857,50.8797 M35.3448,8.4725 C35.3448,8.9545 34.9658,9.3445 34.4988,9.3445 C34.0318,9.3445 33.6528,8.9545 33.6528,8.4725 C33.6528,7.9905 34.0318,7.5995 34.4988,7.5995 C34.9658,7.5995 35.3448,7.9905 35.3448,8.4725 M38.4356,9.7987 C38.4356,10.2807 38.0566,10.6717 37.5896,10.6717 C37.1226,10.6717 36.7436,10.2807 36.7436,9.7987 C36.7436,9.3177 37.1226,8.9267 37.5896,8.9267 C38.0566,8.9267 38.4356,9.3177 38.4356,9.7987 M18.8565,9.7703 C18.8565,10.2523 18.4775,10.6423 18.0105,10.6423 C17.5435,10.6423 17.1645,10.2523 17.1645,9.7703 C17.1645,9.2883 17.5435,8.8973 18.0105,8.8973 C18.4775,8.8973 18.8565,9.2883 18.8565,9.7703 M12.4308,12.909 C12.4308,13.391 12.0528,13.781 11.5848,13.781 C11.1178,13.781 10.7388,13.391 10.7388,12.909 C10.7388,12.427 11.1178,12.036 11.5848,12.036 C12.0528,12.036 12.4308,12.427 12.4308,12.909 M9.6056,9.9842 C9.6056,10.4662 9.2276,10.8572 8.7596,10.8572 C8.2926,10.8572 7.9136,10.4662 7.9136,9.9842 C7.9136,9.5032 8.2926,9.1122 8.7596,9.1122 C9.2276,9.1122 9.6056,9.5032 9.6056,9.9842 M5.4005,19.699 C5.4005,20.181 5.0225,20.571 4.5545,20.571 C4.0875,20.571 3.7095,20.181 3.7095,19.699 C3.7095,19.217 4.0875,18.826 4.5545,18.826 C5.0225,18.826 5.4005,19.217 5.4005,19.699 M9.3717,19.533 C9.3717,20.014 8.9937,20.405 8.5257,20.405 C8.0587,20.405 7.6797,20.014 7.6797,19.533 C7.6797,19.051 8.0587,18.66 8.5257,18.66 C8.9937,18.66 9.3717,19.051 9.3717,19.533 M8.0865,22.7225 C8.0865,23.2045 7.7075,23.5955 7.2405,23.5955 C6.7735,23.5955 6.3945,23.2045 6.3945,22.7225 C6.3945,22.2415 6.7735,21.8505 7.2405,21.8505 C7.7075,21.8505 8.0865,22.2415 8.0865,22.7225 M5.6925,29.6317 C5.6925,30.1137 5.3135,30.5047 4.8465,30.5047 C4.3795,30.5047 4.0005,30.1137 4.0005,29.6317 C4.0005,29.1507 4.3795,28.7597 4.8465,28.7597 C5.3135,28.7597 5.6925,29.1507 5.6925,29.6317 M1.692,29.6258 C1.692,30.1078 1.313,30.4988 0.846,30.4988 C0.379,30.4988 0,30.1078 0,29.6258 C0,29.1438 0.379,28.7538 0.846,28.7538 C1.313,28.7538 1.692,29.1438 1.692,29.6258 M5.3727,39.5643 C5.3727,40.0463 4.9947,40.4373 4.5267,40.4373 C4.0597,40.4373 3.6807,40.0463 3.6807,39.5643 C3.6807,39.0833 4.0597,38.6923 4.5267,38.6923 C4.9947,38.6923 5.3727,39.0833 5.3727,39.5643 M9.5509,49.2908 C9.5509,49.7728 9.1719,50.1638 8.7049,50.1638 C8.2379,50.1638 7.8589,49.7728 7.8589,49.2908 C7.8589,48.8098 8.2379,48.4188 8.7049,48.4188 C9.1719,48.4188 9.5509,48.8098 9.5509,49.2908 M18.962,53.6317 C18.962,54.1137 18.584,54.5047 18.116,54.5047 C17.649,54.5047 17.27,54.1137 17.27,53.6317 C17.27,53.1507 17.649,52.7597 18.116,52.7597 C18.584,52.7597 18.962,53.1507 18.962,53.6317 M28.5797,57.4608 C28.5797,57.9418 28.2007,58.3328 27.7337,58.3328 C27.2667,58.3328 26.8877,57.9418 26.8877,57.4608 C26.8877,56.9788 27.2667,56.5878 27.7337,56.5878 C28.2007,56.5878 28.5797,56.9788 28.5797,57.4608 M8.067,36.5487 C8.067,37.0297 7.689,37.4207 7.221,37.4207 C6.754,37.4207 6.375,37.0297 6.375,36.5487 C6.375,36.0667 6.754,35.6757 7.221,35.6757 C7.689,35.6757 8.067,36.0667 8.067,36.5487 M9.3434,39.742 C9.3434,40.224 8.9644,40.615 8.4974,40.615 C8.0304,40.615 7.6514,40.224 7.6514,39.742 C7.6514,39.261 8.0304,38.87 8.4974,38.87 C8.9644,38.87 9.3434,39.261 9.3434,39.742 M12.3839,46.3748 C12.3839,46.8568 12.0049,47.2468 11.5379,47.2468 C11.0709,47.2468 10.6919,46.8568 10.6919,46.3748 C10.6919,45.8928 11.0709,45.5018 11.5379,45.5018 C12.0049,45.5018 12.3839,45.8928 12.3839,46.3748 M18.8009,49.533 C18.8009,50.015 18.4229,50.405 17.9549,50.405 C17.4879,50.405 17.1099,50.015 17.1099,49.533 C17.1099,49.051 17.4879,48.661 17.9549,48.661 C18.4229,48.661 18.8009,49.051 18.8009,49.533 M21.8912,50.8602 C21.8912,51.3412 21.5132,51.7322 21.0452,51.7322 C20.5782,51.7322 20.2002,51.3412 20.2002,50.8602 C20.2002,50.3782 20.5782,49.9872 21.0452,49.9872 C21.5132,49.9872 21.8912,50.3782 21.8912,50.8602 M28.5851,53.3309 C28.5851,53.8129 28.2061,54.2029 27.7391,54.2029 C27.2721,54.2029 26.8931,53.8129 26.8931,53.3309 C26.8931,52.8489 27.2721,52.4589 27.7391,52.4589 C28.2061,52.4589 28.5851,52.8489 28.5851,53.3309 M21.9508,8.4529 C21.9508,8.9339 21.5718,9.3249 21.1048,9.3249 C20.6378,9.3249 20.2588,8.9339 20.2588,8.4529 C20.2588,7.9709 20.6378,7.5799 21.1048,7.5799 C21.5718,7.5799 21.9508,7.9709 21.9508,8.4529 M19.0289,5.6717 C19.0289,6.1537 18.6499,6.5447 18.1829,6.5447 C17.7159,6.5447 17.3369,6.1537 17.3369,5.6717 C17.3369,5.1897 17.7159,4.7997 18.1829,4.7997 C18.6499,4.7997 19.0289,5.1897 19.0289,5.6717 M28.651,6.0018 C28.651,6.4838 28.272,6.8748 27.805,6.8748 C27.338,6.8748 26.959,6.4838 26.959,6.0018 C26.959,5.5198 27.338,5.1298 27.805,5.1298 C28.272,5.1298 28.651,5.5198 28.651,6.0018 M28.8712,9.5389 C28.8712,10.1499 28.3912,10.6449 27.8002,10.6449 C27.2082,10.6449 26.7282,10.1499 26.7282,9.5389 C26.7282,8.9279 27.2082,8.4329 27.8002,8.4329 C28.3912,8.4329 28.8712,8.9279 28.8712,9.5389 M32.8912,10.9686 C32.8912,11.5796 32.4122,12.0746 31.8202,12.0746 C31.2282,12.0746 30.7482,11.5796 30.7482,10.9686 C30.7482,10.3576 31.2282,9.8626 31.8202,9.8626 C32.4122,9.8626 32.8912,10.3576 32.8912,10.9686 M38.8351,13.5203 C38.8351,14.1313 38.3561,14.6253 37.7641,14.6253 C37.1721,14.6253 36.6921,14.1313 36.6921,13.5203 C36.6921,12.9093 37.1721,12.4143 37.7641,12.4143 C38.3561,12.4143 38.8351,12.9093 38.8351,13.5203 M42.6515,15.4539 C42.6515,16.0649 42.1715,16.5599 41.5805,16.5599 C40.9885,16.5599 40.5085,16.0649 40.5085,15.4539 C40.5085,14.8429 40.9885,14.3489 41.5805,14.3489 C42.1715,14.3489 42.6515,14.8429 42.6515,15.4539 M44.5143,19.3992 C44.5143,20.0102 44.0353,20.5052 43.4433,20.5052 C42.8513,20.5052 42.3713,20.0102 42.3713,19.3992 C42.3713,18.7882 42.8513,18.2932 43.4433,18.2932 C44.0353,18.2932 44.5143,18.7882 44.5143,19.3992 M46.9693,25.5418 C46.9693,26.1528 46.4893,26.6478 45.8983,26.6478 C45.3063,26.6478 44.8263,26.1528 44.8263,25.5418 C44.8263,24.9308 45.3063,24.4358 45.8983,24.4358 C46.4893,24.4358 46.9693,24.9308 46.9693,25.5418 M48.3434,29.6951 C48.3434,30.3061 47.8634,30.8011 47.2724,30.8011 C46.6804,30.8011 46.2004,30.3061 46.2004,29.6951 C46.2004,29.0841 46.6804,28.5891 47.2724,28.5891 C47.8634,28.5891 48.3434,29.0841 48.3434,29.6951 M46.9571,33.8446 C46.9571,34.4556 46.4781,34.9496 45.8861,34.9496 C45.2941,34.9496 44.8141,34.4556 44.8141,33.8446 C44.8141,33.2336 45.2941,32.7386 45.8861,32.7386 C46.4781,32.7386 46.9571,33.2336 46.9571,33.8446 M44.4854,39.9793 C44.4854,40.5903 44.0054,41.0853 43.4144,41.0853 C42.8224,41.0853 42.3424,40.5903 42.3424,39.9793 C42.3424,39.3683 42.8224,38.8743 43.4144,38.8743 C44.0054,38.8743 44.4854,39.3683 44.4854,39.9793 M42.6124,43.9188 C42.6124,44.5298 42.1324,45.0248 41.5414,45.0248 C40.9494,45.0248 40.4694,44.5298 40.4694,43.9188 C40.4694,43.3078 40.9494,42.8138 41.5414,42.8138 C42.1324,42.8138 42.6124,43.3078 42.6124,43.9188 M38.7901,45.8416 C38.7901,46.4526 38.3101,46.9476 37.7191,46.9476 C37.1271,46.9476 36.6471,46.4526 36.6471,45.8416 C36.6471,45.2306 37.1271,44.7366 37.7191,44.7366 C38.3101,44.7366 38.7901,45.2306 38.7901,45.8416 M32.8394,48.3758 C32.8394,48.9868 32.3594,49.4818 31.7684,49.4818 C31.1764,49.4818 30.6964,48.9868 30.6964,48.3758 C30.6964,47.7648 31.1764,47.2698 31.7684,47.2698 C32.3594,47.2698 32.8394,47.7648 32.8394,48.3758 M28.8155,49.7938 C28.8155,50.4038 28.3365,50.8988 27.7445,50.8988 C27.1525,50.8988 26.6725,50.4038 26.6725,49.7938 C26.6725,49.1828 27.1525,48.6878 27.7445,48.6878 C28.3365,48.6878 28.8155,49.1828 28.8155,49.7938 M24.796,48.3631 C24.796,48.9741 24.316,49.4691 23.725,49.4691 C23.133,49.4691 22.653,48.9741 22.653,48.3631 C22.653,47.7521 23.133,47.2581 23.725,47.2581 C24.316,47.2581 24.796,47.7521 24.796,48.3631 M18.8521,45.8123 C18.8521,46.4233 18.3721,46.9183 17.7811,46.9183 C17.1891,46.9183 16.7091,46.4233 16.7091,45.8123 C16.7091,45.2013 17.1891,44.7063 17.7811,44.7063 C18.3721,44.7063 18.8521,45.2013 18.8521,45.8123 M15.0357,43.8778 C15.0357,44.4888 14.5567,44.9838 13.9647,44.9838 C13.3727,44.9838 12.8927,44.4888 12.8927,43.8778 C12.8927,43.2678 13.3727,42.7728 13.9647,42.7728 C14.5567,42.7728 15.0357,43.2678 15.0357,43.8778 M13.1729,39.9334 C13.1729,40.5444 12.6929,41.0384 12.1019,41.0384 C11.5099,41.0384 11.0299,40.5444 11.0299,39.9334 C11.0299,39.3224 11.5099,38.8274 12.1019,38.8274 C12.6929,38.8274 13.1729,39.3224 13.1729,39.9334 M10.7179,33.7908 C10.7179,34.4008 10.2389,34.8958 9.6469,34.8958 C9.0549,34.8958 8.5749,34.4008 8.5749,33.7908 C8.5749,33.1798 9.0549,32.6848 9.6469,32.6848 C10.2389,32.6848 10.7179,33.1798 10.7179,33.7908 M9.3443,29.6375 C9.3443,30.2475 8.8643,30.7425 8.2733,30.7425 C7.6813,30.7425 7.2013,30.2475 7.2013,29.6375 C7.2013,29.0265 7.6813,28.5315 8.2733,28.5315 C8.8643,28.5315 9.3443,29.0265 9.3443,29.6375 M24.8477,10.9559 C24.8477,11.5669 24.3687,12.0619 23.7767,12.0619 C23.1847,12.0619 22.7047,11.5669 22.7047,10.9559 C22.7047,10.3459 23.1847,9.8509 23.7767,9.8509 C24.3687,9.8509 24.8477,10.3459 24.8477,10.9559 M18.8976,13.4901 C18.8976,14.1001 18.4176,14.5961 17.8266,14.5961 C17.2346,14.5961 16.7546,14.1001 16.7546,13.4901 C16.7546,12.8801 17.2346,12.3851 17.8266,12.3851 C18.4176,12.3851 18.8976,12.8801 18.8976,13.4901 M15.0753,15.4129 C15.0753,16.0239 14.5953,16.5189 14.0043,16.5189 C13.4123,16.5189 12.9323,16.0239 12.9323,15.4129 C12.9323,14.8019 13.4123,14.3069 14.0043,14.3069 C14.5953,14.3069 15.0753,14.8019 15.0753,15.4129 M13.2018,19.3524 C13.2018,19.9634 12.7218,20.4584 12.1308,20.4584 C11.5388,20.4584 11.0588,19.9634 11.0588,19.3524 C11.0588,18.7424 11.5388,18.2474 12.1308,18.2474 C12.7218,18.2474 13.2018,18.7424 13.2018,19.3524 M10.7301,25.4881 C10.7301,26.0991 10.2501,26.5931 9.6591,26.5931 C9.0671,26.5931 8.5871,26.0991 8.5871,25.4881 C8.5871,24.8771 9.0671,24.3821 9.6591,24.3821 C10.2501,24.3821 10.7301,24.8771 10.7301,25.4881 M29.4869,13.3885 C29.4869,14.3535 28.7299,15.1345 27.7949,15.1345 C26.8619,15.1345 26.1049,14.3535 26.1049,13.3885 C26.1049,12.4245 26.8619,11.6425 27.7949,11.6425 C28.7299,11.6425 29.4869,12.4245 29.4869,13.3885 M18.3297,18.1395 C18.3297,19.1045 17.5727,19.8855 16.6377,19.8855 C15.7047,19.8855 14.9467,19.1045 14.9467,18.1395 C14.9467,17.1755 15.7047,16.3935 16.6377,16.3935 C17.5727,16.3935 18.3297,17.1755 18.3297,18.1395 M13.6944,29.6424 C13.6944,30.6064 12.9374,31.3884 12.0034,31.3884 C11.0694,31.3884 10.3124,30.6064 10.3124,29.6424 C10.3124,28.6784 11.0694,27.8964 12.0034,27.8964 C12.9374,27.8964 13.6944,28.6784 13.6944,29.6424 M40.6305,18.1737 C40.6305,19.1377 39.8735,19.9197 38.9395,19.9197 C38.0055,19.9197 37.2485,19.1377 37.2485,18.1737 C37.2485,17.2087 38.0055,16.4277 38.9395,16.4277 C39.8735,16.4277 40.6305,17.2087 40.6305,18.1737 M45.233,29.6893 C45.233,30.6543 44.476,31.4353 43.541,31.4353 C42.608,31.4353 41.851,30.6543 41.851,29.6893 C41.851,28.7253 42.608,27.9433 43.541,27.9433 C44.476,27.9433 45.233,28.7253 45.233,29.6893 M40.5982,41.1922 C40.5982,42.1572 39.8412,42.9382 38.9072,42.9382 C37.9722,42.9382 37.2162,42.1572 37.2162,41.1922 C37.2162,40.2282 37.9722,39.4462 38.9072,39.4462 C39.8412,39.4462 40.5982,40.2282 40.5982,41.1922 M29.441,45.9432 C29.441,46.9072 28.684,47.6892 27.75,47.6892 C26.816,47.6892 26.059,46.9072 26.059,45.9432 C26.059,44.9792 26.816,44.1972 27.75,44.1972 C28.684,44.1972 29.441,44.9792 29.441,45.9432 M18.297,41.159 C18.297,42.124 17.54,42.905 16.606,42.905 C15.672,42.905 14.915,42.124 14.915,41.159 C14.915,40.195 15.672,39.413 16.606,39.413 C17.54,39.413 18.297,40.195 18.297,41.159" id="Shape" fill="#B0936D"></path>
            <path d="M28.6568,1.8729 C28.6568,2.3539 28.2778,2.7449 27.8108,2.7449 C27.3448,2.7449 26.9648,2.3539 26.9648,1.8729 C26.9648,1.3909 27.3448,0.9999 27.8108,0.9999 C28.2778,0.9999 28.6568,1.3909 28.6568,1.8729" id="Path" fill="#B0936D"></path>
        </g>
    </g>
</svg>