<?xml version="1.0" standalone="no"?>
<!DOCTYPE svg PUBLIC "-//W3C//DTD SVG 20010904//EN"
 "http://www.w3.org/TR/2001/REC-SVG-20010904/DTD/svg10.dtd">
<svg version="1.0" xmlns="http://www.w3.org/2000/svg"
 width="944.000000pt" height="944.000000pt" viewBox="0 0 944.000000 944.000000"
 preserveAspectRatio="xMidYMid meet">
<metadata>
Created by potrace 1.14, written by Peter Selinger 2001-2017
</metadata>
<g transform="translate(0.000000,944.000000) scale(0.100000,-0.100000)"
fill="#000000" stroke="none">
<path d="M4624 9261 c-58 -35 -86 -113 -61 -170 11 -26 61 -80 74 -82 92 -10
105 -7 149 35 54 51 48 156 -11 203 -42 34 -109 40 -151 14z"/>
<path d="M3094 8660 c-35 -14 -75 -74 -78 -117 -5 -65 32 -121 95 -142 108
-35 210 84 160 189 -30 65 -112 97 -177 70z"/>
<path d="M6194 8661 c-103 -30 -134 -167 -53 -235 74 -62 165 -43 208 44 21
43 20 73 -3 120 -29 59 -92 89 -152 71z"/>
<path d="M4621 8599 c-87 -53 -88 -178 -2 -236 18 -12 37 -20 42 -17 5 3 9 1
9 -5 0 -7 9 -7 28 0 15 6 27 10 27 9 0 -1 12 3 26 9 36 13 72 74 72 121 0 103
-116 172 -202 119z"/>
<path d="M3570 8218 c-32 -12 -70 -47 -70 -65 0 -7 -3 -13 -8 -13 -4 0 -8 -15
-9 -32 -5 -84 56 -158 128 -158 22 0 52 6 67 14 27 14 68 56 55 56 -4 0 -2 5
5 12 15 15 16 75 2 114 -20 58 -110 96 -170 72z"/>
<path d="M5701 8208 c-92 -45 -100 -178 -15 -241 33 -25 102 -25 142 -1 63 36
86 138 44 193 -47 63 -108 80 -171 49z"/>
<path d="M4610 8068 c-138 -71 -116 -275 37 -326 78 -26 180 34 204 121 12 45
3 122 -17 142 -8 7 -14 17 -14 22 0 4 -16 19 -35 32 -51 35 -118 38 -175 9z"/>
<path d="M3061 7998 c-40 -19 -70 -65 -76 -114 -4 -35 29 -98 64 -123 33 -24
81 -35 81 -19 0 5 5 6 11 2 22 -13 98 45 106 80 1 6 4 21 7 34 9 41 -5 81 -41
117 -19 19 -45 35 -56 36 -12 0 -30 2 -39 4 -9 2 -35 -6 -57 -17z"/>
<path d="M6179 7987 c-42 -37 -59 -69 -59 -112 0 -77 61 -140 136 -139 74 0
127 54 130 131 2 50 -9 76 -46 113 -35 35 -125 39 -161 7z"/>
<path d="M1583 7970 c-12 -5 -34 -27 -49 -49 -79 -121 41 -265 168 -200 45 23
77 79 73 130 -3 45 -17 70 -56 103 -32 27 -90 34 -136 16z"/>
<path d="M7678 7957 c-73 -37 -100 -126 -58 -194 81 -134 275 -54 246 102 -8
40 -56 92 -93 101 -16 3 -33 7 -40 9 -6 2 -31 -6 -55 -18z"/>
<path d="M4009 7860 c-63 -18 -89 -40 -120 -108 -22 -46 -21 -111 2 -138 6 -8
8 -14 3 -14 -13 0 72 -76 88 -78 7 -1 31 -5 54 -8 103 -15 198 96 174 203 -5
21 -9 40 -8 42 1 2 -11 19 -26 37 -43 55 -108 80 -167 64z"/>
<path d="M5315 7860 c-177 -27 -213 -253 -54 -336 34 -17 112 -17 143 0 89 50
122 156 77 244 -21 41 -68 82 -93 82 -8 0 -18 4 -23 8 -6 5 -28 6 -50 2z"/>
<path d="M4615 7565 c-240 -71 -268 -393 -45 -520 54 -30 162 -31 226 -1 170
79 212 304 84 449 -17 20 -38 37 -46 37 -8 0 -14 4 -14 8 0 13 -72 35 -120 37
-25 1 -63 -3 -85 -10z"/>
<path d="M2065 7512 c-52 -10 -96 -66 -109 -138 -4 -26 33 -93 67 -118 59 -44
157 -14 191 58 49 103 -39 219 -149 198z"/>
<path d="M7222 7493 c-30 -15 -69 -68 -72 -98 -6 -63 1 -86 40 -125 35 -35 45
-40 88 -40 38 0 55 6 84 30 37 30 60 82 53 117 -2 10 -4 25 -4 33 -1 22 -52
77 -81 86 -38 13 -78 12 -108 -3z"/>
<path d="M3025 7441 c-22 -10 -48 -27 -57 -37 -20 -23 -51 -94 -41 -94 4 0 2
-5 -4 -11 -14 -14 7 -87 37 -127 82 -111 254 -77 294 59 42 142 -98 271 -229
210z"/>
<path d="M6238 7447 c-68 -17 -128 -97 -128 -173 0 -54 45 -129 92 -155 51
-28 144 -18 185 19 46 41 60 70 62 129 2 64 -14 106 -53 140 -50 44 -97 56
-158 40z"/>
<path d="M2405 7133 c-125 -67 -126 -251 -2 -315 78 -39 163 -19 214 50 23 31
47 132 31 132 -5 0 -6 5 -3 10 12 19 -39 92 -81 116 -48 28 -114 31 -159 7z"/>
<path d="M6847 7137 c-41 -10 -92 -55 -110 -96 -28 -66 -8 -160 45 -207 65
-58 165 -56 229 5 80 77 64 226 -31 280 -37 21 -90 28 -133 18z"/>
<path d="M2817 6801 c-52 -18 -137 -84 -137 -106 0 -8 -4 -15 -9 -15 -8 0 -14
-14 -29 -65 -13 -47 -5 -151 15 -195 52 -113 184 -182 302 -156 42 9 105 47
136 81 46 51 56 65 49 65 -3 0 -2 6 4 13 12 15 26 92 23 132 -6 95 -66 191
-144 231 -61 32 -146 38 -210 15z"/>
<path d="M6385 6798 c-114 -41 -186 -151 -181 -278 10 -249 303 -358 465 -174
124 141 76 364 -93 442 -47 22 -145 27 -191 10z"/>
<path d="M2100 6499 c-99 -56 -119 -195 -39 -278 108 -113 289 -33 289 127 0
128 -139 212 -250 151z"/>
<path d="M7175 6512 c-102 -18 -165 -100 -151 -199 7 -56 29 -93 69 -120 101
-69 234 -17 264 104 14 56 -13 137 -57 175 -34 27 -91 46 -125 40z"/>
<path d="M1575 6452 c-32 -7 -74 -41 -90 -73 -9 -16 -15 -31 -15 -34 0 -3 0
-8 -1 -12 -15 -100 99 -190 185 -146 126 63 104 239 -34 265 -14 3 -34 3 -45
0z"/>
<path d="M7715 6432 c-97 -51 -111 -170 -27 -236 103 -81 247 27 208 154 -24
73 -117 116 -181 82z"/>
<path d="M915 6416 c-42 -19 -74 -67 -79 -118 -10 -110 108 -185 201 -128 82
50 87 176 9 232 -34 24 -95 31 -131 14z"/>
<path d="M8355 6405 c-61 -29 -85 -65 -85 -128 0 -79 56 -137 133 -137 83 0
140 67 132 154 -3 38 -35 90 -65 106 -33 17 -84 20 -115 5z"/>
<path d="M1341 5928 c-67 -33 -96 -122 -61 -189 53 -100 201 -94 242 9 46 121
-69 236 -181 180z"/>
<path d="M7936 5929 c-16 -4 -40 -18 -53 -31 -89 -83 -44 -218 80 -243 34 -7
96 25 118 62 67 108 -26 244 -145 212z"/>
<path d="M4685 5675 c-4 -11 -15 -39 -26 -61 -49 -111 -110 -247 -144 -319
-20 -44 -37 -84 -38 -90 -1 -5 -4 -12 -7 -15 -3 -3 -30 -59 -59 -125 -30 -66
-67 -149 -84 -185 -16 -36 -39 -87 -52 -115 -12 -27 -31 -70 -43 -95 -11 -25
-53 -117 -92 -205 -96 -212 -102 -226 -149 -328 -23 -49 -41 -92 -41 -97 0 -5
-4 -11 -9 -14 -5 -3 -28 42 -51 102 -23 59 -46 116 -51 127 -4 11 -40 103 -79
205 -100 258 -179 461 -190 485 -5 11 -43 110 -85 220 -42 110 -82 214 -90
230 -44 100 -47 160 -12 200 44 48 42 55 -15 56 -146 1 -402 -2 -405 -5 -2 -2
3 -19 11 -37 18 -40 81 -202 81 -209 1 -3 7 -16 15 -30 7 -14 12 -25 11 -25
-1 0 1 -9 5 -20 14 -39 65 -170 73 -190 5 -11 24 -58 41 -105 18 -47 39 -100
47 -119 8 -18 16 -39 18 -45 2 -12 21 -61 34 -91 5 -11 21 -49 34 -85 24 -61
41 -105 132 -340 20 -52 48 -124 62 -160 13 -36 28 -74 33 -85 5 -11 41 -103
80 -205 40 -102 76 -194 81 -205 5 -11 20 -51 35 -90 22 -62 81 -214 104 -270
20 -49 35 -91 35 -97 0 -22 16 -15 31 14 10 18 19 35 19 38 1 3 9 22 18 44 9
21 17 42 17 47 0 5 5 9 12 9 6 0 9 3 6 6 -4 3 7 35 24 72 17 37 39 87 50 112
11 25 28 62 39 83 10 21 19 42 19 47 0 5 13 37 29 72 16 35 57 126 91 203 75
171 80 181 124 278 20 42 36 79 36 82 0 2 14 35 31 72 17 38 51 114 75 171 25
57 57 131 73 165 15 34 43 97 62 139 19 43 37 78 40 78 5 0 13 -16 57 -120 11
-25 33 -74 49 -110 17 -36 45 -99 63 -140 18 -41 37 -81 42 -87 6 -7 7 -13 3
-13 -4 0 0 -11 9 -25 9 -13 16 -31 16 -40 0 -8 5 -15 10 -15 6 0 10 -7 10 -15
0 -8 4 -23 10 -33 8 -16 60 -129 80 -177 5 -11 29 -64 54 -119 26 -54 46 -102
46 -106 0 -4 6 -20 14 -36 46 -93 104 -224 99 -224 -3 0 -1 -6 5 -12 5 -7 56
-116 112 -243 56 -126 104 -232 106 -233 4 -5 39 74 54 123 7 22 16 44 21 49
5 6 9 20 9 32 0 13 4 25 9 29 7 4 37 78 46 115 2 7 15 39 36 88 10 23 15 42
12 42 -3 0 -1 6 4 13 6 6 16 30 23 52 7 22 16 45 20 50 4 6 13 28 20 50 7 22
32 90 55 150 125 321 225 589 225 601 0 8 5 14 12 14 6 0 9 3 6 6 -3 3 5 33
19 67 26 63 45 114 102 267 17 47 35 94 40 105 10 22 23 55 26 68 2 4 4 10 5
15 1 4 2 10 1 15 0 4 4 7 11 7 6 0 9 3 6 6 -3 3 16 62 43 132 27 69 49 132 49
139 0 7 5 13 10 13 6 0 10 8 11 18 0 9 13 49 28 87 l29 70 -117 5 c-151 6
-331 1 -331 -10 0 -5 12 -23 26 -40 15 -17 28 -45 29 -63 1 -28 -24 -115 -58
-197 -5 -14 -11 -29 -12 -35 -3 -12 -42 -111 -54 -140 -5 -11 -41 -105 -81
-210 -39 -104 -75 -199 -80 -210 -5 -11 -41 -105 -80 -210 -38 -104 -74 -199
-79 -210 -6 -11 -31 -77 -57 -147 -26 -71 -50 -128 -53 -128 -3 1 -22 35 -41
78 -19 42 -55 120 -79 172 -25 52 -46 97 -47 100 0 3 -14 34 -31 70 -40 85
-89 192 -120 260 -14 30 -48 102 -74 159 -27 57 -49 104 -49 106 0 2 -22 49
-49 106 -26 57 -58 124 -69 149 -59 128 -190 408 -199 425 l-12 20 -6 -20z"/>
<path d="M1712 5520 c-101 -46 -129 -189 -54 -275 102 -117 293 -46 296 109 2
138 -119 221 -242 166z"/>
<path d="M7508 5513 c-31 -15 -90 -82 -82 -94 2 -4 0 -10 -5 -13 -12 -8 -7
-94 7 -126 34 -77 101 -109 200 -98 30 4 88 52 108 90 75 145 -83 312 -228
241z"/>
<path d="M2115 4973 c-79 -15 -154 -72 -193 -148 -36 -68 -38 -188 -4 -253 65
-123 197 -180 323 -139 115 37 196 156 189 277 -6 103 -68 198 -156 240 -42
19 -118 30 -159 23z"/>
<path d="M7125 4957 c-145 -47 -223 -216 -169 -367 28 -78 72 -121 175 -171
31 -15 142 -4 190 18 93 44 152 140 153 249 1 63 -3 80 -33 138 -19 36 -36 64
-38 62 -2 -2 -17 9 -34 25 -55 52 -164 72 -244 46z"/>
<path d="M1513 4866 c-73 -25 -118 -91 -117 -171 2 -160 187 -231 294 -113 17
18 30 40 30 50 0 9 4 19 9 22 11 7 4 92 -11 120 -16 32 -70 86 -80 80 -4 -3
-8 -1 -8 4 0 5 -6 9 -12 9 -7 1 -26 3 -43 6 -16 2 -44 -1 -62 -7z"/>
<path d="M7759 4860 c-142 -40 -171 -233 -47 -318 37 -25 51 -29 95 -27 65 4
112 31 141 84 43 76 32 154 -30 218 -39 40 -105 58 -159 43z"/>
<path d="M319 4824 c-39 -16 -79 -75 -79 -116 0 -36 20 -88 42 -110 10 -10 38
-23 62 -30 38 -10 50 -9 85 7 45 20 81 78 81 131 0 60 -72 135 -130 133 -14 0
-41 -7 -61 -15z"/>
<path d="M962 4829 c-29 -11 -71 -66 -78 -104 -18 -96 77 -190 163 -161 73 25
110 85 99 159 -13 85 -102 136 -184 106z"/>
<path d="M8305 4820 c-103 -43 -116 -192 -22 -251 44 -28 114 -21 156 13 16
14 27 29 24 32 -4 3 -2 6 4 6 10 0 11 2 16 60 10 96 -92 176 -178 140z"/>
<path d="M8955 4819 c-150 -48 -117 -269 40 -269 45 0 87 23 108 60 66 111
-30 247 -148 209z"/>
<path d="M1714 4197 c-132 -74 -134 -255 -3 -322 39 -21 108 -21 147 -1 128
66 128 252 1 317 -42 21 -113 24 -145 6z"/>
<path d="M7512 4184 c-12 -8 -22 -13 -22 -10 0 9 -37 -29 -54 -56 -8 -13 -17
-35 -20 -50 -2 -15 -7 -32 -10 -37 -4 -5 -2 -12 4 -16 6 -4 8 -10 5 -15 -8
-13 19 -71 47 -101 45 -48 132 -63 191 -33 36 19 67 48 67 64 0 5 4 10 9 10
16 0 28 82 19 124 -11 50 -53 104 -96 122 -45 18 -112 18 -140 -2z"/>
<path d="M1360 3726 c-149 -44 -120 -270 35 -270 76 0 137 64 134 139 -5 93
-86 156 -169 131z"/>
<path d="M7945 3718 c-91 -20 -136 -114 -94 -199 48 -96 178 -100 234 -6 58
98 -31 228 -140 205z"/>
<path d="M905 3234 c-42 -21 -68 -60 -73 -111 -15 -149 171 -207 249 -79 68
111 -60 249 -176 190z"/>
<path d="M8344 3226 c-70 -31 -98 -118 -63 -192 16 -33 29 -46 69 -62 27 -11
52 -17 55 -12 3 5 11 7 18 5 23 -9 78 35 97 76 36 81 -10 176 -93 193 -40 8
-47 7 -83 -8z"/>
<path d="M2125 3220 c-69 -22 -117 -90 -116 -166 2 -170 188 -242 298 -115 24
28 46 104 39 138 -22 106 -125 172 -221 143z"/>
<path d="M1555 3211 c-3 -6 -10 -9 -14 -7 -10 7 -54 -42 -68 -74 -6 -14 -9
-40 -7 -59 16 -146 204 -175 257 -41 26 66 4 135 -55 172 -28 17 -104 23 -113
9z"/>
<path d="M7114 3202 c-64 -31 -103 -98 -97 -170 7 -94 75 -162 166 -163 54 -1
87 12 122 49 54 58 65 131 31 207 -35 79 -140 115 -222 77z"/>
<path d="M7693 3190 c-66 -40 -84 -135 -38 -196 45 -59 105 -76 164 -46 69 34
95 107 65 181 -30 74 -121 104 -191 61z"/>
<path d="M2860 3129 c-65 -10 -94 -24 -140 -65 -91 -83 -118 -213 -66 -325 30
-65 49 -88 101 -121 108 -67 234 -53 329 37 60 56 82 116 79 215 -4 161 -147
283 -303 259z"/>
<path d="M6360 3107 c-49 -24 -147 -117 -143 -137 0 -3 -4 -16 -9 -30 -18 -46
-13 -151 10 -201 126 -275 515 -189 514 113 0 101 -41 176 -129 237 -40 27
-62 33 -139 35 -44 2 -74 -3 -104 -17z"/>
<path d="M2423 2589 c-38 -11 -89 -60 -107 -103 -34 -80 8 -191 86 -226 109
-48 229 22 241 141 12 124 -101 220 -220 188z"/>
<path d="M6812 2569 c-109 -54 -130 -200 -39 -286 63 -60 162 -61 225 -2 56
52 73 131 45 199 -40 97 -138 135 -231 89z"/>
<path d="M4563 2339 c-100 -50 -153 -142 -150 -262 2 -58 8 -81 29 -117 56
-96 122 -139 223 -147 112 -9 224 65 266 176 26 68 22 168 -10 228 -70 134
-225 187 -358 122z"/>
<path d="M3010 2268 c-45 -23 -71 -55 -89 -110 -31 -96 41 -210 142 -223 144
-19 243 151 161 274 -46 70 -139 96 -214 59z"/>
<path d="M6237 2275 c-128 -32 -175 -184 -90 -286 70 -83 192 -78 261 9 27 34
32 49 33 94 1 78 -1 85 -38 127 -45 53 -102 72 -166 56z"/>
<path d="M2025 2142 c-48 -30 -65 -56 -71 -105 -14 -111 95 -189 193 -138 90
45 98 178 15 237 -36 25 -103 28 -137 6z"/>
<path d="M7215 2138 c-108 -61 -95 -220 21 -258 45 -15 103 2 137 40 15 16 24
30 21 30 -4 0 -2 6 3 13 30 39 2 128 -51 165 -35 24 -97 29 -131 10z"/>
<path d="M3985 1869 c-37 -11 -83 -49 -103 -86 -19 -37 -19 -121 2 -161 46
-89 156 -123 236 -73 98 61 116 190 37 273 -48 52 -104 67 -172 47z"/>
<path d="M5271 1869 c-73 -27 -111 -81 -116 -164 -7 -105 81 -190 185 -179 25
3 54 11 65 18 28 19 68 61 67 72 0 5 3 14 8 19 8 10 13 56 11 106 -1 31 -64
107 -100 121 -36 14 -92 17 -120 7z"/>
<path d="M1583 1680 c-46 -20 -59 -35 -77 -86 -23 -68 11 -140 80 -170 17 -7
39 -11 50 -9 10 2 26 4 36 4 19 1 87 65 89 83 9 84 -4 129 -48 162 -41 30 -86
36 -130 16z"/>
<path d="M7680 1673 c-101 -42 -120 -174 -34 -239 90 -69 216 -1 210 114 -4
100 -91 161 -176 125z"/>
<path d="M3074 1647 c-67 -22 -108 -92 -92 -160 20 -92 109 -136 190 -95 45
22 81 84 77 131 -8 86 -97 149 -175 124z"/>
<path d="M4615 1636 c-75 -34 -109 -93 -103 -177 12 -168 219 -222 309 -80 33
52 38 114 14 161 -9 17 -13 30 -11 30 9 0 -44 49 -65 61 -34 17 -111 21 -144
5z"/>
<path d="M6205 1642 c-35 -12 -52 -26 -74 -62 -36 -60 -24 -126 34 -180 35
-33 116 -35 157 -5 39 29 79 127 57 141 -5 3 -9 13 -9 22 -1 21 -38 65 -65 77
-27 11 -76 15 -100 7z"/>
<path d="M3590 1443 c-61 -17 -96 -50 -110 -104 -23 -86 33 -169 119 -175 89
-6 161 87 138 179 -14 52 -102 113 -147 100z"/>
<path d="M5690 1425 c-52 -28 -76 -79 -72 -157 2 -33 62 -98 89 -98 11 0 23
-4 29 -9 24 -24 132 44 142 89 16 68 -6 133 -55 165 -35 23 -100 28 -133 10z"/>
<path d="M4618 1029 c-51 -26 -72 -63 -71 -128 0 -51 3 -57 43 -94 40 -38 44
-39 96 -35 34 3 61 12 75 24 122 110 2 307 -143 233z"/>
<path d="M3084 986 c-64 -28 -97 -116 -69 -183 12 -28 58 -72 77 -74 4 0 21
-4 38 -9 16 -5 30 -5 30 -1 0 4 9 7 21 8 45 4 99 88 93 146 -4 34 -36 88 -64
105 -32 20 -91 23 -126 8z"/>
<path d="M6180 988 c-81 -22 -123 -138 -76 -210 22 -34 85 -66 121 -61 17 2
36 4 43 5 6 1 12 5 12 10 0 4 6 8 13 8 21 0 58 69 59 110 1 66 -53 134 -112
143 -14 2 -41 0 -60 -5z"/>
<path d="M4621 373 c-49 -24 -75 -68 -75 -127 -1 -146 184 -191 251 -62 59
113 -63 243 -176 189z"/>
</g>
</svg>
