<?xml version="1.0" encoding="UTF-8"?>
<svg width="120px" height="120px" viewBox="0 0 120 120" version="1.1" xmlns="http://www.w3.org/2000/svg" xmlns:xlink="http://www.w3.org/1999/xlink">
    <title>game_icon_win 3 card</title>
    <defs>
        <linearGradient x1="50%" y1="3.41005068%" x2="50%" y2="100%" id="linearGradient-1">
            <stop stop-color="#000F24" stop-opacity="0.9" offset="0%"></stop>
            <stop stop-color="#011B3E" offset="100%"></stop>
        </linearGradient>
        <linearGradient x1="47.6797493%" y1="116.727253%" x2="47.296779%" y2="10.9097119%" id="linearGradient-2">
            <stop stop-color="#A78C68" offset="0%"></stop>
            <stop stop-color="#7C6341" offset="52.4440456%"></stop>
            <stop stop-color="#AFA286" offset="100%"></stop>
        </linearGradient>
    </defs>
    <g id="game_icon_win-3-card" stroke="none" stroke-width="1" fill="none" fill-rule="evenodd">
        <g id="Group-2" transform="translate(-6.000000, -14.000000)">
            <polygon id="Path" fill="url(#linearGradient-1)" transform="translate(69.258622, 73.296311) rotate(-30.000000) translate(-69.258622, -73.296311) " points="23.3214139 92.4119041 43.1109359 18.211965 93.4636104 31.766488 90.6569959 42.2826653 107.25329 51.8892659 102.045161 60.9296227 115.195831 74.0989827 60.992719 128.380657 26.468542 93.8070932 24.6972208 92.7823128"></polygon>
            <g id="Group-2-Copy" fill="url(#linearGradient-2)" fill-rule="nonzero">
                <g id="Group" transform="translate(69.976002, 73.827417) rotate(-30.000000) translate(-69.976002, -73.827417) translate(22.476002, 16.827417)">
                    <path d="M20.4837631,1.86162197e-12 L72.4102646,13.8840606 L69.5051972,24.6955792 L86.6153351,34.5538228 L81.2344808,43.8507218 L94.7870232,57.3741467 L38.8241778,113.217922 L3.24497333,77.7148303 L1.41880915,76.6632069 L-5.05195885e-12,76.2837926 L20.4837631,1.86162197e-12 Z M9.97500318,81.5921898 L38.8235703,110.379377 L46.5534509,102.665943 L9.97500318,81.5921898 Z M80.1932569,45.6500643 L48.0957495,101.126926 L91.9420778,57.3738877 L80.1932569,45.6500643 Z M67.3262121,32.8103962 L51.9263288,90.1680447 L8.92688378,78.6701218 L46.3063614,100.207186 L78.7210629,44.1810026 L67.3262121,32.8103962 Z M56.7737644,22.2804005 L3.73570468,75.2044664 L50.503436,87.7104133 L65.6827793,31.1704601 L56.7737644,22.2804005 Z M21.9054062,2.45666857 L3.5414808,70.8465941 L40.0593785,7.73191324 L67.7008689,23.6565707 L69.9453614,15.3020707 L21.9054062,2.45666857 Z M40.7956898,10.4717133 L6.68698826,69.4222579 L56.6232121,19.5911345 L40.7956898,10.4717133 Z M50.2925181,50.1693422 L52.8335235,59.6122665 L43.3852085,62.1331534 L40.8471345,52.6919216 L50.2925181,50.1693422 Z M48.8735056,52.6266777 L43.3082254,54.1132199 L44.804629,59.6741787 L50.3703312,58.1892043 L48.8735056,52.6266777 Z M68.9661972,26.7024941 L67.9272718,30.571826 L79.7622868,42.3816601 L83.8662718,35.2875026 L68.9661972,26.7024941 Z M57.3357495,20.001692 L66.283839,28.9318898 L67.1618689,25.6634856 L57.3357495,20.001692 Z" id="Combined-Shape"></path>
                </g>
            </g>
        </g>
    </g>
</svg>