<?xml version="1.0" encoding="UTF-8"?>
<svg width="120px" height="120px" viewBox="0 0 120 120" version="1.1" xmlns="http://www.w3.org/2000/svg" xmlns:xlink="http://www.w3.org/1999/xlink">
    <title>game_icon_d &amp; t</title>
    <defs>
        <polygon id="path-1" points="0 -2.44426701e-14 85.671308 -2.44426701e-14 85.671308 88.152494 0 88.152494"></polygon>
    </defs>
    <g id="game_icon_d-&amp;-t" stroke="none" stroke-width="1" fill="none" fill-rule="evenodd">
        <g id="Group-53" transform="translate(17.000000, 16.000000)">
            <path d="M60.546666,56.676838 C60.546666,56.676838 60.409926,56.676838 60.176866,56.702638" id="Fill-1" fill="#021B3B"></path>
            <path d="M67.616468,61.157438 C67.616468,61.157438 67.521868,61.157438 67.349008,61.174638" id="Fill-3" fill="#021B3B"></path>
            <path d="M15.887124,23.618094 C15.878524,23.627554 15.869924,23.627554 15.869924,23.627554 L15.869924,23.618094 L15.887124,23.618094 Z" id="Fill-5" fill="#021B3B"></path>
            <path d="M16.265954,23.222494 C16.136954,23.351494 16.007094,23.489954 15.887554,23.618094" id="Fill-7" fill="#021B3B"></path>
            <path d="M51.697266,36.552494 C51.697266,40.827554 55.163066,44.292494 59.437266,44.292494 C61.734326,44.292494 63.781126,43.286294 65.199266,41.712494 L84.807266,41.712494 L84.807266,46.442494 C84.807266,46.442494 83.087266,50.742494 76.207266,50.742494 L67.607266,50.742494 C67.607266,50.742494 63.307266,55.042494 59.007266,55.042494 C57.605466,55.042494 55.730666,54.672694 53.847266,54.019954 L52.893526,54.303754 C55.439126,54.827494 57.880666,55.635894 60.176866,56.703154 C62.765466,57.889954 65.174326,59.394954 67.349266,61.175154 C74.926726,67.341354 79.759926,76.732554 79.759926,87.267554 L76.551266,87.292494 L9.230466,87.292494 C4.664726,87.292494 0.957266,83.585894 0.957266,79.020154 L0.957266,78.718294 C2.161266,79.415754 3.555326,79.811354 5.042266,79.811354 C9.548666,79.811354 13.195066,76.164954 13.195066,71.657694 C13.195066,67.151294 9.548666,63.496294 5.042266,63.496294 C3.555326,63.496294 2.161266,63.891894 0.957266,64.589354 L0.957266,53.624354 L4.656126,53.624354 L4.656126,52.376494 C4.656126,52.376494 4.914126,34.988154 15.870526,23.635294 L15.870526,23.627554 C15.870526,23.627554 15.879126,23.627554 15.886866,23.618094 L15.870526,23.618094 C8.791866,23.618094 8.603526,16.351954 8.603526,16.351954 C4.329326,16.351954 0.863526,12.885294 0.863526,8.602494 C0.863526,4.328294 4.329326,0.862494 8.603526,0.862494 C8.603526,0.862494 12.043526,11.157554 21.503526,11.157554 L48.257266,11.157554 C48.257266,11.157554 52.987266,10.804954 52.987266,16.342494 L58.595326,16.342494 C58.595326,16.342494 64.167266,16.153294 64.167266,23.222494 L73.593726,23.222494 C73.593726,20.126494 76.104926,17.615294 79.200066,17.615294 C82.296066,17.615294 84.807266,20.126494 84.807266,23.222494 L84.807266,31.392494 L65.199266,31.392494 C63.781126,29.810094 61.734326,28.812494 59.437266,28.812494 C55.163066,28.812494 51.697266,32.278294 51.697266,36.552494" id="Fill-9" fill="#021B3B"></path>
            <path d="M47.068058,20.619016 L47.565998,21.116956 C49.470038,23.021856 52.053478,24.091696 54.746998,24.091696 L54.746998,20.619016 L48.269478,20.619016 L47.068058,20.619016 Z" id="Fill-11" fill="#B0936D"></path>
            <path d="M27.993516,56.681052 L27.496436,57.178132 C25.591536,59.083032 23.008096,60.152872 20.315436,60.152872 L20.315436,56.681052 L26.792096,56.681052 L27.993516,56.681052 Z" id="Fill-13" fill="#B0936D"></path>
            <path d="M33.553244,62.70776 L33.553244,56.67658 L31.833244,56.67658 L31.833244,62.70776 C31.833244,68.29948 27.283844,72.84888 21.691264,72.84888 L20.315264,72.84888 L20.315264,74.56888 L21.691264,74.56888 C28.232424,74.56888 33.553244,69.2472 33.553244,62.70776" id="Fill-15" fill="#957E5C"></path>
            <path d="M40.099822,61.531108 L40.099822,56.676408 L38.379822,56.676408 L38.379822,61.531108 C38.379822,72.918368 32.251462,80.276528 22.766522,80.276528 L20.315522,80.276528 L20.315522,81.996528 L22.766522,81.996528 C33.296362,81.996528 40.099822,73.963268 40.099822,61.531108" id="Fill-17" fill="#957E5C"></path>
            <mask id="mask-2" fill="white">
                <use xlink:href="#path-1"></use>
            </mask>
            <g id="Clip-20"></g>
            <path d="M50.84148,36.55 C50.84148,41.29204 54.69944,45.15 59.44148,45.15 C61.74456,45.15 63.95648,44.21432 65.5707,42.57 L83.95148,42.57 L83.95148,46.24908 C83.60232,46.93278 81.77396,49.88 76.21148,49.88 L67.25544,49.88 L67.00346,50.13198 C66.96304,50.1724 62.90986,54.18 59.01148,54.18 C57.79286,54.18 56.16832,53.86954 54.52486,53.33806 C55.61448,51.33082 56.00148,48.95894 56.00148,47.3 L56.00148,46.44 L46.97148,46.44 L46.97148,39.0139 L46.99298,39.0139 L46.97148,38.1324 L46.97148,25.21692 L46.42968,25.00106 C46.35314,24.97096 39.21772,22.0719 38.44028,17.21376 L52.99148,17.21376 L52.99148,17.2 L58.62104,17.19914 C58.6305,17.1828 60.39006,17.1828 61.7093,18.45904 C62.77226,19.48674 63.31148,21.08892 63.31148,23.22 L63.31148,24.08 L74.45364,24.08 L74.45364,23.22 C74.45364,20.6013 76.58386,18.47194 79.20256,18.47194 C81.8204,18.47194 83.95148,20.6013 83.95148,23.22 L83.95148,30.53 L65.5707,30.53 C63.95562,28.88568 61.7437,27.95 59.44148,27.95 C54.69944,27.95 50.84148,31.80796 50.84148,36.55 L50.84148,36.55 Z M74.04342,70.15622 C68.3528,80.16748 57.77308,86.38012 46.24048,86.42742 L41.3273,86.43 L34.70874,86.43 C38.872,84.59992 42.3163,81.42738 44.48092,77.45762 L46.1089,77.45762 C55.76412,77.45762 64.27984,71.54254 67.70608,62.62434 C70.18202,64.80444 72.31912,67.3466 74.04342,70.15622 L74.04342,70.15622 Z M56.7514,86.42398 C64.2893,83.9274 70.80294,78.82416 75.03242,71.86676 C77.3785,76.25706 78.7502,81.2141 78.88608,86.41452 L56.7514,86.42398 Z M9.22694,86.43 C5.51174,86.43 2.4252,83.68144 1.89716,80.10986 C2.8982,80.48224 3.96288,80.67488 5.04046,80.67488 C10.01298,80.67488 14.05842,76.62944 14.05842,71.65606 C14.05842,66.68354 10.01298,62.6381 5.04046,62.6381 C3.9345,62.6381 2.84144,62.84106 1.81718,63.2315 L1.81718,54.48014 L16.57048,54.48014 L16.57048,53.62014 C16.57048,50.60928 19.02062,48.16 22.03148,48.16 L25.54974,48.16 L45.2489,48.16 L45.2489,67.68716 C45.2489,77.99082 36.894,86.37668 26.60324,86.43 L19.66648,86.43 L9.22694,86.43 Z M48.26148,55.47 L46.9689,55.47 L46.9689,48.16 L54.23504,48.16 C54.04842,50.26786 53.09468,55.47 48.26148,55.47 L48.26148,55.47 Z M46.9689,67.68716 L46.9689,65.83042 C52.20802,65.44256 56.4848,61.56138 57.46348,56.50716 C60.6902,57.69998 63.6658,59.3787 66.30514,61.4556 C63.2788,70.01776 55.24468,75.73762 46.1089,75.73762 L45.31598,75.73762 C46.37894,73.26512 46.9689,70.54408 46.9689,67.68716 L46.9689,67.68716 Z M53.12134,55.23694 C54.03466,55.43646 54.93164,55.6721 55.81056,55.94472 C55.07268,60.31868 51.45036,63.71998 46.9689,64.11042 L46.9689,57.19 L48.26148,57.19 C50.38912,57.19 51.9612,56.39966 53.12134,55.23694 L53.12134,55.23694 Z M5.5126,52.38604 C5.51518,52.22092 5.88412,36.5156 15.28478,25.55232 C15.93838,28.19252 17.8966,31.36248 22.34538,31.70476 C22.704,34.60726 24.68974,39.0139 30.40702,39.0139 L45.25148,39.0139 L45.25148,46.44 L25.54974,46.44 L22.03148,46.44 C18.36272,46.44 15.32778,49.2049 14.90208,52.76014 L5.5126,52.76014 L5.5126,52.38604 Z M9.56406,17.21376 L24.31048,17.21376 C29.12046,17.21376 30.32102,20.9926 30.61944,22.76076 L15.87388,22.76076 C15.84808,22.76076 15.82486,22.75732 15.79906,22.75732 L15.65458,22.61198 C15.61072,22.65498 15.57202,22.70056 15.52816,22.74356 C11.01316,22.5621 9.85474,18.93548 9.56406,17.21376 L9.56406,17.21376 Z M38.84448,31.74776 C43.6536,31.74776 44.85502,35.5266 45.1543,37.2939 L30.40702,37.2939 C25.59704,37.2939 24.39648,33.5142 24.0972,31.74776 L38.84448,31.74776 Z M16.83106,24.48076 L31.57748,24.48076 C36.3866,24.48076 37.58802,28.2596 37.8873,30.02776 L23.14002,30.02776 C18.32918,30.02776 17.12948,26.2472 16.83106,24.48076 L16.83106,24.48076 Z M1.72,8.60688 C1.72,5.00348 4.50038,2.0382 8.02896,1.74408 C8.987,4.04114 12.9344,12.01506 21.50688,12.01506 L48.31996,12.01334 C48.33974,12.0099 49.88,11.9282 50.96532,12.9473 C51.58624,13.53038 51.94916,14.3921 52.07386,15.49376 L36.65148,15.49376 L36.65148,16.35376 C36.65148,22.0246 43.26918,25.46202 45.25148,26.36502 L45.25148,33.05754 C44.12316,31.51642 42.33436,30.27802 39.63912,30.07076 C39.29684,27.30844 37.47364,23.19678 32.37126,22.80376 C32.01264,19.9004 30.02862,15.49376 24.31048,15.49376 L8.60688,15.49376 C4.80998,15.49376 1.72,12.40378 1.72,8.60688 L1.72,8.60688 Z M59.44148,29.67 C61.38594,29.67 63.25128,30.50678 64.55848,31.96448 L64.81476,32.25 L85.67148,32.25 L85.67148,23.22 C85.67148,19.65358 82.76898,16.75194 79.20256,16.75194 C75.92682,16.75194 73.21266,19.19778 72.7904,22.36 L65.00482,22.36 C64.86206,20.15926 64.15686,18.4341 62.9047,17.22236 C61.04194,15.4198 58.67178,15.48344 58.59266,15.48 L53.8145,15.48 C53.66916,13.86234 53.10242,12.58524 52.12288,11.67536 C50.47512,10.14628 48.29072,10.28904 48.26148,10.29506 L21.50688,10.29506 C12.79078,10.29506 9.55546,0.98298 9.42216,0.58652 L9.22436,1.22213351e-14 L8.60688,1.22213351e-14 C3.86054,1.22213351e-14 1.71098691e-13,3.86054 1.71098691e-13,8.60688 C1.71098691e-13,13.0849 3.43828,16.77086 7.81224,17.17334 C8.1313,19.74732 9.73864,23.49004 14.08594,24.3079 C4.16842,35.72096 3.80292,51.65418 3.7926,52.37228 L3.7926,52.76014 L0.09718,52.76014 L0.09718,66.08326 L1.38804,65.33592 C2.49228,64.69694 3.75562,64.3581 5.04046,64.3581 C9.06526,64.3581 12.33842,67.63212 12.33842,71.65606 C12.33842,75.68086 9.06526,78.95488 5.04046,78.95488 C3.75562,78.95488 2.49228,78.61604 1.38804,77.97706 L0.09718,77.22972 L0.09718,79.0211 C0.09718,84.05468 4.19336,88.15 9.22694,88.15 L19.66648,88.15 L26.50434,88.15 L26.50434,88.15258 C26.53788,88.15258 26.57056,88.15 26.60324,88.15 L29.0422,88.15 L39.24008,88.15 L39.24008,88.15086 L46.1089,88.15086 L46.1089,88.15258 C46.12266,88.15258 46.13556,88.15086 46.14932,88.15086 L76.55806,88.15258 L80.61726,88.12162 L80.61726,87.2685 C80.61726,73.51968 72.3948,61.26554 60.26106,55.78992 C63.81286,55.22318 67.02582,52.46344 67.95548,51.6 L76.21148,51.6 C83.58856,51.6 85.5313,46.95772 85.61042,46.75906 L85.67148,46.60512 L85.67148,40.85 L64.81476,40.85 L64.55762,41.13638 C63.25128,42.59322 61.3868,43.43 59.44148,43.43 C55.64802,43.43 52.56148,40.34346 52.56148,36.55 C52.56148,32.75654 55.64802,29.67 59.44148,29.67 L59.44148,29.67 Z" id="Fill-19" fill="#B0936D" mask="url(#mask-2)"></path>
        </g>
    </g>
</svg>