<?xml version="1.0" encoding="UTF-8"?>
<svg width="120px" height="120px" viewBox="0 0 120 120" version="1.1" xmlns="http://www.w3.org/2000/svg" xmlns:xlink="http://www.w3.org/1999/xlink">
    <title>game_icon_God of Wealth sicbo</title>
    <defs>
        <linearGradient x1="50%" y1="3.41005068%" x2="50%" y2="100%" id="linearGradient-1">
            <stop stop-color="#000F24" stop-opacity="0.9" offset="0%"></stop>
            <stop stop-color="#011B3E" offset="100%"></stop>
        </linearGradient>
        <linearGradient x1="36.7894439%" y1="19.5215294%" x2="117.000186%" y2="124.517354%" id="linearGradient-2">
            <stop stop-color="#A78C68" offset="0%"></stop>
            <stop stop-color="#7C6341" offset="52.4440456%"></stop>
            <stop stop-color="#AFA286" offset="100%"></stop>
        </linearGradient>
    </defs>
    <g id="game_icon_God-of-Wealth-sicbo" stroke="none" stroke-width="1" fill="none" fill-rule="evenodd">
        <g id="Group-23-Copy" transform="translate(20.000000, 17.000000)" fill="url(#linearGradient-1)">
            <path d="M40.2293542,0.0427258759 C57.4132501,0.0427258759 71.3745574,12.4193013 71.6520652,27.7807506 L71.6562752,28.2471531 L71.6562752,74.9300201 L76.9054065,74.9300201 C78.1972123,74.9300201 79.2432942,75.976102 79.2432942,77.2679078 L79.2432942,82.9382801 C79.2432942,84.2300859 78.1972123,85.2761678 76.9054065,85.2761678 L53.0982676,85.2761678 C51.4484069,85.2761678 49.8664128,84.6232442 48.7009793,83.4554705 L47.6619181,82.4164093 C46.9359392,81.6904303 46.0483193,81.1624161 45.0833443,80.8674384 L34.5305417,80.8674384 C33.5655667,81.1624161 32.6779469,81.6904303 31.9519679,82.4164093 L30.9152469,83.4554705 C29.7474732,84.6232442 28.1678193,85.2761678 26.5179586,85.2761678 L2.38084762,85.2761678 C1.08904179,85.2761678 0.0429598987,84.2300859 0.0429598987,82.9382801 L0.0429598987,77.2679078 C0.0429598987,75.976102 1.08904179,74.9300201 2.38084762,74.9300201 L8.80243309,74.9300201 L8.80243309,28.2471531 C8.80243309,12.6705959 22.8718835,0.0427258759 40.2293542,0.0427258759 Z M15.6519599,79.9997259 L5.65217391,80 L15.6519599,80.0607259 L15.6519599,79.9997259 Z" id="Combined-Shape"></path>
        </g>
        <g id="Group-23" transform="translate(19.000000, 16.000000)">
            <path d="M41.2293542,0.167925876 C58.8715144,0.167925876 73.2411142,12.9060861 73.526742,28.7656157 L73.5310752,29.2471531 L73.5301599,75.0549259 L77.9054065,75.0552201 C79.619146,75.0552201 81.0185386,76.3955181 81.1130106,78.0855408 L81.1180942,78.2679078 L81.1180942,83.9382801 C81.1180942,85.6520197 79.7777962,87.0514122 78.0877735,87.1458843 L77.9054065,87.1509678 L54.0982676,87.1509678 C52.3136641,87.1509678 50.6003656,86.4810358 49.2959594,85.2792466 L49.0824023,85.0740475 L48.0433411,84.0349863 C47.1044318,83.096077 45.8508436,82.5425963 44.5296885,82.4770789 L44.2646298,82.4705119 L37.3492562,82.4705119 C36.0201905,82.4705119 34.7422175,82.9653107 33.7630236,83.8517989 L33.5712419,84.0342885 L32.533824,85.0740475 C31.2726993,86.3351722 29.5891115,87.0708478 27.8145112,87.144794 L27.5179586,87.1509678 L3.38084762,87.1509678 C1.66710807,87.1509678 0.267715554,85.8106698 0.173243466,84.1206471 L0.168159899,83.9382801 L0.168159899,78.2679078 C0.168159899,76.5541683 1.50845795,75.1547757 3.19848065,75.0603037 L3.38084762,75.0552201 L8.9271599,75.0549259 L8.92763309,29.2471531 C8.92763309,13.3255467 23.1208113,0.428170369 40.6957561,0.171815004 L41.2293542,0.167925876 Z M24.558,76.804 L3.38084762,76.8048201 C2.61974914,76.8048201 1.99528428,77.3845145 1.92445139,78.1269048 L1.9177599,78.2679078 L1.9177599,83.9382801 C1.9177599,84.6993786 2.49745426,85.3238435 3.23984463,85.3946763 L3.38084762,85.4013678 L27.5179586,85.4013678 C28.8482246,85.4013678 30.1238852,84.9078312 31.1039687,84.0203175 L31.2959729,83.8375913 L32.3333909,82.7978323 C33.5930725,81.5381507 35.27899,80.8011838 37.0528556,80.7270978 L37.3492562,80.7209119 L44.2646298,80.7209119 C46.0472234,80.7209119 47.7606625,81.3915798 49.0666596,82.5927493 L49.2804951,82.7978323 L50.3201765,83.8375142 C51.2574923,84.7767122 52.5101384,85.3293947 53.8328613,85.3948113 L54.0982676,85.4013678 L77.9054065,85.4013678 C78.666505,85.4013678 79.2909698,84.8216735 79.3618027,84.0792831 L79.3684942,83.9382801 L79.3684942,78.2679078 C79.3684942,77.5068093 78.7887999,76.8823445 78.0464095,76.8115116 L77.9054065,76.8048201 L56.728,76.804 L56.7282386,78.5346938 C56.7282386,79.4196381 57.4071654,80.1447131 58.2679792,80.218599 L58.4130471,80.2247996 L74.9077621,80.1252159 L74.9183248,81.8747841 L58.4183284,81.9743836 C56.5819887,81.9743836 55.0817067,80.5362198 54.9837283,78.7235082 L54.9786386,78.5346938 L54.978,76.804 L26.307,76.804 L26.3076155,78.5346938 C26.3076155,80.3719716 24.8685449,81.871378 23.0517967,81.9692821 L22.8625535,81.9743671 L6.64680172,81.8747835 L6.6575461,80.1252165 L22.8679257,80.2247836 C23.7524184,80.2247836 24.4778975,79.5462846 24.5518136,78.68062 L24.5580155,78.5346938 L24.558,76.804 Z M41.2293542,1.91752588 C24.5045537,1.91752588 10.9504958,13.9317778 10.6810872,28.7958634 L10.677,29.2471531 L10.677,75.055 L18.9851599,75.0549259 L18.9852307,29.2471531 C18.9852307,18.8301732 28.7902047,10.3975431 40.8570771,10.2265333 L41.2309923,10.2238854 C53.3437002,10.2238854 63.2722732,18.5502197 63.4736359,28.925618 L63.4767539,29.2471531 L63.4761599,75.0549259 L71.7814752,75.055 L71.7814752,29.2471531 C71.7814752,14.4756374 58.6612868,2.40651591 42.2339845,1.93201454 L41.7351853,1.92119389 L41.2293542,1.91752588 Z M41.2309923,11.9734854 C30.0238764,11.9734854 20.9322254,19.5917359 20.7380018,28.9416581 L20.7348307,29.2471531 L20.734,75.055 L61.7271539,75.055 L61.7271539,29.2471531 C61.7271539,19.9634338 52.9520942,12.3109505 41.962804,11.9843438 L41.5956832,11.976178 L41.2309923,11.9734854 Z M41.2292029,60.5006364 L47.2522743,66.5237079 L41.2292029,72.5467794 L35.2090767,66.5237079 L41.2292029,60.5006364 Z M41.229,62.975 L37.682,66.524 L41.229,70.071 L44.777,66.523 L41.229,62.975 Z M41.2284181,29.0358077 C44.8014313,29.0358077 48.1668077,30.3429136 50.7938322,32.6639165 L51.157,32.995 L51.1788333,32.9720898 L51.478,33.294 L51.770091,33.5663749 L51.749,33.585 L51.8192214,33.6602088 C54.2133677,36.2328008 55.607195,39.5645647 55.7037004,43.1183655 L55.7090693,43.5141187 C55.7090693,47.0817053 54.4005431,50.4489039 52.0810842,53.0767728 L51.748,53.441 L51.7707931,53.4627589 L51.457,53.754 L51.1788333,54.0538073 L51.158,54.032 L51.08303,54.1028158 C48.5104381,56.4969621 45.1786741,57.8907895 41.6248733,57.9872948 L41.2291201,57.9926637 C37.6600731,57.9926637 34.2948457,56.68471 31.6665263,54.3647399 L31.301,54.031 L31.2810452,54.0538073 L30.999,53.751 L30.6897874,53.4627589 L30.711,53.441 L30.640657,53.3656884 C28.2467224,50.7933239 26.8526985,47.4616689 26.7561789,43.9096652 L26.7508091,43.5141187 C26.7508091,39.9446075 28.0591312,36.5772393 30.3787724,33.9491492 L30.71,33.585 L30.6890853,33.5663749 L30.984,33.291 L31.2810452,32.9720898 L31.302,32.994 L31.376518,32.9259632 C33.9472589,30.531063 37.2787599,29.1376497 40.8326532,29.0411749 L41.2284181,29.0358077 Z M41.2291201,50.6817916 C38.4747593,50.6817916 35.8619389,51.5656984 33.7015035,53.1621081 L33.4097319,53.3842005 L33.313,53.462 L33.4100133,53.5402358 C35.429071,55.1218168 37.8702321,56.0648435 40.4644185,56.2202177 L40.8546606,56.2375978 L41.2291201,56.2430637 C43.9822016,56.2430637 46.5967743,55.3582911 48.7586638,53.7621613 L49.0506315,53.5401143 L49.147,53.462 L49.0509125,53.3843218 C47.0330604,51.802789 44.5906215,50.8599698 41.9944291,50.7046322 L41.6038809,50.6872562 L41.2291201,50.6817916 Z M51.178,35.596 L51.1011467,35.6926073 C49.3652318,37.9090622 48.3981972,40.6358972 48.3981972,43.5141187 C48.3981972,46.2654754 49.2831082,48.8797153 50.8791635,51.0414174 L51.101199,51.3333604 L51.178,51.429 L51.2564675,51.3333604 C52.8377492,49.3143979 53.7811662,46.8719659 53.9366123,44.278537 L53.9540006,43.8884242 L53.9594693,43.5141187 C53.9594693,40.7610373 53.0746967,38.1464645 51.4785669,35.984575 L51.2565199,35.6926073 L51.178,35.596 Z M31.281,35.596 L31.2033586,35.6926073 C29.4674437,37.9090622 28.5004091,40.6358972 28.5004091,43.5141187 C28.5004091,46.2654754 29.3853201,48.8797153 30.9813754,51.0414174 L31.2034109,51.3333604 L31.281,51.429 L31.3586794,51.3333604 C32.9399612,49.3143979 33.8833781,46.8719659 34.0388242,44.278537 L34.0562125,43.8884242 L34.0616812,43.5141187 C34.0616812,40.7610373 33.1769086,38.1464645 31.5807788,35.984575 L31.3587318,35.6926073 L31.281,35.596 Z M48.7929444,35.9492596 L48.6095809,36.0636469 C46.4059483,37.3787216 43.8735822,38.0962798 41.2284181,38.0962798 C38.5120409,38.0962798 35.9118361,37.3376786 33.6657003,35.9518383 C35.0530233,38.1963947 35.8112812,40.7966792 35.8112812,43.5141187 C35.8112812,46.2308987 35.052455,48.8314719 33.6662231,51.0778358 C35.9103905,49.6900877 38.5100767,48.9321916 41.2291201,48.9321916 C43.9485176,48.9321916 46.5495279,49.6903006 48.7953054,51.0763624 C47.4074234,48.8314719 46.6485972,46.2308987 46.6485972,43.5141187 C46.6485972,40.7962761 47.4070801,38.1956234 48.7929444,35.9492596 Z M41.2284181,30.7854077 C38.4753025,30.7854077 35.8611275,31.6697732 33.7006625,33.2659358 L33.4088955,33.4879902 L33.312,33.565 L33.4091764,33.643678 C35.4281389,35.2249597 37.8705708,36.1683767 40.4639998,36.3238227 L40.8541126,36.3412111 L41.2284181,36.3466798 C43.9827451,36.3466798 46.5959618,35.4623667 48.7578223,33.8659894 L49.0497947,33.6439042 L49.146,33.565 L49.0500762,33.4877643 C47.0321299,31.9059329 44.5909603,30.9635032 41.9940103,30.8082372 L41.6033329,30.7908695 L41.2284181,30.7854077 Z M41.2292029,14.5453034 L47.2522743,20.5683748 L41.2292029,26.5914463 L35.2090767,20.5683748 L41.2292029,14.5453034 Z M41.229,17.02 L37.682,20.568 L41.229,24.116 L44.777,20.568 L41.229,17.02 Z" id="Combined-Shape" fill="url(#linearGradient-2)" fill-rule="nonzero"></path>
            <rect id="Rectangle" x="16.6521739" y="75.7826087" width="55.6521739" height="6.08695652"></rect>
        </g>
    </g>
</svg>