<?xml version="1.0" encoding="UTF-8"?>
<svg width="120px" height="120px" viewBox="0 0 120 120" version="1.1" xmlns="http://www.w3.org/2000/svg" xmlns:xlink="http://www.w3.org/1999/xlink">
    <title>game_icon_Sicbo</title>
    <defs>
        <linearGradient x1="50%" y1="3.41005068%" x2="50%" y2="100%" id="linearGradient-1">
            <stop stop-color="#000F24" stop-opacity="0.9" offset="0%"></stop>
            <stop stop-color="#011B3E" offset="100%"></stop>
        </linearGradient>
    </defs>
    <g id="game_icon_Sicbo" stroke="none" stroke-width="1" fill="none" fill-rule="evenodd">
        <path d="M29.1756315,93.6629213 L29.1756315,43.2281348 C29.1756315,28.1882247 42.7569348,16 59.5127101,16 C76.2660584,16 89.8497888,28.1882247 89.8497888,43.2281348 L89.8497888,43.2281348 L89.8497888,93.6629213 L29.1756315,93.6629213 Z M96.5950562,103.76444 L22.4269663,103.76444 L20,93.6634067 L99.0220225,93.6634067 L96.5950562,103.76444 Z" id="Combined-Shape" fill="url(#linearGradient-1)"></path>
        <g id="Group" transform="translate(19.000000, 15.000000)">
            <path d="M40.8764045,10.8876404 L41.1235955,10.8876404 C52.7215753,10.8876404 62.1235955,20.2896607 62.1235955,31.8876404 L62.1235955,79.2022472 L62.1235955,79.2022472 L19.8764045,79.2022472 L19.8764045,31.8876404 C19.8764045,20.2896607 29.2784247,10.8876404 40.8764045,10.8876404 Z" id="Rectangle"></path>
            <g id="Group-17" fill="#B0936D" fill-rule="nonzero">
                <path d="M41.2421753,0.529208989 C58.097404,0.529208989 71.8942094,12.5745381 72.4375558,27.7142002 L72.4499536,28.1739157 L72.4540539,28.6321438 L72.454,78.192 L81.8613715,78.1926157 L79.0140304,90.0432494 L3.46692237,90.0432494 L0.619581261,78.1926157 L10.03,78.192 L10.0302966,28.6321438 C10.0302966,13.2426257 23.7441515,0.78066703 40.7265669,0.532966808 L41.2421753,0.529208989 Z M79.641,79.942 L2.839,79.942 L4.846,88.293 L77.634,88.293 L79.641,79.942 Z M41.2421753,11.9866742 C30.5727201,11.9866742 21.8740282,19.1540327 21.5004187,28.0269705 L21.4909165,28.3301098 L21.4877618,28.6321438 L21.487,78.192 L60.996,78.192 L60.9965888,28.6321438 C60.9965888,19.590004 52.3585857,12.153582 41.6054329,11.9894445 L41.2421753,11.9866742 Z M41.2421753,2.27880899 C25.1121562,2.27880899 12.0435956,13.8629611 11.7838374,28.196948 L11.7798966,28.6321438 L11.779,78.192 L19.738,78.192 L19.7382081,28.6231414 L19.7415483,28.3030933 C19.9483382,18.26311 29.5549234,10.2370742 41.2421753,10.2370742 C52.9488291,10.2370742 62.5444104,18.2827026 62.7430481,28.314691 L62.7461888,28.6321438 L62.746,78.192 L70.7044896,78.192 L70.7044896,28.6400395 L70.7005319,28.1976111 C70.4413161,13.8477227 57.352086,2.27880899 41.2421753,2.27880899 Z M41.2421753,19.9449393 C47.3898031,19.9449393 52.8562964,23.7829311 53.0338735,28.4006236 L53.0383236,28.6321438 L53.0383236,70.2338652 L29.446027,70.2338652 L29.446027,28.6321438 C29.446027,23.9119303 34.992087,19.9449393 41.2421753,19.9449393 Z M41.2421753,21.6945393 C35.9545069,21.6945393 31.365356,24.9083048 31.2002257,28.4358639 L31.195627,28.6321438 L31.195,68.484 L51.288,68.484 L51.2887236,28.6321438 C51.2887236,25.1594792 46.9605791,21.9373613 41.8266302,21.7076174 L41.5351923,21.6978273 L41.2421753,21.6945393 Z M41.2421753,53.0433721 L47.3335447,59.1347416 L41.2421753,65.226111 L35.1508058,59.1347416 L41.2421753,53.0433721 Z M41.242,55.518 L37.625,59.134 L41.242,62.751 L44.858,59.134 L41.242,55.518 Z M41.2421753,39.1332148 L47.3335447,45.2245843 L41.2421753,51.3159537 L35.1508058,45.2245843 L41.2421753,39.1332148 Z M41.242,41.608 L37.625,45.224 L41.242,48.841 L44.858,45.224 L41.242,41.608 Z M41.2421753,25.2254845 L47.3335447,31.3168539 L41.2421753,37.4082234 L35.1508058,31.3168539 L41.2421753,25.2254845 Z M41.242,27.7 L37.625,31.317 L41.242,34.934 L44.859,31.317 L41.242,27.7 Z" id="Combined-Shape"></path>
            </g>
        </g>
    </g>
</svg>