<?xml version="1.0" encoding="UTF-8"?>
<svg width="215px" height="193px" viewBox="0 0 215 193" version="1.1" xmlns="http://www.w3.org/2000/svg" xmlns:xlink="http://www.w3.org/1999/xlink">
    <title>@3xcol1_expand-icon-tc</title>
    <defs>
        <linearGradient x1="50%" y1="-6.03102416%" x2="65.6989313%" y2="114.679697%" id="linearGradient-1">
            <stop stop-color="#2268C8" offset="0%"></stop>
            <stop stop-color="#3B8EDD" stop-opacity="0" offset="100%"></stop>
        </linearGradient>
        <linearGradient x1="3.1734406%" y1="47.426107%" x2="98.9467076%" y2="52.7750908%" id="linearGradient-2">
            <stop stop-color="#004383" stop-opacity="0" offset="0%"></stop>
            <stop stop-color="#003066" offset="44.4674086%"></stop>
            <stop stop-color="#00204C" stop-opacity="0.6" offset="75.5651181%"></stop>
            <stop stop-color="#00204C" stop-opacity="0" offset="100%"></stop>
        </linearGradient>
        <path d="M64.2964825,83.3248312 L64.2964825,81.0328312 L60.2780409,81.0328312 L60.2780409,67.8166234 L51.9732617,67.8166234 C52.0327941,67.3105974 52.1518591,66.7748052 52.270924,66.2092468 L63.5523266,66.2092468 L63.5523266,63.8577143 L52.6876513,63.8577143 C52.8067162,63.1730909 52.9257812,62.4884675 53.0448461,61.8038442 L50.1277552,61.5359481 C50.0682227,62.2205714 50.0086903,63.054026 49.8896253,63.8577143 L38.8761188,63.8577143 L38.8761188,66.2092468 L49.5621967,66.2092468 C49.4431318,66.7748052 49.3538331,67.3105974 49.2645344,67.8166234 L42.1801708,67.8166234 L42.1801708,81.0328312 L38.1021967,81.0328312 L38.1021967,83.3248312 L64.2964825,83.3248312 Z M57.5097812,71.2992727 L44.8293656,71.2992727 L44.8293656,69.6621299 L57.5097812,69.6621299 L57.5097812,71.2992727 Z M57.5097812,74.4247273 L44.8293656,74.4247273 L44.8293656,72.9959481 L57.5097812,72.9959481 L57.5097812,74.4247273 Z M57.5097812,77.5799481 L44.8293656,77.5799481 L44.8293656,76.0916364 L57.5097812,76.0916364 L57.5097812,77.5799481 Z M57.5097812,81.0328312 L44.8293656,81.0328312 L44.8293656,79.2766234 L57.5097812,79.2766234 L57.5097812,81.0328312 Z M62.2426123,88.8315844 L64.4750799,86.9563117 C62.331911,85.8847273 58.640898,84.4559481 55.3368461,83.4736623 L53.6104045,85.2894026 C56.8846903,86.3312208 60.2185084,87.7302338 62.2426123,88.8315844 Z M39.917937,88.8911169 C42.8350279,88.1171948 46.5260409,86.6586494 48.8180409,85.2001039 L46.4665084,83.6224935 C44.6210019,84.8131429 40.9895214,86.2419221 38.012898,86.9860779 C38.6082227,87.4921039 39.4714435,88.3850909 39.917937,88.8911169 Z M72.7543451,88.8018182 C79.481514,85.081039 82.6367347,79.0682597 84.1250464,73.4722078 C85.7026568,78.8003636 88.9471763,85.3489351 95.9422412,88.652987 C96.3292023,87.9088312 97.1626568,86.9265455 97.9663451,86.3014545 C87.5779295,81.6876883 85.7621893,69.810961 85.345462,66.0901818 C85.4942932,64.333974 85.5240594,62.7861299 85.5538256,61.655013 L82.3986049,61.655013 C82.3093062,66.4176104 82.6367347,80.2886753 70.4623451,86.5991169 C71.3850984,87.1944416 72.2780854,88.0874286 72.7543451,88.8018182 Z M117.348416,84.4857143 C118.092571,84.4261818 118.509299,84.1582857 118.985558,83.562961 C119.610649,82.669974 119.819013,79.8124156 119.99761,71.5671688 C119.99761,71.2397403 120.027377,70.5253506 120.027377,70.5253506 L115.294545,70.5253506 L115.294545,67.8166234 L119.967844,67.8166234 C119.819013,68.0547532 119.640416,68.2631169 119.491584,68.4714805 C120.027377,68.7989091 121.009662,69.5728312 121.42639,69.9597922 L121.634753,69.6621299 L121.634753,71.329039 L126.397351,71.329039 C125.802026,71.9838961 125.087636,72.608987 124.462545,73.0852468 L124.462545,75.3177143 L120.741766,75.3177143 L120.741766,77.5204156 L124.462545,77.5204156 L124.462545,81.8365195 C124.462545,82.1341818 124.373247,82.2234805 124.016052,82.2234805 C123.885825,82.2365032 123.596069,82.2438285 123.214086,82.2454564 L122.865655,82.2454564 C122.436465,82.2438285 121.934276,82.2365032 121.42639,82.2234805 C121.753818,82.8485714 122.140779,83.8308571 122.230078,84.5154805 C123.867221,84.5154805 125.05787,84.4559481 125.831792,84.068987 C126.635481,83.7117922 126.814078,83.0271688 126.814078,81.8662857 L126.814078,77.5204156 L130.534857,77.5204156 L130.534857,75.3177143 L126.814078,75.3177143 L126.814078,73.7103377 C128.034494,72.6982857 129.284675,71.4183377 130.266961,70.2276883 L128.778649,69.0965714 L128.30239,69.2156364 L121.932416,69.2156364 C122.378909,68.531013 122.76587,67.7868571 123.182597,66.9534026 L130.415792,66.9534026 L130.415792,64.6614026 L124.164883,64.6614026 C124.492312,63.7981818 124.789974,62.9051948 125.028104,62.041974 L122.646805,61.4168831 C122.170545,63.4707532 121.337091,65.5246234 120.384571,67.1617662 L120.384571,65.5246234 L117.407948,65.5246234 C117.080519,64.4828052 116.514961,63.0242597 116.008935,61.8633766 L113.538338,62.3694026 C113.925299,63.3219221 114.342026,64.5423377 114.639688,65.5246234 L110.383117,65.5246234 L110.383117,67.8166234 L113.032312,67.8166234 L113.032312,71.8052987 C113.032312,75.0200519 112.704883,79.4552208 110.025922,82.5509091 C110.561714,82.8783377 111.335636,83.6522597 111.722597,84.1285195 C114.609922,80.9732987 115.205247,76.4785974 115.294545,72.7875844 L117.646078,72.7875844 C117.467481,79.1873247 117.288883,81.5090909 116.901922,82.0448831 C116.693558,82.3723117 116.485195,82.4318442 116.157766,82.4020779 C115.800571,82.4020779 115.086182,82.4020779 114.252727,82.3127792 C114.609922,82.9378701 114.788519,83.8903896 114.848052,84.575013 C115.830338,84.6047792 116.753091,84.6047792 117.348416,84.4857143 Z M106.48374,67.3701299 L108.716208,66.5962078 C108.359013,65.3162597 107.733922,63.3219221 107.227896,61.8038442 L105.054961,62.3991688 C105.501455,63.9767792 106.156312,66.0901818 106.48374,67.3701299 Z M104.846597,89.0697143 C105.441922,87.3432727 106.305143,85.3787013 106.840935,85.3787013 C107.495792,85.3787013 108.597143,86.3907532 109.817558,87.0753766 C112.050026,88.3850909 114.669455,88.6827532 118.598597,88.6827532 C119.953474,88.6827532 121.595289,88.6527746 123.238138,88.6074376 L124.132621,88.581273 C126.509018,88.5079076 128.777623,88.4076722 130.058597,88.3255584 C130.088364,87.6111688 130.505091,86.3014545 130.802753,85.5870649 C127.498701,86.0037922 122.497974,86.2716883 118.687896,86.2716883 C115.145714,86.2716883 112.347688,86.0930909 110.293818,84.8131429 C109.341299,84.2178182 108.686442,83.7415584 108.120883,83.4141299 C109.043636,81.1816623 109.787792,78.205039 110.293818,75.5558442 L109.192468,75.1391169 L108.77574,75.2284156 L107.376727,75.2284156 C108.001818,73.1745455 108.745974,70.7337143 109.341299,68.6203117 L103.626182,68.6203117 L103.626182,71.1206753 L106.334909,71.1206753 C105.680052,73.4424416 104.935896,75.8535065 104.281039,77.6097143 L107.585091,77.6097143 C107.19813,79.6338182 106.602805,81.7472208 105.918182,83.3545974 C105.025195,83.9201558 104.013143,85.081039 103.030857,86.5991169 L104.846597,89.0697143 Z M137.891369,88.5339221 C139.766642,84.6345455 140.09407,78.6515325 140.09407,74.6033247 L140.09407,68.3226494 L143.874382,68.3226494 L143.874382,70.0490909 L140.510798,70.3765195 L140.719161,71.9243636 L143.874382,71.6267013 L143.874382,71.8648312 C143.874382,73.5912727 144.231577,74.4247273 146.136616,74.4247273 L149.440668,74.4247273 C150.155057,74.4247273 150.988512,74.394961 151.375473,74.2758961 C151.315941,73.7401039 151.256408,73.2340779 151.226642,72.6685195 C150.809915,72.7875844 149.827629,72.8173506 149.321603,72.8173506 L146.791473,72.8173506 C146.196148,72.8173506 146.10685,72.5792208 146.10685,71.8945974 L146.10685,71.4183377 L149.172772,71.1206753 L148.964408,69.6025974 L146.10685,69.8704935 L146.10685,68.3226494 L150.333655,68.3226494 C150.155057,69.2156364 149.946694,70.1086234 149.768096,70.7039481 L151.7922,71.1206753 C152.208928,70.0193247 152.655421,68.2333506 152.953083,66.6855065 L151.315941,66.3878442 L150.958746,66.4473766 L145.958019,66.4473766 L145.958019,65.1078961 L152.149395,65.1078961 L152.149395,63.2326234 L145.958019,63.2326234 L145.958019,61.5657143 L143.398122,61.5657143 L143.398122,66.4473766 L137.80207,66.4473766 L137.80207,74.6033247 C137.80207,78.3241039 137.653239,83.4438961 135.98633,87.0753766 C136.522122,87.3432727 137.504408,88.0874286 137.891369,88.5339221 Z M163.758226,82.9378701 C163.311733,82.669974 162.269915,81.9853506 161.823421,81.4197922 C161.644824,84.1285195 161.287629,85.6168312 160.841135,85.6168312 C160.156512,85.5572987 159.561187,84.5452468 159.084928,82.7295065 C160.900668,80.0505455 162.38898,76.8953247 163.311733,73.7698701 L161.257863,72.6982857 C160.603006,74.9605195 159.62072,77.2822857 158.370538,79.3361558 C158.043109,77.3120519 157.775213,74.8116883 157.56685,72.0434286 L163.758226,71.2397403 L163.430798,68.7989091 L157.418019,69.6025974 C157.298954,67.132 157.209655,64.453039 157.179889,61.7145455 L154.619993,61.7145455 C154.679525,64.6316364 154.79859,67.3701299 154.917655,69.930026 L152.536356,70.2574545 L152.863785,72.6685195 L155.096252,72.3708571 C155.334382,76.2404675 155.751109,79.6040519 156.3762,82.2234805 C155.155785,83.7713247 153.756772,85.081039 152.26846,86.0335584 L152.26846,85.3489351 L149.5002,85.5870649 C149.887161,84.8726753 150.333655,84.068987 150.750382,83.2950649 L148.428616,82.9081039 C148.16072,83.7117922 147.68446,84.8429091 147.237967,85.7954286 L145.451993,85.9442597 C145.213863,85.081039 144.856668,83.9201558 144.499473,83.0569351 L142.564668,83.4141299 C142.86233,84.2178182 143.189759,85.2894026 143.398122,86.0930909 C142.118174,86.2121558 140.957291,86.3014545 139.945239,86.360987 L140.242902,88.4148571 C143.457655,88.146961 147.952356,87.76 152.26846,87.3432727 L152.26846,86.4205195 C152.863785,86.867013 153.548408,87.5516364 153.935369,88.0874286 C155.096252,87.2837403 156.197603,86.3014545 157.209655,85.1108052 C158.072876,87.4623377 159.263525,88.7720519 160.811369,88.8315844 C161.91272,88.8613506 163.133135,87.7004675 163.758226,82.9378701 Z M161.257863,68.0547532 L163.460564,66.8641039 C162.746174,65.6436883 161.376928,63.5898182 160.335109,62.1015065 L158.281239,63.0837922 C159.352824,64.6316364 160.662538,66.8045714 161.257863,68.0547532 Z M152.50659,77.0739221 L152.50659,75.2581818 L140.897759,75.2581818 L140.897759,77.0739221 L152.50659,77.0739221 Z M151.613603,82.789039 L151.613603,78.1157403 L141.582382,78.1157403 L141.582382,82.789039 L151.613603,82.789039 Z M149.410902,81.3304935 L143.695785,81.3304935 L143.695785,79.5742857 L149.410902,79.5742857 L149.410902,81.3304935 Z" id="path-3"></path>
        <filter x="-7.2%" y="-28.9%" width="115.9%" height="172.3%" filterUnits="objectBoundingBox" id="filter-4">
            <feOffset dx="1" dy="2" in="SourceAlpha" result="shadowOffsetOuter1"></feOffset>
            <feGaussianBlur stdDeviation="3" in="shadowOffsetOuter1" result="shadowBlurOuter1"></feGaussianBlur>
            <feColorMatrix values="0 0 0 0 0   0 0 0 0 0   0 0 0 0 0  0 0 0 0.5 0" type="matrix" in="shadowBlurOuter1"></feColorMatrix>
        </filter>
        <linearGradient x1="0%" y1="102.058876%" x2="96.2146577%" y2="102.058876%" id="linearGradient-5">
            <stop stop-color="#89663D" stop-opacity="0" offset="0%"></stop>
            <stop stop-color="#AB8457" offset="33.8969624%"></stop>
            <stop stop-color="#B28B5D" offset="63.0111165%"></stop>
            <stop stop-color="#BF996C" stop-opacity="0" offset="100%"></stop>
            <stop stop-color="#89663D" stop-opacity="0" offset="100%"></stop>
        </linearGradient>
        <polygon id="path-6" points="0.0956164384 0.0960273973 13.6586301 0.0960273973 13.6586301 18.1780822 0.0956164384 18.1780822"></polygon>
    </defs>
    <g id="col1_expand-icon-tc" stroke="none" stroke-width="1" fill="none" fill-rule="evenodd">
        <g id="logo" transform="translate(5.000000, 2.000000)">
            <polygon id="Fill-7" fill="url(#linearGradient-1)" points="48.6181818 95.3703837 102.196774 190.742026 155.776623 95.3703837 102.196774 0"></polygon>
            <polygon id="Fill-7" fill="url(#linearGradient-1)" points="48.6181818 95.3703837 102.196774 190.742026 155.776623 95.3703837 102.196774 0"></polygon>
            <rect id="Rectangle" fill="url(#linearGradient-2)" x="17.8597403" y="56.626539" width="168.675325" height="39.7379221"></rect>
            <g id="真人遊戲" fill-rule="nonzero">
                <use fill="black" fill-opacity="1" filter="url(#filter-4)" xlink:href="#path-3"></use>
                <use fill="#FFFFFF" xlink:href="#path-3"></use>
            </g>
            <line x1="18.3558442" y1="56.626539" x2="184.054545" y2="56.626539" id="Line-7-Copy" stroke="url(#linearGradient-5)" stroke-width="0.992207792" stroke-linecap="square"></line>
            <line x1="18.3558442" y1="97.3579091" x2="184.054545" y2="97.3579091" id="Line-7" stroke="url(#linearGradient-5)" stroke-width="0.992207792" stroke-linecap="square" transform="translate(101.205195, 97.357909) scale(-1, 1) translate(-101.205195, -97.357909) "></line>
            <g id="Group-18" transform="translate(52.000000, 110.000000)">
                <path d="M34.9317808,14.109589 C34.9317808,13.8356164 35.0687671,13.6986301 35.3427397,13.6986301 L35.3427397,13.2876712 L33.0139726,13.2876712 C33.9728767,12.6027397 34.7934247,11.7808219 35.4783562,10.9589041 L39.3153425,10.9589041 C40.000274,11.7808219 40.6852055,12.6027397 41.6427397,13.4246575 L39.7263014,13.4246575 L39.7263014,13.8356164 C40.000274,13.8356164 40.1372603,13.9726027 40.1372603,14.2465753 L40.1372603,19.7260274 C40.1372603,20 39.8632877,20.2739726 39.5879452,20.2739726 L39.4523288,20.2739726 L39.4523288,20.6849315 L43.1509589,20.6849315 L43.1509589,20.2739726 C42.8769863,20.2739726 42.6030137,20 42.6030137,19.7260274 L42.6030137,14.2465753 C43.9728767,15.2054795 45.3427397,15.890411 47.2605479,16.7123288 C47.3975342,16.7123288 47.5345205,16.9863014 47.3975342,17.1232877 L47.8071233,17.3972603 L49.0413699,14.7945205 L48.630411,14.5205479 C48.630411,14.6575342 48.4920548,14.6575342 48.3564384,14.6575342 C45.3427397,13.6986301 43.2879452,12.6027397 41.7810959,10.9589041 L46.4372603,10.9589041 L46.4372603,2.73972603 C46.4372603,2.32876712 46.7126027,2.05479452 47.1221918,2.05479452 L47.2605479,2.05479452 L47.2605479,1.50684932 L46.4372603,1.50684932 L43.4249315,1.50684932 L30.9591781,1.50684932 L27.9441096,1.50684932 L27.2591781,1.50684932 L27.2591781,1.91780822 C27.6715068,1.91780822 27.9441096,2.19178082 27.9441096,2.60273973 L27.9441096,10.8219178 L32.4660274,10.8219178 C30.8221918,12.1917808 28.9043836,13.2876712 25.7536986,14.2465753 C25.6167123,14.2465753 25.479726,14.2465753 25.3427397,14.109589 L24.9317808,14.3835616 L26.5742466,16.8493151 L26.9865753,16.5753425 C26.849589,16.4383562 26.9865753,16.3013699 27.1235616,16.1643836 C29.1783562,15.3424658 30.5482192,14.5205479 31.9180822,13.5616438 L32.0536986,13.5616438 C32.1920548,16.5753425 30.2742466,17.5342466 27.9441096,18.2191781 C27.8084932,18.2191781 27.6715068,18.2191781 27.5345205,18.0821918 L27.1235616,18.3561644 L29.0413699,20.6849315 L29.4523288,20.4109589 C29.3139726,20.2739726 29.4523288,20 29.5893151,20 C32.4660274,19.4520548 34.5208219,18.3561644 34.9317808,14.109589 L34.9317808,14.109589 Z M38.630411,5.34246575 L44.3824658,5.34246575 L44.3824658,3.56164384 L38.630411,3.56164384 L38.630411,5.34246575 Z M38.630411,8.76712329 L44.3824658,8.76712329 L44.3824658,7.12328767 L38.630411,7.12328767 L38.630411,8.76712329 Z M30.6838356,5.34246575 L36.3016438,5.34246575 L36.3016438,3.56164384 L30.6838356,3.56164384 L30.6838356,5.34246575 Z M30.6838356,8.76712329 L36.3016438,8.76712329 L36.3016438,7.12328767 L30.6838356,7.12328767 L30.6838356,8.76712329 Z" id="Fill-1" fill="#FFFFFF"></path>
                <path d="M93.2873973,1.78082192 C92.4654795,4.38356164 91.7805479,5.20547945 91.5065753,5.47945205 L91.9175342,6.98630137 C92.7408219,6.84931507 93.4257534,6.71232877 94.2463014,6.43835616 C93.4257534,7.94520548 92.6024658,9.17808219 91.6435616,10.1369863 L92.0558904,11.5068493 C93.6983562,11.2328767 95.0682192,10.8219178 96.3010959,10.5479452 C96.4380822,10.9589041 96.4380822,11.369863 96.5750685,11.9178082 L98.220274,11.5068493 C97.8079452,9.7260274 97.3969863,8.08219178 96.850411,6.71232877 L95.890137,6.98630137 C96.4380822,6.02739726 96.7120548,5.47945205 97.3969863,4.24657534 C97.5353425,4.10958904 97.6709589,3.97260274 97.8079452,3.97260274 L97.9449315,3.56164384 L95.6161644,2.73972603 L95.4805479,3.15068493 C95.6161644,3.15068493 95.7531507,3.42465753 95.7531507,3.56164384 C95.4805479,4.10958904 95.2052055,4.65753425 95.0682192,4.65753425 L93.8353425,5.06849315 C94.2463014,4.38356164 94.6572603,3.69863014 95.2052055,2.46575342 C95.3421918,2.32876712 95.4805479,2.19178082 95.6161644,2.19178082 L95.7531507,2.19178082 L95.890137,1.78082192 L95.3421918,1.64383562 L95.2052055,1.64383562 L93.150411,0.95890411 L93.0134247,1.36986301 L93.150411,1.50684932 C93.2873973,1.36986301 93.2873973,1.50684932 93.2873973,1.78082192 M95.3421918,7.53424658 C95.4805479,7.94520548 95.6161644,8.49315068 95.7531507,9.04109589 C95.2052055,9.17808219 94.6572603,9.31506849 94.1106849,9.31506849 C94.520274,8.76712329 94.9312329,8.21917808 95.3421918,7.53424658" id="Fill-3" fill="#FFFFFF"></path>
                <path d="M98.4926027,17.3976712 L98.0816438,17.2593151 C97.9460274,17.5346575 97.6706849,17.670274 97.3967123,17.5346575 C94.2460274,16.4387671 93.1515068,15.3428767 91.7816438,13.8346575 L97.3967123,13.8346575 C97.5350685,13.8346575 97.6706849,13.9730137 97.6706849,14.11 L98.0816438,14.11 L98.0816438,13.8346575 L98.0816438,11.9182192 L98.0816438,11.5072603 L97.6706849,11.5072603 L97.6706849,11.6442466 C97.6706849,11.7812329 97.5350685,11.9182192 97.3967123,11.9182192 L89.1775342,11.9182192 L89.1775342,10.2743836 L91.3706849,10.2743836 L91.3706849,2.87712329 C91.3706849,2.74013699 91.5063014,2.60315068 91.6432877,2.60315068 L91.7816438,2.60315068 L91.7816438,2.19219178 L88.7665753,2.19219178 C88.9035616,1.78123288 89.1775342,1.37027397 89.3158904,0.959315068 C89.3158904,0.822328767 89.5884932,0.685342466 89.7268493,0.685342466 L89.8624658,0.685342466 L89.8624658,0.274383562 L86.9871233,0.000410958904 L86.9871233,0.411369863 C87.2610959,0.411369863 87.3967123,0.685342466 87.2610959,0.822328767 C87.1227397,1.23328767 86.9871233,1.64424658 86.8487671,2.05520548 L84.6569863,2.05520548 L84.6569863,2.46616438 L84.7939726,2.46616438 C84.9323288,2.46616438 85.0679452,2.60315068 85.0679452,2.74013699 L82.7391781,1.91821918 L82.6021918,2.32917808 C82.7391781,2.32917808 82.8775342,2.60315068 82.8775342,2.74013699 C82.6021918,3.28808219 82.1926027,3.6990411 82.1926027,3.6990411 C81.6432877,3.8360274 81.0967123,3.9730137 80.5473973,4.11 C80.9583562,3.28808219 81.5076712,2.74013699 82.1926027,1.50589041 C82.3282192,1.37027397 82.4665753,1.23328767 82.6021918,1.37027397 L82.8775342,1.50589041 L83.0131507,1.09630137 L80.2734247,0.136027397 L80.1378082,0.548356164 L80.2734247,0.548356164 C80.4117808,0.548356164 80.5473973,0.820958904 80.5473973,0.959315068 C79.4528767,3.56068493 78.629589,4.3839726 78.2186301,4.65794521 L78.629589,6.16479452 C79.5884932,6.02780822 80.5473973,5.75383562 81.3693151,5.61547945 C80.5473973,7.12369863 79.5884932,8.35520548 78.629589,9.45246575 L79.0419178,10.8223288 C80.8227397,10.5483562 82.3282192,10.1373973 83.5624658,9.86342466 L83.9720548,11.779863 L85.4789041,10.9593151 L85.3419178,10.41 L87.3967123,10.41 L87.3967123,12.0552055 L79.1775342,12.0552055 C79.0419178,12.0552055 78.9035616,11.9182192 78.9035616,11.779863 L78.9035616,11.6442466 L78.4926027,11.6442466 L78.4926027,14.11 L78.9035616,14.11 C78.9035616,13.9730137 79.0419178,13.8346575 79.1775342,13.8346575 L85.0679452,13.8346575 C83.2871233,15.7538356 82.3282192,16.5743836 79.4528767,17.670274 C79.0419178,17.8086301 78.7679452,17.670274 78.4926027,17.3976712 L78.2186301,17.670274 L79.9994521,20.41 L80.2734247,20.1373973 C80.1378082,19.9990411 80.2734247,19.7250685 80.4117808,19.7250685 C83.6980822,18.7675342 86.0268493,16.0278082 87.3967123,13.9730137 L87.5336986,13.9730137 L87.5336986,19.1784932 C87.5336986,19.4524658 87.2610959,19.7250685 86.9871233,19.7250685 L86.9871233,20.1373973 L87.5336986,20.1373973 L89.7268493,20.1373973 L90.2734247,20.1373973 L90.2734247,19.7250685 C90.0008219,19.7250685 89.7268493,19.4524658 89.7268493,19.1784932 L89.7268493,13.9730137 L89.8624658,13.9730137 C91.3706849,16.1647945 93.6980822,18.9045205 97.1227397,19.7250685 C97.3967123,19.7250685 97.5350685,20.1373973 97.3967123,20.41 L97.8076712,20.5483562 L98.4926027,19.040137 L99.0405479,18.0826027 L98.4926027,17.3976712 Z M80.9583562,8.63054795 C81.3693151,8.08260274 81.7816438,7.39767123 82.3282192,6.71273973 C82.4665753,7.12369863 82.6021918,7.67164384 82.8775342,8.21958904 C82.1926027,8.35520548 81.6432877,8.49356164 80.9583562,8.63054795 L80.9583562,8.63054795 Z M84.9323288,9.72506849 C84.5213699,8.35520548 84.2473973,7.12369863 83.8364384,6.02780822 L82.6021918,6.43876712 C83.1515068,5.34287671 83.6980822,4.65794521 84.3830137,3.42506849 C84.5213699,3.28808219 84.6569863,3.15109589 84.7939726,3.15109589 L84.9323288,2.74013699 L84.9323288,9.72506849 Z M86.8487671,5.47986301 L89.3158904,5.47986301 L89.3158904,3.6990411 L86.8487671,3.6990411 L86.8487671,5.47986301 Z M86.8487671,8.49356164 L89.3158904,8.49356164 L89.3158904,6.71273973 L86.8487671,6.71273973 L86.8487671,8.49356164 Z" id="Fill-5" fill="#FFFFFF"></path>
                <path d="M71.9180822,7.39739726 L71.9180822,2.60287671 C71.9180822,2.19191781 72.1920548,1.91794521 72.6030137,1.91794521 L72.6030137,1.5069863 L71.9180822,1.5069863 L69.3153425,1.5069863 L67.1235616,1.5069863 L64.5208219,1.5069863 L63.8358904,1.5069863 L63.8358904,1.91794521 C64.2454795,1.91794521 64.5208219,2.19191781 64.5208219,2.60287671 L64.5208219,7.39739726 L71.9180822,7.39739726 Z M66.4386301,5.75356164 L69.8632877,5.75356164 L69.8632877,3.28780822 L66.4386301,3.28780822 L66.4386301,5.75356164 Z" id="Fill-7" fill="#FFFFFF"></path>
                <g id="Group-11" transform="translate(59.904110, 2.780822)">
                    <mask id="mask-7" fill="white">
                        <use xlink:href="#path-6"></use>
                    </mask>
                    <g id="Clip-10"></g>
                    <path d="M6.6709589,11.6028767 L12.9736986,11.6028767 C13.1093151,11.6028767 13.2463014,11.739863 13.2463014,11.8768493 L13.6586301,11.8768493 L13.6586301,11.6028767 L13.6586301,9.68506849 L13.6586301,9.27410959 L13.1093151,9.27410959 C13.1093151,9.54808219 12.9736986,9.68506849 12.6983562,9.68506849 L12.150411,9.68506849 L12.150411,6.67136986 C12.150411,6.39739726 12.2887671,6.26041096 12.5613699,6.26041096 L12.8353425,6.26041096 L12.8353425,5.84945205 L12.150411,5.84945205 L3.10931507,5.84945205 L3.10931507,0.917945205 C3.10931507,0.643972603 3.38465753,0.37 3.65726027,0.37 L3.65726027,0.0960273973 L3.10931507,0.0960273973 L1.05452055,0.0960273973 L0.506575342,0.0960273973 L0.506575342,0.506986301 C0.780547945,0.506986301 1.05452055,0.780958904 1.05452055,1.05493151 L1.05452055,7.76726027 L5.02712329,7.76726027 C5.02712329,7.76726027 4.89013699,9.27410959 4.89013699,9.82205479 L0.780547945,9.82205479 C0.644931507,9.82205479 0.506575342,9.68506849 0.506575342,9.54808219 L0.0956164384,9.54808219 L0.0956164384,12.0138356 L0.506575342,12.0138356 C0.506575342,11.8768493 0.644931507,11.739863 0.780547945,11.739863 L4.61616438,11.739863 C4.47917808,13.5193151 3.38465753,15.0275342 1.19150685,15.5741096 C1.05452055,15.5741096 0.780547945,15.5741096 0.644931507,15.4384932 L0.369589041,15.1645205 L0.0956164384,15.4384932 L1.60246575,18.1782192 L1.87643836,17.9042466 C1.73945205,17.6289041 1.73945205,17.3563014 2.01479452,17.2193151 C4.75452055,16.3973973 6.26,14.3426027 6.6709589,11.6028767 M7.08191781,7.76726027 L10.0956164,7.76726027 L10.0956164,9.82205479 L6.94493151,9.82205479 C6.94493151,9.27410959 7.08191781,7.76726027 7.08191781,7.76726027" id="Fill-9" fill="#FFFFFF" mask="url(#mask-7)"></path>
                </g>
                <path d="M58.4936986,18.2191781 L58.4936986,18.2191781 L58.7663014,18.630137 L60.9594521,16.3013699 L60.6854795,16.0273973 C60.5484932,16.1643836 60.2745205,16.1643836 60.0005479,16.0273973 C59.4512329,15.4794521 58.9046575,14.9315068 58.219726,14.2465753 C59.3156164,11.7808219 59.8635616,9.17808219 60.0005479,5.75342466 L60.0005479,4.65753425 L56.7115068,4.65753425 C56.849863,3.69863014 56.9854795,2.73972603 57.1238356,1.78082192 C57.1238356,1.50684932 57.3964384,1.23287671 57.670411,1.36986301 L57.670411,0.95890411 L57.1238356,0.95890411 L55.2060274,0.684931507 L54.5210959,0.684931507 L54.5210959,1.09589041 C54.7950685,1.09589041 55.0690411,1.36986301 55.0690411,1.78082192 C54.9306849,2.87671233 54.7950685,3.83561644 54.6567123,4.79452055 L53.4252055,4.79452055 C53.2868493,4.79452055 53.1512329,4.65753425 53.1512329,4.52054795 L53.1512329,4.38356164 L52.740274,4.38356164 L52.740274,4.65753425 L52.740274,6.57534247 L52.740274,6.84931507 L53.1512329,6.84931507 C53.1512329,6.71232877 53.2868493,6.57534247 53.4252055,6.57534247 L54.3841096,6.57534247 C53.9717808,8.76712329 53.5608219,10.1369863 53.0142466,12.0547945 C54.110137,13.0136986 55.0690411,13.8356164 55.8909589,14.6575342 C55.2060274,15.890411 54.3841096,16.9863014 53.4252055,17.9452055 C53.1512329,18.2191781 52.8758904,18.2191781 52.6019178,17.9452055 L52.3293151,18.2191781 L54.5210959,20.6849315 L54.7950685,20.4109589 C54.6567123,20.1369863 54.6567123,19.8630137 54.7950685,19.7260274 C55.7539726,18.7671233 56.7115068,17.5342466 57.3964384,16.3013699 C57.8087671,16.8493151 58.3553425,17.260274 58.6306849,17.6712329 C58.6306849,17.8082192 58.6306849,18.0821918 58.4936986,18.2191781 M56.5758904,12.8767123 C56.0265753,12.4657534 55.6156164,12.0547945 55.0690411,11.5068493 C55.48,10.1369863 55.8909589,8.76712329 56.3005479,6.71232877 L57.9457534,6.71232877 C57.8087671,9.17808219 57.3964384,10.9589041 56.5758904,12.8767123" id="Fill-12" fill="#FFFFFF"></path>
                <path d="M72.0545205,20.6846575 L73.9723288,18.0832877 L73.6983562,17.8079452 L73.6983562,17.9449315 C73.5627397,18.2189041 73.150411,18.2189041 72.8778082,18.0832877 C71.369589,16.9860274 69.7257534,16.1641096 67.9449315,15.3435616 L66.8490411,16.8490411 C68.4928767,17.5339726 70.1380822,18.629863 71.6435616,19.7257534 C71.9175342,19.8627397 71.9175342,20.2736986 71.7805479,20.5476712 L72.0545205,20.6846575 Z" id="Fill-14" fill="#FFFFFF"></path>
                <path d="M0.410958904,9.04082192 C0.410958904,8.90383562 0.547945205,8.62986301 0.821917808,8.62986301 L2.46575342,8.62986301 L2.46575342,20.2736986 L20.6849315,20.2736986 C20.9589041,20.2736986 21.0958904,20.4106849 21.0958904,20.6846575 L21.6438356,20.6846575 L21.6438356,20.2736986 L21.6438356,17.9449315 L21.6438356,17.5339726 L20.9589041,17.5339726 C20.9589041,17.8079452 20.8219178,17.9449315 20.5479452,17.9449315 L4.93150685,17.9449315 L4.93150685,8.76684932 L9.7260274,8.76684932 L9.7260274,15.6161644 L18.630137,15.6161644 L18.630137,8.76684932 L21.6438356,8.76684932 C21.7808219,8.76684932 22.0547945,8.90383562 22.0547945,9.17780822 L22.3287671,9.17780822 L22.3287671,8.76684932 L22.3287671,6.43808219 L22.3287671,6.02712329 L21.9178082,6.02712329 C21.9178082,6.16410959 21.7808219,6.43808219 21.5068493,6.43808219 L18.4931507,6.43808219 L18.4931507,2.60246575 C18.4931507,2.19150685 18.7671233,1.91753425 19.1780822,1.91753425 L19.1780822,1.50657534 L15.4794521,1.50657534 L15.4794521,1.91753425 C15.890411,1.91753425 16.1643836,2.19150685 16.1643836,2.60246575 L16.1643836,6.43808219 L12.0547945,6.43808219 L12.0547945,2.60246575 C12.0547945,2.19150685 12.3287671,1.91753425 12.739726,1.91753425 L12.739726,1.50657534 L9.04109589,1.50657534 L9.04109589,1.91753425 C9.45205479,1.91753425 9.7260274,2.19150685 9.7260274,2.60246575 L9.7260274,6.43808219 L4.93150685,6.43808219 L4.93150685,2.87643836 C4.93150685,2.46547945 5.20547945,2.19150685 5.61643836,2.19150685 L5.75342466,2.19150685 L5.75342466,1.78054795 L1.78082192,1.78054795 L1.78082192,2.19150685 C2.19178082,2.19150685 2.46575342,2.46547945 2.46575342,2.87643836 L2.46575342,6.57506849 L0.821917808,6.57506849 C0.684931507,6.57506849 0.410958904,6.43808219 0.410958904,6.16410959 L0,6.16410959 L0,6.57506849 L0,8.90383562 L0,9.31479452 L0.410958904,9.04082192 Z M12.1917808,13.2873973 L16.3013699,13.2873973 L16.3013699,8.76684932 L12.1917808,8.76684932 L12.1917808,13.2873973 Z" id="Fill-16" fill="#FFFFFF"></path>
            </g>
        </g>
    </g>
</svg>